<?xml version="1.0" encoding="utf-8"?>
<!-- Generator: Adobe Illustrator 18.1.1, SVG Export Plug-In . SVG Version: 6.00 Build 0)  -->
<svg version="1.1" id="Layer_1" xmlns="http://www.w3.org/2000/svg" xmlns:xlink="http://www.w3.org/1999/xlink" x="0px" y="0px"
	 viewBox="0 0 293.3 26.6" enable-background="new 0 0 293.3 26.6" xml:space="preserve">
<g>
	<path fill="#FFFFFF" d="M8.5,18.9C7.9,17,5.9,10.1,5.1,7.5H5.1v11.4H1V2.4h6.3c0,0,2.8,10,3.2,11.5c0.4-1.5,3.1-11.5,3.1-11.5h6.3
		v16.5h-4.1V7.5h-0.1c-0.8,2.6-2.8,9.5-3.4,11.4H8.5z"/>
	<path fill="#FFFFFF" d="M21.7,6.3v-4h4.2v4H21.7z M25.9,18.9h-4.2V7.6h4.2V18.9z"/>
	<path fill="#FFFFFF" d="M31.8,7.6v1.7c0.4-0.9,1.5-2.1,3.6-2.1c2.2,0,3.9,1.3,3.9,4v7.7h-4.2v-6.3c0-1.5-0.6-1.9-1.5-1.9
		c-0.9,0-1.7,0.7-1.7,2.6v5.6h-4.2V7.6H31.8z"/>
	<path fill="#FFFFFF" d="M45.1,7.6v1.7c0.4-0.9,1.5-2.1,3.6-2.1c2.2,0,3.9,1.3,3.9,4v7.7h-4.2v-6.3c0-1.5-0.6-1.9-1.5-1.9
		c-0.9,0-1.7,0.7-1.7,2.6v5.6h-4.2V7.6H45.1z"/>
	<path fill="#FFFFFF" d="M65.2,16.6c-0.9,1.7-2.9,2.6-5.3,2.6c-3.6,0-6.1-2.1-6.1-6c0-3.9,2.6-6,6-6c3.9,0,5.8,2.8,5.8,6.2v0.9H58
		c0,0.8,0.3,1.9,1.8,1.9c0.9,0,1.4-0.4,1.8-1L65.2,16.6z M58,12.1h3.5c-0.1-1.3-0.6-2-1.7-2C58.6,10.1,58,10.8,58,12.1z"/>
	<path fill="#FFFFFF" d="M73.5,17.5c-0.7,1.2-1.8,1.8-3.5,1.8c-2.3,0-3.6-1.4-3.6-3.3c0-2.6,2-3.4,4.2-3.8l2.7-0.4v-0.5
		c0-0.7-0.3-1.1-1.2-1.1c-0.8,0-1.2,0.5-1.3,1h-4c0.2-2.2,2.3-3.8,5.2-3.8c3,0,5.3,1.1,5.3,4.4v7.2h-3.9L73.5,17.5z M73.4,14.8V14
		l-1.9,0.3c-0.9,0.1-1.1,0.6-1.1,1.1c0,0.7,0.6,0.9,1.2,0.9C72.5,16.3,73.4,15.9,73.4,14.8z"/>
	<path fill="#FFFFFF" d="M83.2,17.5v6.1H79v-16h4.1v1.6c0.4-0.8,1.4-2,3.6-2c2.7,0,4.9,2.3,4.9,6c0,3.7-2.2,6-4.9,6
		C85.1,19.2,83.8,18.6,83.2,17.5z M85.3,10.4c-1.3,0-2.1,1-2.1,2.7v0.2c0,1.7,0.9,2.7,2.1,2.7c1.3,0,2.1-1.2,2.1-2.8
		C87.3,11.6,86.6,10.4,85.3,10.4z"/>
	<path fill="#FFFFFF" d="M92.6,13.2c0-3.8,2.6-6,6.1-6s6.1,2.1,6.1,6c0,3.8-2.6,6-6.1,6S92.6,17.1,92.6,13.2z M100.6,13.2
		c0-1.7-0.5-3-1.9-3s-1.9,1.3-1.9,3c0,1.7,0.5,3,1.9,3S100.6,14.9,100.6,13.2z"/>
	<path fill="#FFFFFF" d="M106.2,2.4h4.2v16.5h-4.2V2.4z"/>
	<path fill="#FFFFFF" d="M112.1,6.3v-4h4.2v4H112.1z M116.3,18.9h-4.2V7.6h4.2V18.9z"/>
	<path fill="#FFFFFF" d="M123.7,11.7c2.3,0.4,4.7,1,4.7,3.7c0,2.5-2.3,3.9-5.4,3.9c-2.7,0-5.1-1-5.5-3.1l3.9-0.7
		c0.1,0.7,0.9,0.9,1.6,0.9c0.7,0,1.3-0.2,1.3-0.7c0-0.5-0.3-0.7-1.6-0.9c-2-0.3-4.8-0.8-4.8-3.7c0-2.8,2.6-3.8,5.2-3.8
		c2.6,0,4.8,1,5.2,2.9l-3.8,0.8c-0.1-0.6-0.8-0.9-1.4-0.9c-0.6,0-1.1,0.2-1.1,0.7C122,11.4,122.7,11.5,123.7,11.7z"/>
	<path fill="#FFFFFF" d="M134.5,2.4h4.3v16.5h-4.3V2.4z"/>
	<path fill="#FFFFFF" d="M144.7,7.6v1.7c0.4-0.9,1.5-2.1,3.6-2.1c2.2,0,3.9,1.3,3.9,4v7.7H148v-6.3c0-1.5-0.6-1.9-1.5-1.9
		c-0.8,0-1.7,0.7-1.7,2.6v5.6h-4.2V7.6H144.7z"/>
	<path fill="#FFFFFF" d="M159.3,11.7c2.3,0.4,4.7,1,4.7,3.7c0,2.5-2.3,3.9-5.4,3.9c-2.7,0-5.1-1-5.5-3.1l3.9-0.7
		c0.1,0.7,0.8,0.9,1.6,0.9c0.7,0,1.3-0.2,1.3-0.7c0-0.5-0.3-0.7-1.6-0.9c-2-0.3-4.8-0.8-4.8-3.7c0-2.8,2.6-3.8,5.2-3.8
		c2.6,0,4.8,1,5.2,2.9l-3.8,0.8c-0.1-0.6-0.8-0.9-1.4-0.9c-0.6,0-1.1,0.2-1.1,0.7C157.6,11.4,158.2,11.5,159.3,11.7z"/>
	<path fill="#FFFFFF" d="M173.1,19c-0.6,0.1-1.4,0.2-2.2,0.2c-2.5,0-4.3-1.1-4.3-4.2v-4.4h-1.8v-3h1.8V4.4l4.1-1.9v5.1h2.3v3h-2.3
		v4.2c0,0.9,0.5,1.1,1.3,1.1c0.5,0,0.8,0,1.1-0.1V19z"/>
	<path fill="#FFFFFF" d="M174.8,6.3v-4h4.2v4H174.8z M179,18.9h-4.2V7.6h4.2V18.9z"/>
	<path fill="#FFFFFF" d="M188.6,19c-0.6,0.1-1.4,0.2-2.2,0.2c-2.5,0-4.3-1.1-4.3-4.2v-4.4h-1.8v-3h1.8V4.4l4.1-1.9v5.1h2.3v3h-2.3
		v4.2c0,0.9,0.5,1.1,1.3,1.1c0.5,0,0.8,0,1.1-0.1V19z"/>
	<path fill="#FFFFFF" d="M197.6,18.9v-1.7c-0.4,0.9-1.5,2.1-3.5,2.1c-2.1,0-3.8-1.3-3.8-4V7.6h4.2v6.3c0,1.5,0.5,1.9,1.4,1.9
		c0.8,0,1.7-0.7,1.7-2.6V7.6h4.2v11.3H197.6z"/>
	<path fill="#FFFFFF" d="M211.2,19c-0.6,0.1-1.4,0.2-2.2,0.2c-2.5,0-4.3-1.1-4.3-4.2v-4.4h-1.8v-3h1.8V4.4l4.1-1.9v5.1h2.3v3h-2.3
		v4.2c0,0.9,0.5,1.1,1.3,1.1c0.5,0,0.8,0,1.1-0.1V19z"/>
	<path fill="#FFFFFF" d="M223.6,16.6c-0.9,1.7-2.9,2.6-5.3,2.6c-3.6,0-6.1-2.1-6.1-6c0-3.9,2.6-6,6-6c3.9,0,5.8,2.8,5.8,6.2v0.9
		h-7.6c0,0.8,0.3,1.9,1.8,1.9c0.9,0,1.4-0.4,1.8-1L223.6,16.6z M216.4,12.1h3.5c-0.1-1.3-0.6-2-1.7-2
		C217,10.1,216.5,10.8,216.4,12.1z"/>
	<path fill="#FFFFFF" d="M229.5,13.2c0-3.8,2.6-6,6.1-6c3.5,0,6.1,2.1,6.1,6c0,3.8-2.6,6-6.1,6C232,19.2,229.5,17.1,229.5,13.2z
		 M237.5,13.2c0-1.7-0.5-3-1.9-3c-1.4,0-1.9,1.3-1.9,3c0,1.7,0.5,3,1.9,3C237,16.2,237.5,14.9,237.5,13.2z"/>
	<path fill="#FFFFFF" d="M248.5,2c0.8,0,1.5,0.1,2.2,0.3v3.2c-0.4-0.1-0.7-0.2-1.3-0.2c-0.8,0-1.3,0.4-1.3,1.3v1h2.3v3H248v8.3h-4.2
		v-8.3h-1.8v-3h1.8v-1C243.9,3.6,245.8,2,248.5,2z"/>
	<path fill="#FFFFFF" d="M271.8,18.9h-4.4l-1.2-3.5h-5.5l-1.2,3.5h-4.3L261,2.4h4.8L271.8,18.9z M263.4,6.6
		c-0.3,1.2-1.7,5.5-1.7,5.5h3.4C265.1,12.1,263.7,7.8,263.4,6.6L263.4,6.6z"/>
	<path fill="#FFFFFF" d="M280.6,7.5v3.7c-0.3-0.1-0.8-0.1-1.1-0.1c-1.3,0-2.9,0.7-2.9,3.4v4.5h-4.2V7.6h3.9v2
		c0.7-1.5,1.8-2.2,3.4-2.2C280.2,7.4,280.5,7.4,280.6,7.5z"/>
	<path fill="#FFFFFF" d="M290,19c-0.6,0.1-1.4,0.2-2.2,0.2c-2.5,0-4.3-1.1-4.3-4.2v-4.4h-1.8v-3h1.8V4.4l4.1-1.9v5.1h2.3v3h-2.3v4.2
		c0,0.9,0.5,1.1,1.3,1.1c0.5,0,0.8,0,1.1-0.1V19z"/>
</g>
</svg>
