<?xml version="1.0" encoding="utf-8"?>
<!-- Generator: Adobe Illustrator 18.1.1, SVG Export Plug-In . SVG Version: 6.00 Build 0)  -->
<svg version="1.1" id="Layer_1" xmlns="http://www.w3.org/2000/svg" xmlns:xlink="http://www.w3.org/1999/xlink" x="0px" y="0px"
	 viewBox="0 0 401.6 157.7" enable-background="new 0 0 401.6 157.7" xml:space="preserve">
<g>
	<polygon fill="#FFFFFF" points="83.2,154.5 116.4,154.5 150,63.8 150.3,63.8 150.3,154.5 195.8,154.5 195.8,4.1 132.8,4.1 
		100.8,95.2 67.2,4.1 3.5,4.1 3.5,154.5 48.7,154.5 48.7,63.8 49,63.8 	"/>
	<rect x="205.7" y="61.6" fill="#FFFFFF" width="46.5" height="92.9"/>
	<g>
		<path fill="#FFFFFF" d="M350.4,98c0,16-12.9,24.5-25.7,24.5c-9.1,0-16.3-3.8-16.3-13.2c0-8.2,5.3-13.8,16.3-15.7l25.7-4.4V98z
			 M398.1,154.5V57.8c0-41.8-29.5-56.8-65.6-56.8C291,1,266.2,23,264,51.5h47.4c0.9-7.8,8.2-14.8,20.4-14.8
			c12.2,0,18.5,6.3,18.5,16.6v4.1l-36.1,4.7c-32.3,4.1-54,17.3-54,50.5c0,29.2,19.2,44.9,49,44.9c21,0,33.9-8.5,42.1-22.3l0.6,19.2
			H398.1z"/>
	</g>
	<rect x="205.7" y="4.1" fill="#FFFFFF" width="46.5" height="47.4"/>
</g>
</svg>
