<?xml version="1.0" encoding="utf-8"?>
<!-- Generator: Adobe Illustrator 19.0.0, SVG Export Plug-In . SVG Version: 6.00 Build 0)  -->
<svg version="1.1" id="Layer_1" xmlns="http://www.w3.org/2000/svg" xmlns:xlink="http://www.w3.org/1999/xlink" x="0px" y="0px"
	 viewBox="0 0 504 46" style="enable-background:new 0 0 504 46;" xml:space="preserve">
<style type="text/css">
	.st0{fill:#FFFFFF;}
</style>
<g>
	<path class="st0" d="M18.9,36.1c-1-3.3-4.4-14.9-5.7-19.5h-0.1v19.5H6.2V7.9H17c0,0,4.8,17.1,5.4,19.7C23,25,27.7,7.9,27.7,7.9
		h10.7v28.2h-7V16.6h-0.1c-1.3,4.5-4.7,16.2-5.7,19.5H18.9z"/>
	<path class="st0" d="M41.4,14.7V7.9h7.1v6.8H41.4z M48.6,36.1h-7.1V16.9h7.1V36.1z"/>
	<path class="st0" d="M58.7,16.9v3c0.6-1.5,2.5-3.6,6.1-3.6c3.7,0,6.7,2.3,6.7,6.8v13.1h-7.1V25.3c0-2.5-1-3.3-2.5-3.3
		c-1.4,0-2.9,1.1-2.9,4.4v9.6h-7.1V16.9H58.7z"/>
	<path class="st0" d="M81.4,16.9v3c0.6-1.5,2.5-3.6,6.1-3.6c3.7,0,6.7,2.3,6.7,6.8v13.1H87V25.3c0-2.5-1-3.3-2.5-3.3
		c-1.4,0-2.9,1.1-2.9,4.4v9.6h-7.1V16.9H81.4z"/>
	<path class="st0" d="M115.6,32.2c-1.6,2.8-4.9,4.5-9.1,4.5c-6.1,0-10.4-3.6-10.4-10.2c0-6.7,4.4-10.3,10.2-10.3
		c6.7,0,9.9,4.7,9.9,10.6v1.5h-13c0,1.4,0.6,3.2,3.1,3.2c1.5,0,2.5-0.7,3-1.6L115.6,32.2z M103.2,24.5h6c-0.1-2.1-1-3.4-2.9-3.4
		C104.3,21.1,103.4,22.4,103.2,24.5z"/>
	<path class="st0" d="M129.7,33.7c-1.1,2-3,3-5.9,3c-4,0-6.1-2.3-6.1-5.6c0-4.4,3.3-5.9,7.1-6.5l4.7-0.7V23c0-1.1-0.5-1.9-2.1-1.9
		c-1.4,0-2.1,0.9-2.2,1.7h-6.8c0.3-3.8,4-6.5,8.9-6.5c5,0,9.1,1.9,9.1,7.6v12.3h-6.6L129.7,33.7z M129.5,29.2v-1.4l-3.2,0.5
		c-1.5,0.2-1.9,1-1.9,1.9c0,1.2,1,1.6,2.1,1.6C128,31.8,129.5,31,129.5,29.2z"/>
	<path class="st0" d="M146.2,33.8v10.3h-7.1V16.9h6.9v2.8c0.7-1.4,2.5-3.4,6.1-3.4c4.6,0,8.4,3.9,8.4,10.2c0,6.3-3.8,10.2-8.4,10.2
		C149.5,36.7,147.2,35.6,146.2,33.8z M149.8,21.7c-2.1,0-3.7,1.7-3.7,4.6v0.4c0,2.9,1.5,4.6,3.7,4.6c2.2,0,3.5-2,3.5-4.8
		C153.3,23.7,152,21.7,149.8,21.7z"/>
	<path class="st0" d="M162.3,26.5c0-6.6,4.3-10.2,10.4-10.2s10.4,3.7,10.4,10.2c0,6.6-4.3,10.2-10.4,10.2S162.3,33.1,162.3,26.5z
		 M175.9,26.5c0-2.9-0.9-5.1-3.3-5.1s-3.3,2.2-3.3,5.1c0,2.9,0.9,5.1,3.3,5.1S175.9,29.4,175.9,26.5z"/>
	<path class="st0" d="M185.4,7.9h7.1v28.2h-7.1V7.9z"/>
	<path class="st0" d="M195.5,14.7V7.9h7.1v6.8H195.5z M202.6,36.1h-7.1V16.9h7.1V36.1z"/>
	<path class="st0" d="M215.3,23.9c4,0.6,8,1.8,8,6.2c0,4.3-3.9,6.6-9.2,6.6c-4.5,0-8.7-1.6-9.4-5.2l6.7-1.1c0.2,1.2,1.4,1.6,2.7,1.6
		c1.2,0,2.1-0.4,2.1-1.2c0-0.8-0.6-1.2-2.7-1.6c-3.3-0.5-8.1-1.4-8.1-6.3c0-4.7,4.5-6.5,8.9-6.5c4.4,0,8.1,1.8,8.9,4.9l-6.6,1.3
		c-0.2-1-1.3-1.5-2.3-1.5c-1,0-1.9,0.4-1.9,1.2C212.4,23.3,213.5,23.6,215.3,23.9z"/>
	<path class="st0" d="M233.6,7.9h7.4v28.2h-7.4V7.9z"/>
	<path class="st0" d="M251,16.9v3c0.6-1.5,2.5-3.6,6.1-3.6c3.7,0,6.7,2.3,6.7,6.8v13.1h-7.1V25.3c0-2.5-1-3.3-2.5-3.3
		c-1.4,0-2.9,1.1-2.9,4.4v9.6h-7.1V16.9H251z"/>
	<path class="st0" d="M275.8,23.9c4,0.6,8,1.8,8,6.2c0,4.3-3.9,6.6-9.2,6.6c-4.5,0-8.7-1.6-9.4-5.2l6.7-1.1c0.2,1.2,1.4,1.6,2.7,1.6
		c1.2,0,2.1-0.4,2.1-1.2c0-0.8-0.6-1.2-2.7-1.6c-3.3-0.5-8.1-1.4-8.1-6.3c0-4.7,4.5-6.5,8.9-6.5c4.4,0,8.1,1.8,8.9,4.9l-6.6,1.3
		c-0.2-1-1.3-1.5-2.3-1.5c-1,0-1.9,0.4-1.9,1.2C273,23.3,274,23.6,275.8,23.9z"/>
	<path class="st0" d="M299.4,36.3c-1,0.2-2.4,0.4-3.8,0.4c-4.3,0-7.3-1.9-7.3-7.2V22h-3.1v-5.1h3.1v-5.5l7-3.2v8.7h4V22h-4v7.1
		c0,1.6,0.9,1.9,2.1,1.9c0.8,0,1.4,0,1.9-0.1V36.3z"/>
	<path class="st0" d="M302.4,14.7V7.9h7.1v6.8H302.4z M309.5,36.1h-7.1V16.9h7.1V36.1z"/>
	<path class="st0" d="M325.9,36.3c-1,0.2-2.4,0.4-3.8,0.4c-4.3,0-7.3-1.9-7.3-7.2V22h-3.1v-5.1h3.1v-5.5l7-3.2v8.7h4V22h-4v7.1
		c0,1.6,0.9,1.9,2.1,1.9c0.8,0,1.4,0,1.9-0.1V36.3z"/>
	<path class="st0" d="M341.1,36.1v-2.9c-0.6,1.5-2.5,3.5-6,3.5c-3.7,0-6.5-2.3-6.5-6.8V16.9h7.1v10.8c0,2.5,0.9,3.3,2.3,3.3
		c1.4,0,2.8-1.1,2.8-4.4v-9.6h7.1v19.2H341.1z"/>
	<path class="st0" d="M364.4,36.3c-1,0.2-2.4,0.4-3.8,0.4c-4.3,0-7.3-1.9-7.3-7.2V22h-3.1v-5.1h3.1v-5.5l7-3.2v8.7h4V22h-4v7.1
		c0,1.6,0.9,1.9,2.1,1.9c0.8,0,1.4,0,1.9-0.1V36.3z"/>
	<path class="st0" d="M385.5,32.2c-1.6,2.8-4.9,4.5-9.1,4.5c-6.1,0-10.4-3.6-10.4-10.2c0-6.7,4.4-10.3,10.2-10.3
		c6.7,0,9.9,4.7,9.9,10.6v1.5h-13c0,1.4,0.6,3.2,3.1,3.2c1.5,0,2.5-0.7,3-1.6L385.5,32.2z M373.2,24.5h6c-0.1-2.1-1-3.4-2.9-3.4
		C374.3,21.1,373.3,22.4,373.2,24.5z"/>
	<path class="st0" d="M395.5,26.5c0-6.6,4.3-10.2,10.4-10.2c6,0,10.4,3.7,10.4,10.2c0,6.6-4.3,10.2-10.4,10.2
		C399.9,36.7,395.5,33.1,395.5,26.5z M409.1,26.5c0-2.9-0.9-5.1-3.3-5.1c-2.4,0-3.3,2.2-3.3,5.1c0,2.9,0.9,5.1,3.3,5.1
		C408.3,31.6,409.1,29.4,409.1,26.5z"/>
	<path class="st0" d="M427.8,7.3c1.4,0,2.6,0.2,3.7,0.5v5.4c-0.6-0.2-1.2-0.4-2.1-0.4c-1.3,0-2.3,0.8-2.3,2.3v1.6h4V22h-4v14.1H420
		V22H417v-5.1h3.1v-1.7C420,10.1,423.3,7.3,427.8,7.3z"/>
	<path class="st0" d="M467.6,36.1H460l-2.1-6h-9.4l-2.1,6h-7.3l10.1-28.2h8.2L467.6,36.1z M453.2,15.1c-0.5,2.1-2.8,9.4-2.8,9.4h5.7
		C456.1,24.6,453.7,17.2,453.2,15.1L453.2,15.1z"/>
	<path class="st0" d="M482.7,16.7V23c-0.5-0.2-1.3-0.2-1.8-0.2c-2.2,0-5,1.1-5,5.8v7.6h-7.1V16.9h6.7v3.3c1.1-2.6,3.1-3.7,5.9-3.7
		C481.8,16.5,482.4,16.6,482.7,16.7z"/>
	<path class="st0" d="M498.6,36.3c-1,0.2-2.4,0.4-3.8,0.4c-4.3,0-7.3-1.9-7.3-7.2V22h-3.1v-5.1h3.1v-5.5l7-3.2v8.7h4V22h-4v7.1
		c0,1.6,0.9,1.9,2.1,1.9c0.8,0,1.4,0,1.9-0.1V36.3z"/>
</g>
</svg>
