<svg id="Layer_1" data-name="Layer 1" xmlns="http://www.w3.org/2000/svg" viewBox="0 0 136.38 118.38">
    <defs>
        <style>
            .cls-1{fill:none}.cls-2{fill:#231f20}.cls-3{fill:#fff}.cls-4{clip-path:url(#clip-path)}.cls-5{clip-path:url(#clip-path-2)}
        </style>
        <clipPath id="clip-path" transform="translate(-72.46 -83.71)">
            <path class="cls-1" d="M86.74 116.5h38.69v31.86H86.74z"/>
        </clipPath>
        <clipPath id="clip-path-2" transform="translate(-72.46 -83.71)">
            <path class="cls-1" d="M86.74 117.63h38.69v29.59H86.74z"/>
        </clipPath>
    </defs>
    <path class="cls-2" d="M75.42 86.22a6 6 0 0 1-5.83-6.15V7.46a6 6 0 0 1 5.83-6.17h36.12a6 6 0 0 1 5.83 6.15v72.61a6 6 0 0 1-5.83 6.15H75.42z"/>
    <path class="cls-3" d="M111.54 2.61a4.7 4.7 0 0 1 4.52 4.84v72.61a4.7 4.7 0 0 1-4.52 4.84H75.42a4.7 4.7 0 0 1-4.52-4.84V7.46a4.7 4.7 0 0 1 4.52-4.84h36.12m0-2.61H75.42a7.31 7.31 0 0 0-7.13 7.46v72.61a7.31 7.31 0 0 0 7.13 7.46h36.12a7.31 7.31 0 0 0 7.13-7.46V7.46A7.31 7.31 0 0 0 111.54 0z"/>
    <ellipse class="cls-3" cx="93.48" cy="77.33" rx="1.96" ry="2.1"/>
    <path class="cls-3" d="M109.71 64a4.7 4.7 0 0 1-4.52 4.84H81.76A4.7 4.7 0 0 1 77.24 64V17.66a4.7 4.7 0 0 1 4.52-4.84h23.42a4.7 4.7 0 0 1 4.52 4.84V64z"/>
    <path class="cls-2" d="M85.19 38.34h6.35v-6.43h3.78v6.43h6.4v3.78h-6.4v6.6h-3.78v-6.6h-6.4v-3.78z"/>
    <path d="M37.69 57.96a4.41 4.41 0 1 1-4.41-4.42 4.42 4.42 0 0 1 4.41 4.42z" class="cls-4"/>
    <g class="cls-5 cls-4">
        <path d="M43.83 47.29a1.83 1.83 0 0 0-.2-.2l-.2-.19-.12-.09a14.4 14.4 0 0 0-19.9.46l-.64.65-.89.88a2.772 2.772 0 0 0 3.92 3.92l1.53-1.52a8.91 8.91 0 0 1 12.57 0l1.1 1.07a2.75 2.75 0 0 0 3.88-3.88z"/>
        <path d="M51.35 41.85l-.91-.91-.73-.73a2.81 2.81 0 0 0-.41-.33 24.06 24.06 0 0 0-32.49.75l-.13.12-1.65 1.65a2.53 2.53 0 0 0 3.58 3.57l1.63-1.68a19 19 0 0 1 26.2-.14l1.3 1.31a2.553 2.553 0 0 0 3.61-3.61z"/>
    </g>
</svg>
