<svg xmlns="http://www.w3.org/2000/svg" id="Layer_1" viewBox="0 0 41 71" width="41" height="71"><style id="style3468">.st0{fill:#fff}</style><path d="M6.413 69.607c-2.6 0-4.6-2.2-4.6-4.9v-57.6c0-2.7 2.1-4.9 4.6-4.9h28.7c2.6 0 4.6 2.2 4.6 4.9v57.6c0 2.7-2.1 4.9-4.6 4.9h-28.7z" id="path3470"/><path class="st0" d="M35.113 3.307c2 0 3.6 1.7 3.6 3.8v57.6c0 2.1-1.6 3.8-3.6 3.8h-28.7c-2 0-3.6-1.7-3.6-3.8v-57.6c0-2.1 1.6-3.8 3.6-3.8h28.7m0-2.1h-28.7c-3.1 0-5.7 2.7-5.7 5.9v57.6c0 3.3 2.5 5.9 5.7 5.9h28.7c3.1 0 5.7-2.7 5.7-5.9v-57.6c-.1-3.3-2.6-5.9-5.7-5.9z" id="path3472" fill="#fff"/><path class="st0" d="M19.213 62.607c0-.9.7-1.7 1.6-1.7.9 0 1.6.7 1.6 1.7 0 .9-.7 1.7-1.6 1.7-.9-.1-1.6-.8-1.6-1.7zm14.4-10.6c0 2.1-1.6 3.8-3.6 3.8h-18.5c-2 0-3.6-1.7-3.6-3.8v-36.8c0-2.1 1.6-3.8 3.6-3.8h18.6c2 0 3.6 1.7 3.6 3.8v36.8z" id="path3474" fill="#fff"/><g id="g3476" transform="translate(-28.687 -26.493)"><path d="M51.6 63.3c0 1-.8 1.8-1.8 1.8s-1.8-.8-1.8-1.8.8-1.8 1.8-1.8 1.8.8 1.8 1.8z" id="path3478"/><path d="M54 59l-.2-.2c-2.3-2.1-5.8-2-8 .2l-.3.3-.4.4c-.4.4-.4 1.1 0 1.6.4.4 1.1.4 1.6 0l.6-.6c1.4-1.4 3.7-1.4 5.1 0l.4.4c.4.4 1.1.4 1.6 0 .2-.2.3-.5.3-.8 0-.3-.1-.6-.3-.8L54 59z" id="path3480"/><path d="M57.1 56.8l-.4-.4-.3-.3c0-.1-.1-.1-.2-.1-3.7-3.3-9.4-3.2-13.1.3H43l-.5.7c-.4.4-.4 1 0 1.4.4.4 1 .4 1.4 0l.7-.7c2.9-2.8 7.6-2.9 10.5-.1l.5.5c.4.4 1 .4 1.4 0 .5-.2.5-.9.1-1.3z" id="path3482"/></g></svg>