<?xml version="1.0" encoding="UTF-8" standalone="no"?>
<svg
   xmlns:dc="http://purl.org/dc/elements/1.1/"
   xmlns:cc="http://creativecommons.org/ns#"
   xmlns:rdf="http://www.w3.org/1999/02/22-rdf-syntax-ns#"
   xmlns:svg="http://www.w3.org/2000/svg"
   xmlns="http://www.w3.org/2000/svg"
   xmlns:sodipodi="http://sodipodi.sourceforge.net/DTD/sodipodi-0.dtd"
   xmlns:inkscape="http://www.inkscape.org/namespaces/inkscape"
   id="main_F"
   viewBox="0 0 452.14 69.65"
   version="1.1"
   sodipodi:docname="delta.svg">
  <metadata
     id="metadata14">
    <rdf:RDF>
      <cc:Work
         rdf:about="">
        <dc:format>image/svg+xml</dc:format>
        <dc:type
           rdf:resource="http://purl.org/dc/dcmitype/StillImage" />
      </cc:Work>
    </rdf:RDF>
  </metadata>
  <sodipodi:namedview
     pagecolor="#ffffff"
     bordercolor="#666666"
     borderopacity="1"
     objecttolerance="10"
     gridtolerance="10"
     guidetolerance="10"
     inkscape:pageopacity="0"
     inkscape:pageshadow="2"
     inkscape:window-width="640"
     inkscape:window-height="480"
     id="namedview12" />
  <defs
     id="defs4">
    <style
       id="style2">.cls-1{fill:#231f20}</style>
  </defs>
  <path
     class="cls-1"
     d="M197.45 330.62l-40.39-62.21-40.4 62.21 40.4-19.44zm-40.39-11l-43.59 18.42h87.18z"
     transform="translate(-113.47 -268.41)"
     id="path6" />
  <path
     class="cls-1"
     d="M204.18 325.27a2.87 2.87 0 1 1-2.86 2.87 2.88 2.88 0 0 1 2.86-2.87zm0 5.32a2.45 2.45 0 1 0-2.45-2.45 2.45 2.45 0 0 0 2.45 2.45zm-.63-.81h-.41v-3.31h1.27c.75 0 1.05.32 1.05.92a.9.9 0 0 1-.84.94l1 1.45h-.47l-1-1.45h-.6zm0-1.82h.54c.45 0 .95 0 .95-.57s-.39-.55-.74-.55h-.75z"
     transform="translate(-113.47 -268.41)"
     id="path8" />
  <path
     class="cls-1"
     d="M234.67 330.62h19.6c20.14 0 32.17-10.43 32.17-27.75s-12-27.74-32.17-27.74h-19.6zm12.39-45.85h7.2c13.08 0 19.61 6.44 19.61 18.1S267.34 321 254.26 321h-7.2z"
     transform="translate(-113.47 -268.41)"
     id="path10" />
  <path
     class="cls-1"
     id="polygon12"
     d="M215.07 38.16h23.56v-9.64h-23.56V16.36h26.64V6.72h-39.04v55.49h39.9v-9.64h-27.5V38.16z" />
  <path
     class="cls-1"
     id="polygon14"
     d="M313.18 52.57h-23.89V6.72h-12.44v55.49h36.33v-9.64z" />
  <path
     class="cls-1"
     id="polygon16"
     d="M380.12 6.72h-49.81v9.64h18.67v45.85h12.46V16.36h18.68V6.72z" />
  <path
     class="cls-1"
     d="M565.61 330.62h-13l-5.44-13.9h-22.55l-5.42 13.9h-12.13l23.21-55.72h12.51zm-21.94-23.18l-7.75-19.7-7.78 19.7z"
     transform="translate(-113.47 -268.41)"
     id="path18" />
</svg>
