<?xml version="1.0" encoding="utf-8"?>
<!-- Generator: Adobe Illustrator 18.1.1, SVG Export Plug-In . SVG Version: 6.00 Build 0)  -->
<svg version="1.1" id="Layer_1" xmlns="http://www.w3.org/2000/svg" xmlns:xlink="http://www.w3.org/1999/xlink" x="0px" y="0px"
	 viewBox="0 0 107.1 69.3" enable-background="new 0 0 107.1 69.3" xml:space="preserve">
<g>
	<rect x="0" y="47.2" fill="none" width="107.1" height="21.6"/>
	<text transform="matrix(1 0 0 1 2.441406e-04 63.5238)" fill="#FFFFFF" font-family="'MiaGrotesk-Book'" font-size="23">is Mine</text>
</g>
<g>
	<polygon fill="#FFFFFF" points="22.7,40.9 31.5,40.9 40.5,16.7 40.6,16.7 40.6,40.9 52.7,40.9 52.7,0.8 35.9,0.8 27.4,25.1 
		18.4,0.8 1.4,0.8 1.4,40.9 13.5,40.9 13.5,16.7 13.6,16.7 	"/>
	<rect x="55.3" y="16.1" fill="#FFFFFF" width="12.4" height="24.8"/>
	<g>
		<path fill="#FFFFFF" d="M93.8,25.8c0,4.3-3.4,6.5-6.9,6.5c-2.4,0-4.3-1-4.3-3.5c0-2.2,1.4-3.7,4.3-4.2l6.9-1.2V25.8z M106.6,40.9
			V15.1C106.6,4,98.7,0,89.1,0C78,0,71.4,5.9,70.8,13.5h12.6c0.3-2.1,2.2-3.9,5.4-3.9c3.3,0,4.9,1.7,4.9,4.4v1.1l-9.6,1.3
			c-8.6,1.1-14.4,4.6-14.4,13.5c0,7.8,5.1,12,13,12c5.6,0,9-2.3,11.2-5.9l0.2,5.1H106.6z"/>
	</g>
	<rect x="55.3" y="0.8" fill="#FFFFFF" width="12.4" height="12.6"/>
</g>
</svg>
