<svg id="Layer_3" data-name="Layer 3" xmlns="http://www.w3.org/2000/svg" viewBox="0 0 212.39 412.14"><defs><style>.cls-1{fill:#fff}.cls-2{fill:#231f20}</style></defs><path class="cls-1" d="M162.37.01h49.93v226.45h-49.93z"/><path class="cls-2" d="M181.45 2.46c0-.36-.07-.92-.48-.67a.34.34 0 0 0-.13.23c-.09 1.13-.91 9.19-7.54 19a.67.67 0 0 0-.1.33c.09.53.7 1.79 4.4-3.2.1.19.15 5.58-7.6 18.5a1.73 1.73 0 0 0-.13.52c0 .68.15 2.07 6.85-5-.2.2-1.26 9-7.52 15.48a2.09 2.09 0 0 0-.22.28c-.23.36-.87 1.31.59.55a3 3 0 0 0 .37-.25 50.21 50.21 0 0 0 3.73-3.57 72 72 0 0 1-9.21 13.57 1.42 1.42 0 0 0-.22.35c-.12.35-.21 1 .68.43l1.48-.84s.68-.34.93.25c0 .09.25.63 1.43-.25 0 0 5.11-2.95 6.44-4.37 0 0 .78-.84.34.39a40.34 40.34 0 0 1-2.23 5.7 2.16 2.16 0 0 0-.24.48c-.06.44 0 1.29 1.29.45 0 .05 4.52-3.78 5.16-6.43 0-.1.26 15.69-.23 18.8 0 .22-.12.6-.16.87-.12 1-.73 3.89-4.18 8.24 0 .1-.84 1.38 1 .44-.05 0 2.95-1.77 3.29-2.11 0 .1.57-.66.54.49a12.05 12.05 0 0 0 .5 2.51c0 .09.74 1 1.23.18a4.86 4.86 0 0 0 0-.64 6.09 6.09 0 0 1 .48-1.76s.21-.8.75-.13l.36.23c.47.34 1.92 1.39 3.51 2.41 0 0 1.37.49.58-.59a6.24 6.24 0 0 1-1.32-1.67c-.05 0-.05-1 .78-.44a8.64 8.64 0 0 1 .79.44 2.81 2.81 0 0 0 1 .34c.33.06.55-.11.36-.63.05.05-3.64-3.94-4.28-6.15a14.19 14.19 0 0 1-1.23-6.14c-.05 0-.09-14.25-.09-14.25s5.25 7 10.12 7c-.05 0 1.48.09.41-1a2.26 2.26 0 0 1-.31-.42 30.55 30.55 0 0 0-2.95-4.84s-.89-1 .24-.69a32 32 0 0 0 5.26 0h.69c.43 0 1-.24.1-1.07.05 0-5-4.43-6.39-6.93 0-.05-.25-.49.54-.25 0 0 .91.09.25-1.28 0-.09-.24-.39-.38-.6a31.27 31.27 0 0 1-4.49-11.34c.05 0-.15-.64.49-.1a28.89 28.89 0 0 0 3.59 2.56s1.52.69.54-.79a72.19 72.19 0 0 1-6.63-16.21s-1-1.58 4 2.21c0 .05 1.08.88.44-1.62a15.79 15.79 0 0 0-2.72-4.55 3.69 3.69 0 0 1-.29-.42 45.21 45.21 0 0 1-4.28-11.61c.02-.06.02-.26.02-.42z" transform="translate(-1.8 -.09)"/><path class="cls-2" d="M203.05 11.49s-.4 8.89-7.67 19.8c0 .2.2 2.72 4.42-3.14.1.21.15 5.81-7.76 19.3.19.2-1 3.64 6.88-4.85-.2.2-1.28 9.35-7.67 16.06 0 .1-1.28 1.72.69.61a49.66 49.66 0 0 0 3.93-3.84 73 73 0 0 1-9.34 14.09s-.63 1.42.59.66l1.48-.86s.69-.35.93.25c0 .1.25.66 1.43-.25 0 0 5.11-3 6.43-4.49 0 0 .79-.86.35.4 0 0-1.67 5.3-2.41 6.11-.05 0-.44 1.82 1.23.71 0 0 4.52-3.89 5.16-6.62 0-.1.29 18.49-.35 19.8 0 0 .12 2.25-3 7.62 0 .91.71 1 1.06.82a19 19 0 0 0 2-1.27c0 .11.69-.6.54.51a12.66 12.66 0 0 0 .5 2.58c0 .08.65.87 1.13.32a1.33 1.33 0 0 0 .11-.65 5.37 5.37 0 0 1 .48-2c0 .05.24-1 .88.05 0 0 1.82 1.27 3.74 2.53 0 0 1.37.5.59-.61a6.41 6.41 0 0 1-1.33-1.72c-.05 0-.05-1.06.78-.45 0 0 .49.2.79.45 0 0 1.28.71 1.87.21 0 0 .83-.31-.3-.76.05 0-3.88-3.79-4.52-6.06a14.88 14.88 0 0 1-1.22-6.32c-.05 0-.11-14.64-.11-14.64s4.32 5.92 8.75 7c.15 0 .06-1.55.05-2.05a8.1 8.1 0 0 0-.05-2 15.35 15.35 0 0 0-1.47-2.21s-.89-1 .25-.7a6.68 6.68 0 0 0 1.22.1c.05-4.35 0-3.29 0-6.13a14.76 14.76 0 0 1-1.61-2.21c0-.05-.24-.5.54-.25 0 0 1 .1.1-1.62a31 31 0 0 1-4.72-12c.05 0-.15-.65.49-.1a29 29 0 0 0 3.59 2.63s1.52.71.54-.81a75.27 75.27 0 0 1-6.63-16.67c.05.05-1-1.61 4 2.28 0 0 1.08.9.44-1.67a16.65 16.65 0 0 0-2.85-4.85 47.82 47.82 0 0 1-4.43-12.33c.06.14.21-1.42-.52-.76z" transform="translate(-1.8 -.09)"/><path class="cls-2" d="M107.53.01h50.72v226.45h-50.72z"/><path class="cls-1" d="M160.24 193.65v8.92s-19.36 9.53-25.76-19c0 .09-.78-2.46.6-.5 0 .13 13.36 19.56 25.16 10.58z" transform="translate(-1.8 -.09)"/><path class="cls-1" d="M160.24 222.42s-20.74-8-26.54-37.35c.1.1-.3-1.87-.49.49 0 .1.59 35.58 26.14 40.2h.89zM133.21 180.81s-9.4-18.08-3.38-38c.27.26.53-5.51 8.39-15.2 0 0 23.59-27.26 3.14-62.91-.26 0 25.07 20.71 8.34 58.06a41.12 41.12 0 0 1-4.4 7.73c-.3.51-14.48 17.82-12.09 50.32z" transform="translate(-1.8 -.09)"/><path class="cls-1" d="M134.26 70.73s-39.81 42.67-2.33 111.63c0 .29-54.57-62.09 2.33-111.63z" transform="translate(-1.8 -.09)"/><path class="cls-1" d="M127.82 91.31s10.71 27.13 24.71 24.11c-.08.24.89-3 11.11 2 .66.27-12.54 26.48-25.4 23.07 1 .75-4-1.31-4-1.31s12.09 5 24-20.44c0 0-2.25-2.63-11 1.57-.11-.31-12.79 4.15-19.42-29zM146.11 92.29c0 1.91-1 3.47-2.25 3.47s-2.24-1.56-2.24-3.47 1-3.47 2.24-3.47 2.25 1.55 2.25 3.47z" transform="translate(-1.8 -.09)"/><path class="cls-1" d="M53.94.01h50.48v226.45H53.94z"/><path class="cls-2" d="M74.24 50.69l30.53 63.92v-7.27l-28.7-60.15-2.95 1.76 1.12 1.74z"/><path class="cls-2" d="M66.27 199.32a23.41 23.41 0 0 0-7.6 14c0 .26-1.31 6.69 1.58 12.06 0 .13 1.44 1.18 1.11-.66-.06 0-.07-1.92 3.92-5.44a12.31 12.31 0 0 1 2.06-1.33c2.09-1 6.56-3.36 7.62-6.8.14-.44.46-1.62.61-2.37.28-1.33.45-4.06-.38-8.83 0 .27 16-21.49 16-21.49s5.9-8 8.92-21.1c0 .27 6.25-22.18 6.25-22.18v-14.26l-.12.57-.78 2.79-3.1 2.85-16.56 24.06s-8.87 12.55-10.66 21.89c-.09.49-.35 1.85-.53 2.55-1.11 4.35-4.8 20-4.8 20a4 4 0 0 1-1.47 2.06c-.1-.04-2.07 1.63-2.07 1.63z" transform="translate(-1.8 -.09)"/><path class="cls-2" d="M89.18 128.26s8.82-1.37 6.82-9.83c.1.1-2.17-7.76-11-5.11.1 0-8.84 3.39-3.61 14.21a6.28 6.28 0 0 0 1 1.43c1.74 1.76 7.16 6 16.66 3.33l1.1-.77 6.24-4.57v-6s-2.77 8.73-12.25 9.28a5.07 5.07 0 0 1-4.96-1.97z" transform="translate(-1.8 -.09)"/><path class="cls-1" d="M71.09 199.59a2.5 2.5 0 0 0-1.57-1.15c0 .21-7.63 5.22-8.88 12.22-.1 0 5.23-9.09 10.45-11.07zM81.21 187.14s-3.74-4.6-6.63-3.35c0 .19-3.42 12.33-3.42 12.33s1.58.6 1.75 1.53c.09 0 8.3-10.51 8.3-10.51zM86.38 181.24s-3.48-6.1-9.7-5.7a81.31 81.31 0 0 1 14-27.82c0 .2 13.62-20.74 13.62-20.74s1.44-1.27 1.44.79c0 .2-8.39 28.9-8.39 28.9s-4.5 15.43-10.97 24.57z" transform="translate(-1.8 -.09)"/><path class="cls-2" d="M0 .01h50.48v226.45H0z"/><path class="cls-1" d="M5.44 202.07s1.59-.49 4.87 1.33c.1 0 2.18 1.43 7.65 0 .1 0 6.86-3.35 12.52-.37-.1-.07 4.48 2.48 12.63.37a15.48 15.48 0 0 1 9.44.84c-.1.09 0-5.31 0-5.31s-3.78-.3-6.06 1.18a23.64 23.64 0 0 1-15.41.49c-.1.1-4.77-2.95-12.13-.1 0 0-3.47 1.95-9.34 1.07.1-.09-4.61-1.76-4.17.5zM1.8 214.26a43.68 43.68 0 0 0 8.44-1.87c.1.1 10.73-3.34 19.86.49a21.29 21.29 0 0 0 16.89.69c.1 0 4.27-2.06 5.56-1.28v-3.14s.2-.59-2.88.79c.1.09-12.42 4.12-19.86.09a26.47 26.47 0 0 0-14.9-2.35c0 .09-11.22 2.94-13.11 2.16zM1.8 221.14s4.67 2.26 13.51-1a24.43 24.43 0 0 1 16.29-2.95c-.2 0 1.29-.2 12.51 3.24.1 0 5.36 1.57 8.44.3v5a36.61 36.61 0 0 1-14.7-2.87c.1 0-9.63-3.93-17.78-1a22.08 22.08 0 0 1-18.27 2.23zM1.8 194s4 2.46 11.2 1.28a16.53 16.53 0 0 1 12.59.32 14.27 14.27 0 0 0 9.43-.8c0 .09 8.16-1 12.09 1.26 0-.09.88.79-.69.7.1.09-7-1.06-12.78.88 0 .1-3.48 1.68-9.06-.88-.08 0-7.84-1.32-11.28 1.45-.1-.08-2.06 1.2-6.78-.57.19.2-4.72-.49-4.72-.79zM52.51 194s-9.95-.42-50.71-12.77v-11.82s13.5-20.51 15.61-15.49c-.26 0-5.34 4.22-12 21.13-.08 0 5.88-8.36 6.08-8.46s1.88-1.37 1.29.79c-.1.2-2.48 10.71-2.48 10.71l2.28-4.52s1.59-3.83 2 0c0 .1.5 4.52 1 5.21l1.58-15.92s.9-3 1.79-.1c0 .2 2.28 18.08 2.28 18.08l.3-8.74s.4-4.43 1.49-.4c-.1.2 1.59 8.65 2.68 9.54 0 .1.1-12.58-2.58-19.66.1.1-2.73-4.52 1.66-1.08a117.15 117.15 0 0 1 7.17 15c-.1 0-1.79-8.75-1.79-8.65s-.19-1.77 3 1.08c.2.1-1.49-8.65-6-14.84-.05 0-1.44-2.85 1.24-.89a48.63 48.63 0 0 1 7.44 8.26c-.1.1-7.57-50.45-34-71.81v-6.12s29.11 19.26 39.57 71c0 .27-1.44-37.74 11.14-60.93.1 0 0 16 0 16s-6.51 5.9-5.85 51.51c0 .13 4-13.9 5.9-16.52-.12 0-.09 50.41-.09 50.41z" transform="translate(-1.8 -.09)"/><path class="cls-1" d="M52.57 139.4S44.42 91.83 1.8 104.8v-2.24s31.52-19.64 50.77 21.77c-.08-.13 0 15.07 0 15.07z" transform="translate(-1.8 -.09)"/><path class="cls-1" d="M17.79 55.79s-1.18-1-1.44 0c.12.13 3.71 16.53 7.5 34 4.31 19.83 8.88 41 8.88 41h1.91z" transform="translate(-1.8 -.09)"/><path class="cls-1" d="M17.26 71.13S20.15 95 26 88.42c0 0 3 .4-3.14-20.83 0 0-3.67-6.29-5.64 0a15.36 15.36 0 0 0 .04 3.54zM45.31 37.45s-.66-1.77-1.64 0c0 .13-1.51 102-1.51 102h1.57z" transform="translate(-1.8 -.09)"/><path class="cls-1" d="M47.14 50.78s-2.59-5.73-5.5 0c-.13.16 0 18.64 0 18.64s-.13 3.15 2 3.8c.2 0 3.34-.78 3.47-2.36.16 0 .03-20.08.03-20.08zM22.77 126.59s-4.85-1.27-8.13 0c0 .09-1.51.64-.41-1.23a4 4 0 0 1 1.7-1.11c5.05-1.68 24-6 36.64 16.59v8.91s-5.57-17.23-29.8-23.16zM16.3 37.71c.1 0 .24-.15.22-.51a.45.45 0 0 0-.19-.26 19.23 19.23 0 0 1-2.5-1.94.8.8 0 0 0-.47-.18 19.83 19.83 0 0 0-2.49-.07 1.29 1.29 0 0 0-.43.2c-.49.37-2.09 1.16-2-.22 0-.13.2-2.48 5.1-2.48a62 62 0 0 0 7.77 0c.1.1 4.09-.21 6.84 0a5.76 5.76 0 0 0 2.35-.07 2 2 0 0 1 3.3-.6 3.6 3.6 0 0 1 .31.34 3.71 3.71 0 0 0 2.52 1.14s.89.55-.54.55c-.06 0-3.15-.08-4.23.54a2.41 2.41 0 0 1-.54.21 14.85 14.85 0 0 1-4.36.07 4.37 4.37 0 0 0 .21 2c-.14-.07.68.27.75 1.77 0-.06 1.12 3.49 1.93 3.92 0 0 .17.12.18.18.08.29 0 .81-1.16.54-.06.06-4.3-2.51-5-3.73-.06-.11-.17-.34-.24-.46-.24-.39-.58-1.4.55-2.83 0 0-.07-.89-4.16 3.4-.06-.06-1.71 2-3 2.54-.05 0-.21.11-.3.14a1.92 1.92 0 0 0-1.29.9 1.38 1.38 0 0 1-.1.22c-.18.18-.79.42-.84-.53-.07 0-.14-.68.47-1.56 0 .06.13-2.3 1.08-3zM41.81 20.39s-6 4.43-11.51.35c0 .06-1.29-1-2.11.34-.14 0-1 .68-1.57.06 0 0-.41-.31-.41.29 0 .06-1.9 0 0-1.72-.06 0 .16-1.23 1.84-1.09 0 0 1.77-.06 2.11-.68 0 0-2.18-1.77-1.9-7.22 0 .07.68-1.15 1.63 1a13.83 13.83 0 0 0 3.7 4.7c-.09.13.52-.55 1.48.95a2 2 0 0 1 1.43.68 9.74 9.74 0 0 0 1.43 0l-.75-1.63s-.75-.62.48-.89c0-.07.88-2.11 1.84-2.52.06-.07 2.11-2.47 2.31-2.6-.14-.13 1-1.42 1-1.42s1.08-.54.61.68a35 35 0 0 1-2.86 6s-.14 2.2 1.29 2a3.17 3.17 0 0 1 1.57.41 2.24 2.24 0 0 1 1.84.14c0 .13 1-.07 1.43-.41.07.13 1.36-1.77 2.45.47a3.85 3.85 0 0 0 1.84.82s.48.55-.61.75c-.04 0-6.24-.07-8.56.54zM15.11 11.4a19.73 19.73 0 0 0-2.32 1.6c0 .07-2.17 2.11-4.69-.41.06.07-.75-1.19-2.12 0-.07 0-2.18 1.14-2.52 0 0 0-1.84-.8.62-1.75h2.58s-3.13-5-1.22-6.74c0 .06 3.81 5.51 5.11 6.19 0 .07 2.11 1 .2-1.41 0 0-.54-.42 1.23-1.72a3.3 3.3 0 0 1 1.43-1.63c0 .06 1.22-1.43 1.22-1.43s.82-1.43.75.27a5.32 5.32 0 0 0-.54 1.91 1.37 1.37 0 0 1-.68.75c0 .06-.21 2.31-.21 2.31s3.2.21 3.82.21a1 1 0 0 0 .68-.67c.07 0 .75-1.11 1.84.67a2.17 2.17 0 0 0 1.29.2c.07 0 .55.41-.68.68-.07.02-4.9.4-5.79.97z" transform="translate(-1.8 -.09)"/><path class="cls-2" d="M33 242.61h-.87a14.08 14.08 0 0 0-3.9-7.4 9.64 9.64 0 0 0-6.85-2.63 8.1 8.1 0 0 0-7 3.71q-2.6 3.71-2.59 10 0 7 3 10.8a10.06 10.06 0 0 0 8.35 3.82 11.72 11.72 0 0 0 5.27-1.19 17.5 17.5 0 0 0 4.88-3.82v1.66a15 15 0 0 1-12.8 6.44 16.06 16.06 0 0 1-11.79-4.52 15.69 15.69 0 0 1-4.53-11.65 16.71 16.71 0 0 1 17-17.05 20.42 20.42 0 0 1 6.72 1.32 8.12 8.12 0 0 0 2.19.58c.78 0 1.43-.54 1.95-1.63H33zM64.59 231.6v.92a6.93 6.93 0 0 0-3.27 1.48 4.08 4.08 0 0 0-.74 2.74V258a3 3 0 0 0 1.05 2.68 7.49 7.49 0 0 0 3.94.71 7.36 7.36 0 0 0 4.7-1.33 14.7 14.7 0 0 0 3.49-5.06h.92l-.92 8.19H49.67v-.92a6.38 6.38 0 0 0 3.24-1.5c.48-.58.72-1.78.72-3.61V237a4.45 4.45 0 0 0-.78-3 6.44 6.44 0 0 0-3.18-1.44v-.92zM110.72 242.48h1v9.77h-1c-.37-2.69-1.82-4-4.37-4h-5.56v9.27a3.87 3.87 0 0 0 1 3 5 5 0 0 0 3.34.87h1.84q4.64 0 6.63-5.87h.92l-.58 7.66h-24v-.92A5.67 5.67 0 0 0 93 260.8c.53-.63.79-1.83.79-3.62V236.9a4.47 4.47 0 0 0-.81-3.07 6 6 0 0 0-3.14-1.31v-.92h23.66v7h-.92a8.62 8.62 0 0 0-2-4.15 5.5 5.5 0 0 0-3.76-1.07h-6.11v13h5.56a4.21 4.21 0 0 0 2.9-.9 5.62 5.62 0 0 0 1.55-3zM148.37 263.15v-.92a7.61 7.61 0 0 0 2.74-.91 1.71 1.71 0 0 0 .81-1.51 8 8 0 0 0-.61-2.42l-1.83-4.85h-11.27l-1.56 4.19a8 8 0 0 0-.59 2.58c0 1.39 1.05 2.36 3.17 2.92v.92H129v-.92a5.36 5.36 0 0 0 3.21-1.92 18.12 18.12 0 0 0 2.72-5.24l9.07-24.29h4.31L158 256a14.81 14.81 0 0 0 2.59 4.7 4.87 4.87 0 0 0 3.3 1.49v.92zm-9.14-12.88h9.4l-4.81-12.8zM201.86 232.52v-.92h10.65v.92q-4.59.27-4.59 5.17v25.83h-1L184.17 238v19.28a5.28 5.28 0 0 0 .92 3.54c.62.68 1.86 1.16 3.72 1.46v.92h-10.88v-.92a4.92 4.92 0 0 0 3.17-1.51 5.71 5.71 0 0 0 1-3.65v-21.46a29.22 29.22 0 0 0-2.54-2.43 4 4 0 0 0-1.65-.71v-.92h9.49l18.45 21.15v-14.2a8.15 8.15 0 0 0-.82-4.33 4.93 4.93 0 0 0-3.17-1.7zM52.22 271.81v.92a5 5 0 0 0-3.34 1.91 16.62 16.62 0 0 0-2.59 5.26L38 304.18h-1l-9.29-24.86-8.34 24.86h-.94l-9.78-26.39a12.62 12.62 0 0 0-2.06-4 4.52 4.52 0 0 0-2.95-1.07v-.92h13.63v.92c-1.39.27-2.08 1-2.08 2.24a6.39 6.39 0 0 0 .43 2.13l5.71 15.2 5.39-16a6.89 6.89 0 0 0-1.68-2.6 6.29 6.29 0 0 0-2.79-1v-.92h13.44v.92c-1.33.37-2 1.12-2 2.24a3.83 3.83 0 0 0 .29 1.37l6 16 4.39-13a12.89 12.89 0 0 0 .8-3.74q0-2.32-2.76-2.85v-.92zM75.28 303.36v-.92a7.75 7.75 0 0 0 2.75-.91 1.72 1.72 0 0 0 .8-1.51 7.66 7.66 0 0 0-.61-2.42l-1.82-4.85H65.13l-1.56 4.19a7.84 7.84 0 0 0-.6 2.58q0 2.09 3.17 2.92v.92h-10.2v-.92a5.33 5.33 0 0 0 3.21-1.92 17.87 17.87 0 0 0 2.72-5.24L71 271h4.31l9.61 25.26a14.83 14.83 0 0 0 2.58 4.7 4.89 4.89 0 0 0 3.3 1.49v.92zm-9.14-12.88h9.4l-4.8-12.8zM119.62 302.44v.92h-14.81v-.92a5.58 5.58 0 0 0 3.14-1.37 5.21 5.21 0 0 0 .81-3.37v-24.1h-3.16a6.46 6.46 0 0 0-7 5.16h-.93l.32-7.61h1a5.87 5.87 0 0 0 3.11.66h20.38a5.68 5.68 0 0 0 3.11-.66h1l.32 7.61h-.92a6.48 6.48 0 0 0-7-5.16h-3.16v24.15a5.26 5.26 0 0 0 .82 3.31 5 5 0 0 0 2.97 1.38zM161.18 282.69h1v9.77h-1q-.56-4-4.38-4h-5.56v9.27a3.87 3.87 0 0 0 1 3 5 5 0 0 0 3.34.87h1.84q4.62 0 6.63-5.87h.95l-.58 7.66h-24v-.92a5.67 5.67 0 0 0 3.08-1.47 6 6 0 0 0 .79-3.62v-20.27a4.46 4.46 0 0 0-.82-3.07 5.93 5.93 0 0 0-3.14-1.31v-.92H164v7h-.92a8.52 8.52 0 0 0-2-4.15 5.47 5.47 0 0 0-3.75-1.07h-6.12v13h5.56a4.18 4.18 0 0 0 2.9-.9 5.69 5.69 0 0 0 1.51-3zM178.65 303.36v-.92q4-.31 4-4v-21.39a4.32 4.32 0 0 0-.83-3 6.28 6.28 0 0 0-3.18-1.29v-.92h15q5.91 0 9.08 2.08a6.61 6.61 0 0 1 3.18 5.85 7 7 0 0 1-1.65 4.66 9.49 9.49 0 0 1-4.74 2.85v.1a5 5 0 0 1 2.4 1.83 43.93 43.93 0 0 1 3.75 6.15 33.45 33.45 0 0 0 3.5 5.64 4.87 4.87 0 0 0 3 1.47v.92h-9.11a43.2 43.2 0 0 1-4.59-7.66 40.32 40.32 0 0 0-2.87-5.08 5.61 5.61 0 0 0-2-1.78 10.38 10.38 0 0 0-4-.52V298a4.44 4.44 0 0 0 .92 3.09 5.07 5.07 0 0 0 3.13 1.33v.92zm13.13-29.76h-2.16v12.93c.54 0 1 .06 1.52.06q3.78 0 5.5-1.62t1.73-5.13q0-6.24-6.59-6.24zM18.59 312v.92a7 7 0 0 0-3.27 1.45 4.08 4.08 0 0 0-.74 2.74v21.26a3 3 0 0 0 1 2.68 7.53 7.53 0 0 0 3.94.71 7.4 7.4 0 0 0 4.71-1.33 14.83 14.83 0 0 0 3.49-5.07h.92l-.92 8.19H3.67v-.92a6.33 6.33 0 0 0 3.23-1.5c.48-.58.72-1.78.72-3.61v-20.15a4.46 4.46 0 0 0-.77-3 6.44 6.44 0 0 0-3.18-1.44V312zM53.26 343.57v-.92a7.75 7.75 0 0 0 2.75-.91 1.72 1.72 0 0 0 .8-1.51 8 8 0 0 0-.61-2.42L54.37 333H43.1l-1.56 4.19a8 8 0 0 0-.59 2.58c0 1.39 1 2.36 3.17 2.92v.92h-10.2v-.92a5.33 5.33 0 0 0 3.21-1.92 18.12 18.12 0 0 0 2.72-5.24l9.08-24.28h4.31l9.6 25.25a14.81 14.81 0 0 0 2.59 4.7 4.89 4.89 0 0 0 3.3 1.49v.92zm-9.14-12.87h9.4l-4.81-12.8zM98 312.94V312h10.6v.92q-4.59.27-4.59 5.17v25.83h-1l-22.74-25.55v19.28a5.22 5.22 0 0 0 .92 3.54c.61.68 1.85 1.17 3.71 1.46v.92H74v-.92a4.87 4.87 0 0 0 3.17-1.51 5.65 5.65 0 0 0 1-3.65v-21.41a26.78 26.78 0 0 0-2.55-2.42 3.88 3.88 0 0 0-1.64-.72V312h9.48l18.45 21.15V319a8.15 8.15 0 0 0-.82-4.33 4.9 4.9 0 0 0-3.09-1.73zM115 343.57v-.92a7.18 7.18 0 0 0 3.25-1.51q.75-.83.75-3.6v-20.12a4.5 4.5 0 0 0-.75-3 6.87 6.87 0 0 0-3.25-1.51V312h16.15q8.81 0 13.91 4.45a14.8 14.8 0 0 1 5.09 11.72q0 7-4.55 11.2t-12.34 4.18zm15-29.76h-4.11v24.26a3.26 3.26 0 0 0 1.19 2.87 7 7 0 0 0 3.95.84 10.42 10.42 0 0 0 8.49-3.63q3-3.63 3-10.27t-3.29-10.29q-3.23-3.78-9.23-3.78zM179.88 318.76a6.54 6.54 0 0 1 2.81-5.42 12 12 0 0 1 7.45-2.13 11.43 11.43 0 0 1 6.59 1.64 5.26 5.26 0 0 1 2.37 4.56 6.37 6.37 0 0 1-2 4.65 10.54 10.54 0 0 1-5.47 2.72c3.57 3.69 6.24 6.64 8 8.86q2-3.69 2-5.77a3 3 0 0 0-2.05-3.07v-.93h9.3v.93a5.71 5.71 0 0 0-2.68 1.59 27 27 0 0 0-3.25 5.23c-.79 1.54-1.44 2.77-1.95 3.66a26.22 26.22 0 0 0 4.35 4.2 5.91 5.91 0 0 0 3.34 1.17 3.81 3.81 0 0 0 2.65-1.13l.7.62a8.6 8.6 0 0 1-7.83 4.25 8.76 8.76 0 0 1-3.9-.84 15 15 0 0 1-3.79-2.95 17.77 17.77 0 0 1-10.7 3.79 11.72 11.72 0 0 1-7.51-2.3 7.27 7.27 0 0 1-2.9-6q0-6.14 8.31-9.91a20.53 20.53 0 0 1-3-4 7.29 7.29 0 0 1-.84-3.42zm2.32 13.76a8.76 8.76 0 0 0 2.31 6.06 7.11 7.11 0 0 0 5.48 2.57 8.55 8.55 0 0 0 5.32-2.06 120.59 120.59 0 0 0-10.16-11.42 7.93 7.93 0 0 0-2.3 2.24 5 5 0 0 0-.65 2.61zm3.67-15.81a5.29 5.29 0 0 0 .92 2.84 21.4 21.4 0 0 0 3.31 3.68 4.66 4.66 0 0 0 2.29-1.46 3.46 3.46 0 0 0 .88-2.3 7 7 0 0 0-1.27-4.21 3.68 3.68 0 0 0-3-1.79 3.06 3.06 0 0 0-2.28.88 3.26 3.26 0 0 0-.85 2.36zM18.59 352.23v.92a6.93 6.93 0 0 0-3.27 1.45 4.08 4.08 0 0 0-.74 2.74v21.26a3 3 0 0 0 1 2.68 7.53 7.53 0 0 0 3.94.71 7.4 7.4 0 0 0 4.71-1.33 14.83 14.83 0 0 0 3.49-5.07h.92l-.92 8.19H3.67v-.92a6.33 6.33 0 0 0 3.23-1.5c.48-.58.72-1.78.72-3.61v-20.17a4.46 4.46 0 0 0-.77-3 6.44 6.44 0 0 0-3.18-1.44v-.92zM55.92 363.11h1v9.77h-1c-.37-2.69-1.82-4-4.37-4H46v9.27a3.91 3.91 0 0 0 1 3 5.08 5.08 0 0 0 3.34.86h1.84q4.63 0 6.63-5.87h.92l-.58 7.66h-24v-.92a5.67 5.67 0 0 0 3.16-1.43c.53-.62.79-1.83.79-3.62v-20.3a4.47 4.47 0 0 0-.81-3.07 6 6 0 0 0-3.14-1.31v-.92h23.59v7h-.92a8.62 8.62 0 0 0-2-4.15A5.5 5.5 0 0 0 52.1 354H46v13h5.56a4.21 4.21 0 0 0 2.9-.9 5.69 5.69 0 0 0 1.46-2.99zM96.5 352.23v8.85h-1a12.55 12.55 0 0 0-4.34-5.74 10.81 10.81 0 0 0-6.5-2.13 8.33 8.33 0 0 0-7.42 4.08q-2.62 4.08-2.62 11.51 0 6.84 2.61 10.43a8.75 8.75 0 0 0 7.54 3.58q4.74 0 4.74-3.34v-4.69a3.58 3.58 0 0 0-3.24-3.87V370h13.31v.93a4 4 0 0 0-2.41 1.51 6.05 6.05 0 0 0-.67 3.23v6.69q-4.74 2.27-12.25 2.26a18.49 18.49 0 0 1-8.89-2.08 15.14 15.14 0 0 1-6.07-5.91 16.48 16.48 0 0 1-2.2-8.36 16.17 16.17 0 0 1 4.87-12 16.8 16.8 0 0 1 12.29-4.79 19.07 19.07 0 0 1 6.37 1.23 9 9 0 0 0 2.64.66 3.16 3.16 0 0 0 2.27-1.08zM124.77 383.78v-.92a7.61 7.61 0 0 0 2.74-.91 1.7 1.7 0 0 0 .8-1.51 7.92 7.92 0 0 0-.6-2.42l-1.83-4.85h-11.27l-1.56 4.19a7.78 7.78 0 0 0-.59 2.58q0 2.08 3.16 2.92v.92h-10.2v-.92a5.35 5.35 0 0 0 3.22-1.92 18.12 18.12 0 0 0 2.72-5.24l9.08-24.28h4.31l9.6 25.25a14.81 14.81 0 0 0 2.59 4.7 4.87 4.87 0 0 0 3.3 1.49v.92zm-9.15-12.87H125l-4.81-12.8zM173.54 363.24h-.87a14.08 14.08 0 0 0-3.9-7.4 9.66 9.66 0 0 0-6.85-2.63 8.1 8.1 0 0 0-7 3.71q-2.59 3.72-2.6 10 0 7 3 10.8a10.08 10.08 0 0 0 8.36 3.82 11.62 11.62 0 0 0 5.27-1.19 17.78 17.78 0 0 0 4.88-3.81v1.66a15 15 0 0 1-12.79 6.42 16 16 0 0 1-11.78-4.49 15.69 15.69 0 0 1-4.53-11.65 16.69 16.69 0 0 1 17.05-17 20.38 20.38 0 0 1 6.72 1.31 7.94 7.94 0 0 0 2.19.58c.77 0 1.42-.54 1.95-1.63h.87zM207.4 356.55l-7.46 10.61v11.28a4.54 4.54 0 0 0 .84 3.05 5.48 5.48 0 0 0 3.16 1.37v.92H189v-.92a5 5 0 0 0 3.1-1.35 4.9 4.9 0 0 0 .91-3.28V369l-8.2-12.56a10.2 10.2 0 0 0-2.12-2.48 4.9 4.9 0 0 0-2.36-.82v-.92h14.39v.92c-1.53.07-2.29.58-2.29 1.53a4.64 4.64 0 0 0 .89 2.29l5.46 8.44 4.8-6.93a5.35 5.35 0 0 0 1.13-2.9c0-1.23-.81-2-2.42-2.43v-.92H212v.92c-1.6.17-3.15 1.3-4.6 3.41zM15.9 412.23v-.57c1.13 0 1.69-.4 1.69-1.18a2.32 2.32 0 0 0-.15-.76l-1.82-5.46H9.3L8 408.21a7.77 7.77 0 0 0-.51 2.17c0 .83.52 1.25 1.56 1.28v.57H3.93v-.57a2.93 2.93 0 0 0 1.69-.73 6.27 6.27 0 0 0 1.23-2.36l5.44-16.22h2L20 409.29a4.35 4.35 0 0 0 1 1.93 2.84 2.84 0 0 0 1.76.44v.57zm-6.24-9.17h5.55l-2.79-8.33zM45.2 392.57h4.65v.57q-2.22 0-2.22 2.61v.45l1 12.12a5.37 5.37 0 0 0 .66 2.58 2.44 2.44 0 0 0 1.79.76v.57H44v-.57a2.53 2.53 0 0 0 1.59-.75 2.6 2.6 0 0 0 .46-1.7v-.52L45 396l-6.74 16.25h-.52L31.08 396 30 408.1a5.06 5.06 0 0 0 0 .54 2.79 2.79 0 0 0 2.56 3v.57H26.4v-.57a2.63 2.63 0 0 0 1.77-.87 5.72 5.72 0 0 0 .74-2.75l1.19-13.53a4.28 4.28 0 0 0-2.56-1.37v-.57h5L38.82 408zM67.62 400h.59v4.77h-.59a2.81 2.81 0 0 0-.77-1.57 4 4 0 0 0-2-.32H60v7a1.41 1.41 0 0 0 .32 1 1.65 1.65 0 0 0 1.12.3h3.44a11 11 0 0 0 2.55-.2 2.43 2.43 0 0 0 1.19-.75 7.36 7.36 0 0 0 1-1.76h.59l-.91 3.67H55.16v-.57a2 2 0 0 0 1.77-.68 4.55 4.55 0 0 0 .46-2.41v-12.3a4.59 4.59 0 0 0-.47-2.46 2 2 0 0 0-1.76-.67v-.57h14.17v3.28H69a3.35 3.35 0 0 0-.9-1.76 4.25 4.25 0 0 0-2.44-.46H60v8.42h5.5a2.17 2.17 0 0 0 1.53-.41 2.68 2.68 0 0 0 .59-1.55zM89.12 393.14v-.57h5.93v.57a2.41 2.41 0 0 0-2 .67 3.9 3.9 0 0 0-.56 2.43v16h-.6L78 395.13v13.81a3 3 0 0 0 .6 2.09 2.61 2.61 0 0 0 2 .63v.57h-6v-.57a2.16 2.16 0 0 0 1.93-.75 4.93 4.93 0 0 0 .5-2.63v-11.5a4.15 4.15 0 0 0-.68-2.68 3.17 3.17 0 0 0-2.23-1v-.57h5l12.36 15.3v-11.5a4.5 4.5 0 0 0-.52-2.52 2.16 2.16 0 0 0-1.84-.67zM99.39 412.23v-.57a2 2 0 0 0 1.75-.7 4.46 4.46 0 0 0 .48-2.42v-12.27a4.53 4.53 0 0 0-.48-2.45 2 2 0 0 0-1.75-.68v-.57h9.1a11.23 11.23 0 0 1 8.07 2.86 9.6 9.6 0 0 1 3 7.29 8.87 8.87 0 0 1-2.87 6.93q-2.86 2.58-8 2.58zm8.61-18.91h-3.74v14.52a5.6 5.6 0 0 0 .51 2.86 2.21 2.21 0 0 0 2 .77h2a7.22 7.22 0 0 0 5.7-2.34 9.2 9.2 0 0 0 2.08-6.37 10 10 0 0 0-2.27-6.87 8 8 0 0 0-6.28-2.57zM141.47 392.57h4.65v.57q-2.22 0-2.22 2.61v.45l1 12.12a5.37 5.37 0 0 0 .66 2.58 2.44 2.44 0 0 0 1.79.76v.57h-7.08v-.57a2.53 2.53 0 0 0 1.59-.75 2.6 2.6 0 0 0 .46-1.7v-.52L141.26 396l-6.74 16.25H134L127.36 396l-1.11 12.09v.54a2.8 2.8 0 0 0 2.56 3v.57h-6.12v-.57a2.58 2.58 0 0 0 1.77-.87 5.81 5.81 0 0 0 .75-2.75l1.19-13.53a4.34 4.34 0 0 0-2.57-1.37v-.57h5l6.26 15.46zM163.89 400h.59v4.77h-.59a2.81 2.81 0 0 0-.77-1.57 4 4 0 0 0-2-.32h-4.88v7a1.36 1.36 0 0 0 .33 1 1.64 1.64 0 0 0 1.11.3h3.44a11 11 0 0 0 2.55-.2 2.38 2.38 0 0 0 1.19-.75 7 7 0 0 0 1-1.76h.59l-.91 3.67h-14.11v-.57a2 2 0 0 0 1.78-.68 4.66 4.66 0 0 0 .45-2.41v-12.3a4.5 4.5 0 0 0-.47-2.46 2 2 0 0 0-1.76-.67v-.57h14.17v3.28h-.36a3.35 3.35 0 0 0-.87-1.87 4.23 4.23 0 0 0-2.44-.46h-5.67v8.42h5.5a2.22 2.22 0 0 0 1.54-.41 2.76 2.76 0 0 0 .59-1.44zM185.39 393.14v-.57h5.94v.57a2.45 2.45 0 0 0-2 .67 3.91 3.91 0 0 0-.55 2.43v16h-.61l-13.94-17.1v13.81a3 3 0 0 0 .6 2.09 2.65 2.65 0 0 0 2 .63v.57h-6v-.57a2.14 2.14 0 0 0 1.92-.75 4.91 4.91 0 0 0 .51-2.63v-11.5a4.21 4.21 0 0 0-.68-2.68 3.19 3.19 0 0 0-2.24-1v-.57h5.05l12.36 15.3v-11.5a4.52 4.52 0 0 0-.51-2.52 2.17 2.17 0 0 0-1.85-.68zM207.81 393.52h-3v15.12a4.59 4.59 0 0 0 .43 2.4 2 2 0 0 0 1.7.62v.57h-7v-.57a1.94 1.94 0 0 0 1.76-.72 4.56 4.56 0 0 0 .47-2.4v-15h-2.86a5.22 5.22 0 0 0-3 .66 2.72 2.72 0 0 0-1.05 2.16h-.59v-4.51h.59a4.39 4.39 0 0 0 3 .74h10.32a5 5 0 0 0 3.12-.74h.62v4.51H212a3.3 3.3 0 0 0-1.32-2.22 5.38 5.38 0 0 0-2.87-.62z" transform="translate(-1.8 -.09)"/><path class="cls-1" d="M144.07.09h-4.14c3.25 6.63.45 20.68-.87 26.69-.38 1.74-.89 3.7-1.07 4.15a31 31 0 0 1-2.59 5.38c-.48.78-2.79 5-3.05 5.73-7 18.34 6.13 27.38 6.13 27.38a46.62 46.62 0 0 1-4.22-15.07v-1.67c0-8.14 4.9-14.31 7.64-19.1a15.94 15.94 0 0 0 1.31-3.29c.32-1.19.92-3.63 1.18-4.74 3.61-16.44.93-23.34-.32-25.46z" transform="translate(-1.8 -.09)"/><path class="cls-2" d="M214.11 226.34v-8.86c-18.29-30.12-10.63-58.29-10.85-58 7.67-21-3.74-37.48-3.74-37.22-5.91-10.64.14-20 1.4-23.87.25-.73.53-1.45.65-1.88 4.59-16-20-20.38-20.27-20.64 17.49 9.44-6.39 37.22-6.13 37-9.49 10.84 1.06 27.52 1.06 27.26 8.21 15.46-12.41 37.71-12.41 37.71v10s13.32-18.68 13.89-19.77c13.43-18.54 3.7-33.42 3.61-33.55-5.79-7.22-4.7-14.3-3.74-17.39a10.58 10.58 0 0 1 1.59-2.74 97 97 0 0 0 8.33-12.37c7.55-14.12 2.84-19 .91-20.87-.5-.57-1.22-1.12-1.44-1.37-2.15-2.13-1.26-1.33-1.42-1.61 18 7.21 11.75 19.92 11.77 20.05-2.68 4.43-5.45 13.37-5.45 13.37a14.21 14.21 0 0 0 1.32 11c9.79 18.34 6.88 33 6.88 32.76-10.62 39.33 9.48 65.65 14.04 70.99zM106.34 65.77c-1.17-1.59-8.34-10.42-22.24-5.52 0 0-10.62 4.32-11 16.51 0 0-.33 12.25 13 14.81a6.75 6.75 0 0 0 2.23.06c0-.06 1.9-.39 0-1.63 0 .06-11.6-1.38-8.39-13 0 0 3.94-10.36 14.29-8.39 0 .13 7.66.66 11.27 9.63 0 .13 2.09 9.5-5.51 15.14a27.4 27.4 0 0 1-22.73 4.13c.06.06-11.6-3.74-13.37-15.66 0-.07-1.11-8 3.93-18.61 0 .06 4.79-9 8.26-12.42.06 0 7.21-8.68 9.11-18.58A39.72 39.72 0 0 0 82.66 9c0 .13-.73-2.82-5.18-8.91H64.7s-7.07 14.67 5.51 38.53c-.13.13-13.89 21.75-13.89 26.07 0 .14-3.15 12.32 2.88 21.63 0 .13 8.78 15.72 26 15.07 0 .26 13.93.25 21.19-10.63zM70.08 25.45c-1.58-5.24-.59-18.08 3.8-20s6.55 2.75 6.48 2.75C86 20 73.22 34.69 73.22 34.69a63.19 63.19 0 0 1-3.14-9.24z" transform="translate(-1.8 -.09)"/></svg>