<svg xmlns="http://www.w3.org/2000/svg" id="Layer_1" viewBox="0 0 216 144"><style id="style3">.st0{fill:#fff}</style><g id="g5"><path d="M72.8 34.5h2.7v.9c.2-.4.8-1.1 2.1-1.1.9 0 1.6.4 1.9 1.1.3-.4 1-1.1 2.3-1.1 1.3 0 2.2.8 2.2 2.3v4.6h-2.8v-3.7c0-.6-.2-1-.6-1-.3 0-.8.2-.8 1.2v3.5H77v-3.7c0-.6-.2-1-.6-1-.3 0-.8.2-.8 1.2v3.5h-2.8v-6.7z" id="path7"/><path d="M84.9 37.9c0-2.3 1.5-3.6 3.7-3.6s3.7 1.3 3.7 3.6-1.5 3.6-3.7 3.6c-2.2-.1-3.7-1.3-3.7-3.6zm4.7 0c0-1-.3-1.6-.9-1.6-.7 0-.9.6-.9 1.6s.3 1.6.9 1.6c.6 0 .9-.7.9-1.6z" id="path9"/><path d="M98.5 36.9c-.2-.1-.4-.1-.7-.1-.7 0-1.7.3-1.7 2v2.4h-2.8v-6.7H96v1.1c.4-.8 1.1-1.3 2-1.3.3 0 .5 0 .6.1v2.5z" id="path11"/><path d="M106 39.8c-.5 1.1-1.8 1.6-3.3 1.6-2.1 0-3.7-1.2-3.7-3.5 0-2.4 1.6-3.6 3.7-3.6 2.4 0 3.6 1.6 3.6 3.8v.5h-4.5c0 .3.1.9.9.9.5 0 .8-.2.9-.6l2.4.9zm-4.3-2.6h1.8c-.1-.6-.3-1-.9-1-.6-.1-.8.4-.9 1z" id="path13"/><path d="M107.1 41.2v-2.8h2.7v2.8h-2.7z" id="path15"/><path d="M115.2 41.2v-.8c-.4.7-1.2 1-1.9 1-1.7 0-2.3-.9-2.3-2 0-1.5 1.3-2 2.5-2.2l1.6-.3v-.3c0-.3-.2-.6-.6-.6s-.6.3-.7.5h-2.6c.1-1.3 1.3-2.3 3.3-2.3 1.8 0 3.2.6 3.2 2.5v4.4h-2.5zm-.1-2.5v-.4l-.9.2c-.4.1-.6.3-.6.6 0 .4.3.5.6.5.5 0 .9-.3.9-.9z" id="path17"/><path d="M124.2 36.9c-.2-.1-.4-.1-.7-.1-.7 0-1.7.3-1.7 2v2.4H119v-6.7h2.6v1.1c.4-.8 1.1-1.3 2-1.3.3 0 .5 0 .6.1v2.5z" id="path19"/><path d="M129.7 41.3c-.5.1-.9.1-1.3.1-1.6 0-2.8-.6-2.8-2.6v-2.3h-1v-2h1v-1.8l2.7-1.2v3h1.4v2h-1.4v2c0 .6.4.7.8.7.2 0 .4 0 .5-.1l.1 2.2z" id="path21"/><path d="M134.2 36.9c1.3.3 2.8.6 2.8 2.2s-1.4 2.3-3.4 2.3c-1.4 0-2.9-.4-3.2-1.9l2.5-.3c.1.4.4.5.8.5s.7-.1.7-.4c0-.3-.3-.3-1.3-.5-1.1-.2-2.4-.7-2.4-2.2 0-1.7 1.6-2.3 3.2-2.3 1.7 0 2.9.7 3.1 1.7l-2.5.5c0-.3-.3-.5-.7-.5-.3 0-.6.1-.6.4 0 .3.4.4 1 .5z" id="path23"/><path d="M137.9 34.5h2.7v.9c.2-.4.8-1.1 2.1-1.1.9 0 1.6.4 1.9 1.1.3-.4 1-1.1 2.3-1.1 1.3 0 2.2.8 2.2 2.3v4.6h-2.8v-3.7c0-.6-.2-1-.6-1-.3 0-.8.2-.8 1.2v3.5h-2.8v-3.7c0-.6-.2-1-.6-1-.3 0-.8.2-.8 1.2v3.5h-2.8v-6.7z" id="path25"/><path d="M150.3 31.4h2.8v2.4h-2.8v-2.4zm0 9.8v-6.7h2.8v6.7h-2.8z" id="path27"/><path d="M158.3 41.2v-.8c-.4.7-1.2 1-1.9 1-1.7 0-2.3-.9-2.3-2 0-1.5 1.3-2 2.5-2.2l1.6-.3v-.3c0-.3-.2-.6-.6-.6s-.6.3-.7.5h-2.6c.1-1.3 1.3-2.3 3.3-2.3 1.8 0 3.2.6 3.2 2.5v4.4h-2.5zm-.1-2.5v-.4l-.9.2c-.4.1-.6.3-.6.6 0 .4.3.5.6.5.5 0 .9-.3.9-.9z" id="path29"/><path d="M162.2 41.2v-2.8h2.7v2.8h-2.7z" id="path31"/><path d="M165.9 37.9c0-2.3 1.5-3.6 3.7-3.6s3.7 1.3 3.7 3.6-1.5 3.6-3.7 3.6c-2.2-.1-3.7-1.3-3.7-3.6zm4.7 0c0-1-.3-1.6-.9-1.6-.7 0-.9.6-.9 1.6s.3 1.6.9 1.6c.6 0 .9-.7.9-1.6z" id="path33"/><path d="M179.5 36.9c-.2-.1-.4-.1-.7-.1-.7 0-1.7.3-1.7 2v2.4h-2.8v-6.7h2.6v1.1c.4-.8 1.1-1.3 2-1.3.3 0 .5 0 .6.1v2.5z" id="path35"/><path d="M183.5 39.2c-.4 0-.6-.1-.9-.1-.2 0-.3.1-.3.2 0 .4 1.3.3 2.2.4 1.3.1 2.8.6 2.8 2.1 0 1.7-1.7 2.4-3.9 2.4-2.1 0-3.6-.5-3.6-1.8 0-.6.5-1.1 1.1-1.3-.7-.3-.9-.8-.9-1.4 0-.6.5-1.1 1.1-1.3-.5-.4-.8-.9-.8-1.7 0-1.7 1.6-2.5 3.3-2.5.6 0 1.2.1 1.7.4.4-.5.9-.5 1.2-.5.3 0 .5 0 .8.1v1.4c-.1 0-.2-.1-.4-.1-.1 0-.3 0-.3.1.2.3.3.6.3 1-.1 1.9-1.7 2.6-3.4 2.6zm-1.2 2.5c-.2 0-.4.2-.4.4 0 .4.5.5 1.4.5.8 0 1.4-.1 1.4-.5 0-.3-.4-.3-1.2-.4-.5.1-.7.1-1.2 0zm1.2-5.9c-.4 0-.7.3-.7.9 0 .6.3.9.7.9.4 0 .7-.3.7-.9-.1-.6-.3-.9-.7-.9z" id="path37"/><path d="M74.3 55.8v4.1h-.9v-9.8h3.2c2 0 3.2.9 3.2 2.8s-1.3 2.8-3.2 2.8h-2.3zm2.1-5h-2.1V55h2.1c1.7 0 2.5-.7 2.5-2.1.1-1.4-.7-2.1-2.5-2.1z" id="path39"/><path d="M81.3 50.1h.8v9.8h-.8v-9.8z" id="path41"/><path d="M89.3 58.4c-.5 1-1.3 1.7-2.6 1.7-1.9 0-3-1.5-3-3.5 0-1.9 1.1-3.4 3-3.4s2.8 1.6 2.8 3.2v.3h-5c.1 1.5.7 2.7 2.2 2.7 1 0 1.5-.5 1.9-1.3l.7.3zm-4.7-2.3h4c-.1-1.3-.9-2.2-2-2.2s-1.9.9-2 2.2z" id="path43"/><path d="M95 59.9v-1c-.3.6-1.2 1.1-2.4 1.1-1.3 0-2.1-.7-2.1-1.8 0-1.2 1-1.9 2.5-2.1l1.9-.3v-.4c0-.9-.5-1.6-1.6-1.6-1 0-1.5.5-1.7 1.3h-.8c.1-1.3 1.3-2 2.5-2 1.5 0 2.4.9 2.4 2.3v4.5H95zm0-2.6v-.8l-1.7.2c-1.2.2-1.9.7-1.9 1.4s.5 1.2 1.4 1.2c1.1.1 2.2-.6 2.2-2z" id="path45"/><path d="M99.8 60.1c-1.5 0-2.5-.7-2.6-2.1l.8-.1c.1.9.6 1.5 1.8 1.5 1.1 0 1.7-.5 1.7-1.3s-.5-1.1-1.8-1.2c-1.5-.2-2.4-.7-2.4-1.9s1.1-1.9 2.3-1.9c1.4 0 2.4.7 2.5 1.8l-.8.2c-.1-.9-.6-1.3-1.7-1.3-.8 0-1.5.4-1.5 1.2 0 .7.5 1 1.8 1.2 1.4.2 2.4.6 2.4 1.9.1 1.2-.9 2-2.5 2z" id="path47"/><path d="M109.1 58.4c-.5 1-1.3 1.7-2.6 1.7-1.9 0-3-1.5-3-3.5 0-1.9 1.1-3.4 3-3.4s2.8 1.6 2.8 3.2v.3h-5c.1 1.5.7 2.7 2.2 2.7 1 0 1.5-.5 1.9-1.3l.7.3zm-4.7-2.3h4c-.1-1.3-.9-2.2-2-2.2s-1.9.9-2 2.2z" id="path49"/><path d="M113.1 53.4h.9s1.8 4.8 2.1 5.8c.3-.9 2.1-5.8 2.1-5.8h.8l-2.6 6.6h-.9l-2.4-6.6z" id="path51"/><path d="M120.4 50.1h.8v1.2h-.8v-1.2zm0 3.3h.8V60h-.8v-6.6z" id="path53"/><path d="M125.3 60.1c-1.5 0-2.5-.7-2.6-2.1l.8-.1c.1.9.6 1.5 1.8 1.5 1.1 0 1.7-.5 1.7-1.3s-.5-1.1-1.8-1.2c-1.5-.2-2.4-.7-2.4-1.9s1.1-1.9 2.3-1.9c1.4 0 2.4.7 2.5 1.8l-.8.2c-.1-.9-.6-1.3-1.7-1.3-.8 0-1.5.4-1.5 1.2 0 .7.5 1 1.8 1.2 1.4.2 2.4.6 2.4 1.9.1 1.2-.8 2-2.5 2z" id="path55"/><path d="M129.5 50.1h.8v1.2h-.8v-1.2zm0 3.3h.8V60h-.8v-6.6z" id="path57"/><path d="M135.2 60c-.3.1-.6.1-.9.1-1 0-1.5-.5-1.5-1.5V54h-1.1v-.7h1.1v-1.9l.8-.4v2.3h1.6v.7h-1.6v4.4c0 .6.2.9.8.9.4 0 .6-.1.9-.1v.8z" id="path59"/><path d="M142.5 60c-.3.1-.6.1-.9.1-1 0-1.5-.5-1.5-1.5V54H139v-.7h1.1v-1.9l.8-.4v2.3h1.6v.7h-1.6v4.4c0 .6.2.9.8.9.4 0 .6-.1.9-.1v.8z" id="path61"/><path d="M143.9 50.1h.8v4.2c.4-.6 1.1-1.1 2.2-1.1 1.3 0 2.2.8 2.2 2.2v4.5h-.8v-4.3c0-1.1-.7-1.7-1.6-1.7-1.1 0-2 .9-2 2.2V60h-.8v-9.9z" id="path63"/><path d="M156.3 58.4c-.5 1-1.3 1.7-2.6 1.7-1.9 0-3-1.5-3-3.5 0-1.9 1.1-3.4 3-3.4s2.8 1.6 2.8 3.2v.3h-5c.1 1.5.7 2.7 2.2 2.7 1 0 1.5-.5 1.9-1.3l.7.3zm-4.7-2.3h4c-.1-1.3-.9-2.2-2-2.2s-1.9.9-2 2.2z" id="path65"/><path d="M163.2 60.1c-1.5 0-2.5-.7-2.6-2.1l.8-.1c.1.9.6 1.5 1.8 1.5 1.1 0 1.7-.5 1.7-1.3s-.5-1.1-1.8-1.2c-1.5-.2-2.4-.7-2.4-1.9s1.1-1.9 2.3-1.9c1.4 0 2.4.7 2.5 1.8l-.8.2c-.1-.9-.6-1.3-1.7-1.3-.8 0-1.5.4-1.5 1.2 0 .7.5 1 1.8 1.2 1.4.2 2.4.6 2.4 1.9.1 1.2-.8 2-2.5 2z" id="path67"/><path d="M167.4 50.1h.8v1.2h-.8v-1.2zm0 3.3h.8V60h-.8v-6.6z" id="path69"/><path d="M173.1 60c-.3.1-.6.1-.9.1-1 0-1.5-.5-1.5-1.5V54h-1.1v-.7h1.1v-1.9l.8-.4v2.3h1.6v.7h-1.6v4.4c0 .6.2.9.8.9.4 0 .6-.1.9-.1v.8z" id="path71"/><path d="M179.4 58.4c-.5 1-1.3 1.7-2.6 1.7-1.9 0-3-1.5-3-3.5 0-1.9 1.1-3.4 3-3.4s2.8 1.6 2.8 3.2v.3h-5c.1 1.5.7 2.7 2.2 2.7 1 0 1.5-.5 1.9-1.3l.7.3zm-4.8-2.3h4c-.1-1.3-.9-2.2-2-2.2s-1.8.9-2 2.2z" id="path73"/><path d="M76 74.7c-.3.1-.6.1-.9.1-1 0-1.5-.5-1.5-1.5v-4.6h-1.1V68h1.1v-1.9l.8-.4V68H76v.7h-1.6v4.4c0 .6.2.9.8.9.4 0 .6-.1.9-.1v.8z" id="path75"/><path d="M82.8 71.4c0 1.9-1.1 3.4-3 3.4-2 0-3-1.5-3-3.4s1.1-3.5 3-3.5 3 1.5 3 3.5zm-5.3 0c0 1.5.7 2.8 2.2 2.8 1.5 0 2.2-1.3 2.2-2.8 0-1.5-.7-2.8-2.2-2.8-1.4 0-2.2 1.2-2.2 2.8z" id="path77"/><path d="M90.4 65.5c-.2-.1-.4-.1-.6-.1-.7 0-1.1.5-1.1 1.3v1.4h1.6v.7h-1.6v5.9h-.8v-5.9h-1.1v-.7h1.1v-1.4c0-1.4.9-2 1.9-2 .2 0 .4 0 .6.1v.7zm1.5-.7h.8V66h-.8v-1.2zm0 3.3h.8v6.6h-.8v-6.6z" id="path79"/><path d="M94.8 68.1h.8v1.1c.3-.7 1.1-1.3 2.3-1.3 1.3 0 2.2.8 2.2 2.2v4.5h-.8v-4.3c0-1.1-.7-1.7-1.6-1.7-1.1 0-2 .9-2 2.2v3.9h-.8v-6.6z" id="path81"/><path d="M104.5 67.9c1.1 0 1.8.6 2.2 1.2v-4.2h.8v9.8h-.8v-1.1c-.3.6-1.1 1.3-2.3 1.3-1.7 0-3-1.4-3-3.5.2-2.1 1.5-3.5 3.1-3.5zm.1 6.2c1 0 2.1-.8 2.1-2.3v-.9c0-1.4-1.1-2.3-2.1-2.3-1.3 0-2.1 1.2-2.1 2.7 0 1.6.8 2.8 2.1 2.8z" id="path83"/><path d="M116.8 74.6v-1c-.3.6-1.2 1.1-2.4 1.1-1.3 0-2.1-.7-2.1-1.8 0-1.2 1-1.9 2.5-2.1l1.9-.3v-.4c0-.9-.5-1.6-1.6-1.6-1 0-1.5.5-1.7 1.3h-.8c.1-1.3 1.3-2 2.5-2 1.5 0 2.4.9 2.4 2.3v4.5h-.7zm0-2.6v-.8l-1.7.2c-1.2.2-1.9.7-1.9 1.4s.5 1.2 1.4 1.2c1.2.1 2.2-.6 2.2-2z" id="path85"/><path d="M124.8 74.6h-.8v-1.1c-.3.7-1.1 1.3-2.2 1.3-1.3 0-2.2-.8-2.2-2.2v-4.5h.8v4.3c0 1.1.7 1.7 1.5 1.7 1.1 0 2-.9 2-2.1v-3.9h.8v6.5z" id="path87"/><path d="M129.3 67.9c1.1 0 1.8.6 2.2 1.2v-4.2h.8v9.8h-.8v-1.1c-.3.6-1.1 1.3-2.3 1.3-1.7 0-3-1.4-3-3.5.2-2.1 1.4-3.5 3.1-3.5zm.1 6.2c1 0 2.1-.8 2.1-2.3v-.9c0-1.4-1.1-2.3-2.1-2.3-1.3 0-2.1 1.2-2.1 2.7 0 1.6.8 2.8 2.1 2.8z" id="path89"/><path d="M134.4 64.8h.8V66h-.8v-1.2zm0 3.3h.8v6.6h-.8v-6.6z" id="path91"/><path d="M142.9 71.4c0 1.9-1 3.4-3 3.4s-3-1.5-3-3.4 1.1-3.5 3-3.5 3 1.5 3 3.5zm-5.2 0c0 1.5.7 2.8 2.2 2.8s2.2-1.3 2.2-2.8c0-1.5-.7-2.8-2.2-2.8s-2.2 1.2-2.2 2.8z" id="path93"/><path d="M149.8 74.8c-1.5 0-2.5-.7-2.6-2.1l.8-.1c.1.9.6 1.5 1.8 1.5 1.1 0 1.7-.5 1.7-1.3s-.5-1.1-1.8-1.2c-1.5-.2-2.4-.7-2.4-1.9s1.1-1.9 2.3-1.9c1.4 0 2.4.7 2.5 1.8l-.8.2c-.1-.9-.6-1.3-1.7-1.3-.8 0-1.5.4-1.5 1.2 0 .7.5 1 1.8 1.2 1.4.2 2.4.6 2.4 1.9 0 1.2-.9 2-2.5 2z" id="path95"/><path d="M156.7 74.7c-.3.1-.6.1-.9.1-1 0-1.5-.5-1.5-1.5v-4.6h-1.1V68h1.1v-1.9l.8-.4V68h1.6v.7h-1.6v4.4c0 .6.2.9.8.9.4 0 .6-.1.9-.1v.8z" id="path97"/><path d="M163.5 71.4c0 1.9-1.1 3.4-3 3.4-2 0-3-1.5-3-3.4s1.1-3.5 3-3.5 3 1.5 3 3.5zm-5.2 0c0 1.5.7 2.8 2.2 2.8 1.5 0 2.2-1.3 2.2-2.8 0-1.5-.7-2.8-2.2-2.8-1.5 0-2.2 1.2-2.2 2.8z" id="path99"/><path d="M168.1 74.8c-1.1 0-1.8-.6-2.2-1.2v3.8h-.8V68h.8v1.1c.3-.6 1.1-1.3 2.3-1.3 1.7 0 3 1.4 3 3.5-.1 2.1-1.4 3.5-3.1 3.5zm0-6.2c-1 0-2.1.8-2.1 2.3v.9c0 1.4 1.1 2.3 2.1 2.3 1.3 0 2.1-1.2 2.1-2.7 0-1.6-.8-2.8-2.1-2.8z" id="path101"/><path d="M174.7 74.8c-1.5 0-2.5-.7-2.6-2.1l.8-.1c.1.9.6 1.5 1.8 1.5 1.1 0 1.7-.5 1.7-1.3s-.5-1.1-1.8-1.2c-1.5-.2-2.4-.7-2.4-1.9s1.1-1.9 2.3-1.9c1.4 0 2.4.7 2.5 1.8l-.8.2c-.1-.9-.6-1.3-1.7-1.3-.8 0-1.5.4-1.5 1.2 0 .7.5 1 1.8 1.2 1.4.2 2.4.6 2.4 1.9.1 1.2-.8 2-2.5 2z" id="path103"/><path d="M179.4 74.6h-.4v-1.3h1.1v1.1c0 .9-.3 1.4-.9 1.7l-.2-.4c.3-.1.5-.5.5-.9v-.2z" id="path105"/><path d="M72.4 82.8h.9s1.8 4.8 2.1 5.8c.3-.9 2.1-5.8 2.1-5.8h.8l-2.6 6.6h-.9l-2.4-6.6z" id="path107"/><path d="M79.6 79.5h.8v1.2h-.8v-1.2zm0 3.3h.8v6.6h-.8v-6.6z" id="path109"/><path d="M85 82.6c1.1 0 1.8.6 2.2 1.2v-4.2h.8v9.8h-.8v-1.1c-.3.6-1.1 1.3-2.3 1.3-1.7 0-3-1.4-3-3.5.1-2.1 1.4-3.5 3.1-3.5zm0 6.2c1 0 2.1-.8 2.1-2.3v-.9c0-1.4-1.1-2.3-2.1-2.3-1.3 0-2.1 1.2-2.1 2.7 0 1.6.8 2.8 2.1 2.8z" id="path111"/><path d="M95.3 87.8c-.5 1-1.3 1.7-2.6 1.7-1.9 0-3-1.5-3-3.5 0-1.9 1.1-3.4 3-3.4s2.8 1.6 2.8 3.2v.3h-5c.1 1.5.7 2.7 2.2 2.7 1 0 1.5-.5 1.9-1.3l.7.3zm-4.8-2.3h4c-.1-1.3-.9-2.2-2-2.2s-1.8.9-2 2.2z" id="path113"/><path d="M102.7 86.1c0 1.9-1.1 3.4-3 3.4-2 0-3-1.5-3-3.4s1.1-3.5 3-3.5 3 1.5 3 3.5zm-5.2 0c0 1.5.7 2.8 2.2 2.8 1.5 0 2.2-1.3 2.2-2.8 0-1.5-.7-2.8-2.2-2.8-1.5 0-2.2 1.2-2.2 2.8z" id="path115"/><path d="M106.3 89.5c-1.5 0-2.5-.7-2.6-2.1l.8-.1c.1.9.6 1.5 1.8 1.5 1.1 0 1.7-.5 1.7-1.3s-.5-1.1-1.8-1.2c-1.5-.2-2.4-.7-2.4-1.9s1.1-1.9 2.3-1.9c1.4 0 2.4.7 2.5 1.8l-.8.2c-.1-.9-.6-1.3-1.7-1.3-.8 0-1.5.4-1.5 1.2 0 .7.5 1 1.8 1.2 1.4.2 2.4.6 2.4 1.9.1 1.2-.8 2-2.5 2z" id="path117"/><path d="M111 89.3h-.4V88h1.1v1.1c0 .9-.3 1.4-.9 1.7l-.2-.4c.3-.1.5-.5.5-.9v-.2z" id="path119"/><path d="M120.9 89.3v-1c-.3.6-1.2 1.1-2.4 1.1-1.3 0-2.1-.7-2.1-1.8 0-1.2 1-1.9 2.5-2.1l1.9-.3v-.4c0-.9-.5-1.6-1.6-1.6-1 0-1.5.5-1.7 1.3h-.8c.1-1.3 1.3-2 2.5-2 1.5 0 2.4.9 2.4 2.3v4.5h-.7zm0-2.6V86l-1.7.2c-1.2.2-1.9.7-1.9 1.4s.5 1.2 1.4 1.2c1.1 0 2.2-.7 2.2-2.1z" id="path121"/><path d="M123.6 82.8h.8v1.1c.3-.7 1.1-1.3 2.3-1.3 1.3 0 2.2.8 2.2 2.2v4.5h-.8V85c0-1.1-.7-1.7-1.6-1.7-1.1 0-2 .9-2 2.2v3.9h-.8v-6.6z" id="path123"/><path d="M133.4 82.6c1.1 0 1.8.6 2.2 1.2v-4.2h.8v9.8h-.8v-1.1c-.3.6-1.1 1.3-2.3 1.3-1.7 0-3-1.4-3-3.5.2-2.1 1.4-3.5 3.1-3.5zm.1 6.2c1 0 2.1-.8 2.1-2.3v-.9c0-1.4-1.1-2.3-2.1-2.3-1.3 0-2.1 1.2-2.1 2.7-.1 1.6.7 2.8 2.1 2.8z" id="path125"/><path d="M146 85c0-1.1-.6-1.7-1.4-1.7-1 0-1.9.9-1.9 2.2v3.8h-.8v-6.6h.8v1.1c.3-.7 1.1-1.3 2.1-1.3.9 0 1.6.4 1.9 1.2.4-.7 1.1-1.2 2.2-1.2 1.2 0 2.1.8 2.1 2.2v4.5h-.8V85c0-1.1-.6-1.7-1.4-1.7-1 0-1.9.9-1.9 2.2v3.9h-.9V85z" id="path127"/><path d="M158.7 86.1c0 1.9-1.1 3.4-3 3.4-2 0-3-1.5-3-3.4s1.1-3.5 3-3.5 3 1.5 3 3.5zm-5.3 0c0 1.5.7 2.8 2.2 2.8 1.5 0 2.2-1.3 2.2-2.8 0-1.5-.7-2.8-2.2-2.8-1.4 0-2.2 1.2-2.2 2.8z" id="path129"/><path d="M163.4 83.4c-.1-.1-.3-.1-.5-.1-.9 0-1.8.9-1.8 2.3v3.7h-.8v-6.6h.8v1.2c.3-.8 1.1-1.3 1.9-1.3.2 0 .4 0 .5.1v.7z" id="path131"/><path d="M169.7 87.8c-.5 1-1.3 1.7-2.6 1.7-1.9 0-3-1.5-3-3.5 0-1.9 1.1-3.4 3-3.4s2.8 1.6 2.8 3.2v.3h-5c.1 1.5.7 2.7 2.2 2.7 1 0 1.5-.5 1.9-1.3l.7.3zm-4.8-2.3h4c-.1-1.3-.9-2.2-2-2.2s-1.8.9-2 2.2z" id="path133"/><path d="M171.3 89.3V88h1.1v1.3h-1.1z" id="path135"/></g><g id="g137"><g id="g139"><path d="M35.1 96.1c-2.6 0-4.6-2.2-4.6-4.9V33.6c0-2.7 2.1-4.9 4.6-4.9h28.7c2.6 0 4.6 2.2 4.6 4.9v57.6c0 2.7-2.1 4.9-4.6 4.9H35.1z" id="path141"/><path class="st0" d="M63.8 29.8c2 0 3.6 1.7 3.6 3.8v57.6c0 2.1-1.6 3.8-3.6 3.8H35.1c-2 0-3.6-1.7-3.6-3.8V33.6c0-2.1 1.6-3.8 3.6-3.8h28.7m0-2.1H35.1c-3.1 0-5.7 2.7-5.7 5.9v57.6c0 3.3 2.5 5.9 5.7 5.9h28.7c3.1 0 5.7-2.7 5.7-5.9V33.6c-.1-3.3-2.6-5.9-5.7-5.9z" id="path143"/></g><path class="st0" d="M47.9 89.1c0-.9.7-1.7 1.6-1.7.9 0 1.6.7 1.6 1.7 0 .9-.7 1.7-1.6 1.7-.9-.1-1.6-.8-1.6-1.7z" id="path145"/><path class="st0" d="M62.3 78.5c0 2.1-1.6 3.8-3.6 3.8H40.2c-2 0-3.6-1.7-3.6-3.8V41.7c0-2.1 1.6-3.8 3.6-3.8h18.6c2 0 3.6 1.7 3.6 3.8v36.8z" id="path147"/><g id="g149"><g id="g151"><path d="M51.6 63.3c0 1-.8 1.8-1.8 1.8s-1.8-.8-1.8-1.8.8-1.8 1.8-1.8 1.8.8 1.8 1.8z" id="path153"/></g><g id="g155"><g id="g157"><path d="M54 59l-.2-.2c-2.3-2.1-5.8-2-8 .2l-.3.3-.4.4c-.4.4-.4 1.1 0 1.6.4.4 1.1.4 1.6 0l.6-.6c1.4-1.4 3.7-1.4 5.1 0l.4.4c.4.4 1.1.4 1.6 0 .2-.2.3-.5.3-.8 0-.3-.1-.6-.3-.8L54 59z" id="path159"/><path d="M57.1 56.8l-.4-.4-.3-.3c0-.1-.1-.1-.2-.1-3.7-3.3-9.4-3.2-13.1.3H43l-.5.7c-.4.4-.4 1 0 1.4.4.4 1 .4 1.4 0l.7-.7c2.9-2.8 7.6-2.9 10.5-.1l.5.5c.4.4 1 .4 1.4 0 .5-.2.5-.9.1-1.3z" id="path161"/></g></g></g></g></svg>