<svg id="Layer_1" data-name="Layer 1" xmlns="http://www.w3.org/2000/svg" viewBox="0 0 193.26 312.85"><defs><style>.cls-1,.cls-5{fill:#4b186e}.cls-2,.cls-4{fill:none}.cls-2,.cls-3,.cls-4,.cls-5{stroke:#000;stroke-linejoin:round}.cls-2,.cls-3{stroke-linecap:round}.cls-2,.cls-4,.cls-5{stroke-width:2px}.cls-3{stroke-width:.5px}.cls-6{fill:#fff}</style></defs><path d="M.6 0h191.87v19.88H.6zM.6 239.91h191.87v9.94H.6zM.56 207.78h192v1.62H.56zM.56 212.41h192v1.62H.56zM.56 217.03h192v1.62H.56zM.56 221.66h192v1.62H.56zM.56 226.28h192v1.62H.56z"/><path d="M220.31 447.5a2.13 2.13 0 1 1-4.24 0h-2.83a4.95 4.95 0 1 0 9.9 0z" transform="translate(-209.84 -265.5)"/><path d="M20.66 180.94h4.94v1.94h-4.94zM34.85 186.88l4.81-11.94h-2l-4.81 11.94h2z"/><path d="M263.56 447.49a2.13 2.13 0 1 1-4.24 0h-2.83a4.95 4.95 0 1 0 9.9 0z" transform="translate(-209.84 -265.5)"/><path d="M63.91 180.93h4.94v1.94h-4.94zM78.1 186.87l4.82-11.94h-2l-4.82 11.94h2z"/><path d="M307 447.49a2.13 2.13 0 1 1-4.24 0h-2.83a4.95 4.95 0 0 0 9.9 0z" transform="translate(-209.84 -265.5)"/><path d="M107.35 180.93h4.94v1.94h-4.94zM121.54 186.87l4.81-11.94h-2l-4.81 11.94h2z"/><path d="M350.12 447.52a2.13 2.13 0 1 1-4.24 0h-2.83a5 5 0 1 0 9.9 0z" transform="translate(-209.84 -265.5)"/><path d="M168.06 180.91H173v1.94h-4.94z"/><path d="M367.31 447.52a2.13 2.13 0 1 1-4.24 0h-2.83a5 5 0 1 0 9.9 0z" transform="translate(-209.84 -265.5)"/><path d="M181.56 180.91h4.94v1.94h-4.94zM.6 105.06h192v1.62H.6zM.66 60.94h192v1.62H.66zM.6 52h192v1.63H.6zM.6 43.06h192v1.62H.6z"/><path class="cls-2" d="M215.12 376.62c.47-3.91 1.69-8.56 3.94-9 0 0 1.63-.93 4.13 2.63 0 0 .81 1.44 3.37.81l.13-.18c4.25-7.57 7.19-6.38 8.12-4.26.57 1.44-1.25 11.76.88 13.19l.25.25c3 1.06 8.18-5.18 8.06-6.5l.19.06c.06 3.88.46 13 5.31 13.69 2.19.31 6.38-3.37 7.12-7.75l.26-.12c16.56 8.18 36.93-.88 39.56-11.63h.18c0 1.57-1.45 17.55 1.69 17.5 4.07-.06 7.25-23 7.19-24.75-.75 14.56.19 25.23 2.06 25.38 3.06.25 4.94-22.25 5.13-24.06-3 18.83-1.18 35.36 3.06 35.31 6-.08 4.83-28.74 4.25-34.38.75 8.25 7.5 9.75 6.25-7.69l.19.13c27.5 35.25 50.56 39.87 71.18 10.37M388.25 296.75c-7.75 9-10.75 36.5 3.75 54.25M351 296.53c-9.33 10.84-9.66 37.83 3.75 54.25" transform="translate(-209.84 -265.5)"/><path class="cls-3" d="M382.62 344.06c-.31 1-.81 8.44 1 11l4-2.12a16.71 16.71 0 0 1-5-8.88zM345 343.94c-.31 1-.81 8.44 1 11l4-2.13a16.59 16.59 0 0 1-5-8.87zM379.72 302.88c-.31-1-.81-8.44 1-11l4 2.12a16.64 16.64 0 0 0-5 8.88zM361.28 302.88c-.31-1-.81-8.44 1-11l4 2.12a16.64 16.64 0 0 0-5 8.88zM340.72 302.88c-.31-1-.81-8.44 1-11l4 2.12a16.64 16.64 0 0 0-5 8.88z" transform="translate(-209.84 -265.5)"/><path class="cls-4" d="M154.16 50v5.75M115.6 50v5.75M96.03 50v5.75M77.1 49.94v5.75M57.53 49.81v5.75M19.6 49.94v5.75M38.6 49.94v5.75"/><path d="M64.72 59.94L51.47 46h-1.94l13.25 13.94h1.94z"/><path d="M263.75 321.34a1.41 1.41 0 1 0 1.41 1.41 1.41 1.41 0 0 0-1.41-1.41zM331.41 411.61c2.29.31 4.57-.17 6.87-.09a5.82 5.82 0 0 0 .82-.13 12.78 12.78 0 0 1 2.55 0c.21 0 .42.17.63.14a6 6 0 0 1 1.68-.14s0 .19.08.2a3.35 3.35 0 0 0 1.72 0c.43-.16.87 0 1.28-.23.15-.08.38 0 .54-.05s0-.18.09-.2c.26-.13.5.19.74.19a53.26 53.26 0 0 0 5.63-.17 2.43 2.43 0 0 1 .31.05c1 .09 1.95-.19 2.92 0a10.61 10.61 0 0 0 3.13.06 3.7 3.7 0 0 1 1.14.1 2.34 2.34 0 0 0 1.26-.25 1.1 1.1 0 0 1 .78 0 4.14 4.14 0 0 0 1.14.2 21.08 21.08 0 0 1 3.27.06 14.51 14.51 0 0 0 2.73.2c.08 0 .17-.1.25-.1.67 0 1.3-.16 1.93-.14a1.13 1.13 0 0 1 .69.25c.67.64 1.75 0 2.63.12 2.09.38 4.08.38 6.12.57 0 .36.3.19.49.27s0 .2.08.21a5.28 5.28 0 0 0 1.18.14c1.36-.05 2.71 0 4.06 0 .33 0 .74-.06 1 .13a3.56 3.56 0 0 0 1.43.87c1.07.19 2.13-.22 3.23-.06l.32.05a5.88 5.88 0 0 1 1.75.46c.53.26 1.1 0 1.7.14h.6a1.66 1.66 0 0 1 .54.14c.5.3.87-.17 1.37.15a3.28 3.28 0 0 1 .83.56c.06.06.11-.16.13-.08s0 .31 0 .43a3.2 3.2 0 0 1 .31 2.31c-.18.52-.1 1.14-.48 1.55a7.79 7.79 0 0 1-1.41 1.15l-.19.06h-.38a1.77 1.77 0 0 0-.94.19 11.72 11.72 0 0 1-2.06.25 5.07 5.07 0 0 1-1.62-.22c-.29-.05-.55.11-.81.1-1.76-.11-3.49-.43-5.25-.48-1.23-.56-2.68-.22-3.92-.78a2.75 2.75 0 0 0-.41-.17c-1.22-.35-2.46-.19-3.72-.43a12 12 0 0 0-2.45-.24.52.52 0 0 0 .25-.31c-.07.36-.41.27-.7.33a11.19 11.19 0 0 1-3.11-.26 5.13 5.13 0 0 1-1.14-.16c-.57-.18-1.16.17-1.73 0s-1-.27-1.45-.33c-1.45-.19-2.84 0-4.31-.21-.53-.09-1 .1-1.55 0-.87-.1-1.71-.09-2.57-.2-1.42-.19-2.81.1-4.19-.18-1.09-.22-2.33.25-3.56 0l-.32-.06a18.87 18.87 0 0 0-2 0l-.19-.06c-1.36 0-2.71.1-4.07.13-.06 0-.12-.14-.19-.15a11.89 11.89 0 0 0-2.31.11l.19-.19a.24.24 0 0 1-.13.17c-.63.08-1.24.06-1.87.1-.87.06-1.74-.11-2.62 0-.21 0-.42.26-.62.23-1-.13-1.94.21-3 .09a19.15 19.15 0 0 0-3.37.27h.06a3 3 0 0 0-1 0 3.56 3.56 0 0 1-.82.18 24.93 24.93 0 0 0-3.56.07l-.32.05a5.46 5.46 0 0 1-2.19-.19c-.55-.11-1.08.13-1.61 0a2.23 2.23 0 0 0-.45-.13 15.11 15.11 0 0 0-2.75-.24 35.36 35.36 0 0 0-4.07.21 5.34 5.34 0 0 1-2.18 0h.32c-.64.12-1.29 0-2 .14-.87.12-1.74-.05-2.62 0-.47.53-1.15.1-1.75 0a10.34 10.34 0 0 0-2.56-.33s-.27 0-.25.15l.06-.06c-.06 0-.14 0-.12.13-.35 0-.65-.3-1-.18s-.7.46-1.06.39l-.38-.07a6.67 6.67 0 0 0-1.62-.26 20.52 20.52 0 0 0-3.13.06 3.4 3.4 0 0 1-1.31-.11c-.76-.15-1.68.17-2.56.09-.26 0-.54-.12-.82-.18a7 7 0 0 0-.93.07 23.89 23.89 0 0 1-4.69-.67c-.55-.16-1.08.17-1.62.05a12.21 12.21 0 0 1-2.79-.85c-.63-.32-1.36 0-2.09-.18-.16 0-.28-.18-.44-.22s-.31.33-.43.27a2.66 2.66 0 0 0-.51-.25 12.19 12.19 0 0 0-1.87-.39c-.34 0-.6-.34-.94-.44s-.87.16-1.3.08c-.25 0-.51-.29-.82-.3a.35.35 0 0 0 .3-.19v-.06c-.15.17-.18.64-.39.44s-.54 0-.81 0c-.66-.1-1.29.08-1.8-.35a20.36 20.36 0 0 1-4.42-.21 3.07 3.07 0 0 0-1.35-.05c-1.15.28-2.3-.31-3.48-.17-.15 0-.24.24-.32.25-.75.09-1.49-.26-2.24-.17 0 0 0 .18-.08.21s-.25 0-.36 0c-.48.22-1 0-1.49.09-.2.06-.39-.18-.59-.08s-.3 0-.49-.08-.41.05-.62.06-.25.17-.38.21a6.44 6.44 0 0 1-.61.24 5.58 5.58 0 0 0-1.09.62c-.41.2-.89-.07-1.35-.16l.05-.1c-.43.09-.87-.09-1.3 0s-1.06.28-1.63.38c-.19 0-.38.17-.57.19a2.9 2.9 0 0 0-.91.14c-1 .47-2.08.13-3.15.13a7.21 7.21 0 0 0-1.63.53c-.3.08-.62.05-.92.11a47.62 47.62 0 0 1-6.13.93 6.33 6.33 0 0 1-1.56.13c-.31-.06-.59-.22-.87-.13a5 5 0 0 1-.52.16 18.87 18.87 0 0 1-4.18.17c-.07 0-.13-.08-.19-.1-.28-.07-.55.09-.81.07a16.42 16.42 0 0 1-2.32-.06c-.22 0-.46-.12-.68 0 .08-.1.12-.25.25-.31-.11.07-.1.28-.19.28a6.69 6.69 0 0 1-1.89-.12 1.94 1.94 0 0 0-1.39.1 1.47 1.47 0 0 1-1.18 0 4.32 4.32 0 0 0-2.28-.23 2.87 2.87 0 0 1-1.33-.17c-.37-.13-.8 0-1.17-.12a17 17 0 0 0-1.75-.37s0-.19-.08-.19a9.35 9.35 0 0 1-2.63-.5 3.06 3.06 0 0 0-.48-.12c-.37-.09-.59-.45-1-.57-.1 0 .14 0 .12-.15a9 9 0 0 0 3-.36 15.65 15.65 0 0 1 2-.31 1.5 1.5 0 0 1 .3 0 3.72 3.72 0 0 0 .77-.22c.55-.16 1.14.1 1.73 0 .15 0 .31-.11.45-.13.67-.1 1.15-.06 2-.24a5.38 5.38 0 0 1 .9-.08 17.32 17.32 0 0 0 1.88 0 8.36 8.36 0 0 0 3.12-.16c-.09.06.94-.16 1.69-.2.19 0 .86-.16 1.06-.17a14.8 14.8 0 0 0 2.49-.06c.18 0 .57-.06.77-.11.35-.08.71.08 1.05 0 .91-.34 1.63 0 2.49-.38a5.62 5.62 0 0 1 2-.39 3.83 3.83 0 0 0 .51-.13 4.84 4.84 0 0 0 .92-.44l.33-.14c.41-.16.88.29 1.3.17a7.62 7.62 0 0 1 1.51 0c.78-.06 1.46-.64 2.25-.64.11 0 .16-.14.25-.16.51-.1 1 .16 1.48 0 .64-.28 1.14 0 1.77-.3a9.6 9.6 0 0 1 2-.41l2.45-.5c.54-.12 1 .08 1.55 0 .13 0 .18.2.3.13.74-.49 1.57-.26 2.4-.43s1.54.13 2.24-.35c.24-.17.49 0 .74 0a7.59 7.59 0 0 0 1.07-.26c.32-.08.78.07 1.12 0 .71-.14 1.31.09 2-.08.43-.11.88.13 1.29 0a2.16 2.16 0 0 1 1.07-.05 4.16 4.16 0 0 0 1.69.32 5.6 5.6 0 0 1 2.76.17c.31.1.66-.21 1-.24.5 0 1 .28 1.49.32.34 0 .72-.09 1 .06a1.36 1.36 0 0 0 .65.23c1.19.2 2.54-.26 3.44.58.84 0 1.58.42 2.43.54.34.05.63-.08 1 .1.14.07.33 0 .49 0 .59.17 1.14.28 1.74.42s3.12.27 3.87.52 3 .14 3.6.33 1.24-.07 1.92 0c.42.06.12 0 1.93.28 0 0 1.23-.06 1.26-.06a14 14 0 0 0 3.3-.07c1.27-.12 2.51.35 3.77 0 .92-.26 1.84 0 2.79-.16l.58-.15c.94-.24 1.85.29 2.79.09s1.71-.11 2.57-.23a2.75 2.75 0 0 0 .63-.15c.15-.06.29 0 .44.06a3.13 3.13 0 0 0 1.07-.08 4.39 4.39 0 0 1 1.5-.08c.77.16 1.47-.27 2.23-.12l.33.05c1.13 0 2.26-.3 3.37-.31s2.53-.12 3.81-.05c.18 0 .38.13.55.06s.06-.2.07-.2a11 11 0 0 0 2.62.08 8.45 8.45 0 0 1 1.32-.09 1 1 0 0 1 .32.11" transform="translate(-209.84 -265.5)"/><path class="cls-6" d="M400.53 420.09a2.41 2.41 0 0 1-1.13-.35c-.08 0-.24-.09-.3 0a.61.61 0 0 0 0 .19c.51-.09.58.31.63.69.12-.06.2.12.31 0s.49-.23.49-.53zM396.09 420.47c-.17.16-.49 0-.62.25.14 0 .31-.05.42 0s.42.32.55.19-.1-.49-.41-.46zM397 420.23c-.36 0-.51-.46-.81-.26.3 0 .6.47.93.31-.07-.02-.12-.06-.12-.05zM400 418.53c-.36.17-.72-.12-1.06 0 0 0-.15.14-.07.13.48-.07.94.15 1.37 0v-.05M397.59 420.87c-.17 0-.32-.15-.49-.08s-.1.09-.06.1c.27.06.54.42.78.12.02-.01-.14-.13-.23-.14zM392.42 420.8c-.4.23-.52-.17-.74-.36s.1-.39.27-.26.38.11.5.19a.24.24 0 0 1-.03.43zM393.22 420.66c.19.17.42.06.62 0s.39-.18.55-.07.29.27.52.29a4.81 4.81 0 0 1-1.51.14c-.08 0-.3 0-.35-.15a.18.18 0 0 1 .23-.24c-.02-.33-.04.03-.06.03zM393.91 419.84a1.2 1.2 0 0 1-.19 0 .33.33 0 0 0 .37.19c-.01-.11-.04-.2-.18-.19zM391.9 414.79a.61.61 0 0 0-.3 0c-.05 0-.08.1-.07.1.27 0 .57.32.69-.05a.72.72 0 0 1-.32-.05zM389.38 418.85c-.1.5-.83.33-1.09.75v.18c.51 0 .62.49 1.06.63.05-.34.45-.47.75-.53.11 0 .1-.27 0-.32-.23-.18-.31-.46-.55-.55s-.15-.23-.17-.16zM391.59 419.59v.18c.21.13.47 0 .67.1a1.26 1.26 0 0 0 .7.22c-.28-.55-.96-.09-1.37-.5z" transform="translate(-209.84 -265.5)"/><path class="cls-6" d="M393.33 420.29c.16.19.39.35.46.21s-.38-.18-.51-.41c0 .06-.18-.08-.11.06s.12.09.16.14zM395.1 419.71a1.07 1.07 0 0 0 .68.13c0-.3-.48-.16-.69-.25 0 .05-.01.11.01.12zM395.28 421.34h.17c.01 0 .15-.26.21-.27s.55 0 .62.27c-.35.02-.67-.21-1 0zM389.59 420.84c.22-.17.41-.49.67-.34s.22.38.41.44.19-.26.36-.27a.72.72 0 0 1 .54.2c.05.06.05.2.14.29s0 .1-.06.11a4.2 4.2 0 0 1-1.06-.06c-.36-.03-.59-.36-1-.37zM383.41 412.61h-.23a.93.93 0 0 1-1.19.2c-.26-.14-.37-.66-.22-.76a1 1 0 0 1 1.45.48c.03.1.11.09.19.08zM384.78 412.67a1 1 0 0 1 .43.13v.12a.22.22 0 0 0 .29.11c.18-.14.38-.33.55-.21s.19.26.34.34a.19.19 0 0 0 .18 0c.17-.11.23-.37.43-.28s.46.32.69.2.19-.31.11-.38-.54-.13-.85-.19l-.38-.06a8 8 0 0 0-1.79.22zM388.27 418.14c-.33-.12-.54-.44-.86-.46-.11 0-.08.19-.05.2.26.14.44.39.73.46.02-.11.27-.17.18-.2zM389.41 414.91c-.5.1-.76-.64-1.16-.34-.19.14-.09.5 0 .69s.29-.06.5 0 .35.21.49.14-.08-.37-.23-.47M386.53 416.84h.12c.01 0 0 .2 0 .22.23.15.28-.07.31-.24s-.29-.12-.43.02zM386 417.52c-.12.05-.25-.13-.35 0s0 .08-.08.11a.6.6 0 0 0 .68.16c.03-.06-.13-.33-.25-.27zM388.17 417.26c-.17-.07-.25.17-.51-.26-.12-.19-.37.19-.22.3s.5.08.79.13c.08.01.11-.1-.06-.17zM380.09 417.34a1.52 1.52 0 0 0 .73 1.17c.17.07.19.33.4.46s.16.23.1.29-.46 0-.62.26c0 .07-.14 0-.15-.06-.08-.43-.21-.83-.69-1a.33.33 0 0 1-.14-.33c0 .06 0 .07-.06.06a.3.3 0 0 0-.25-.41c-.6 0-1-.46-1.46-.59-.7-.19-1.41.25-2.16.09-.47-.09-.5-.91-1-.72a1 1 0 0 1-.39.13c0-.16-.06-.29-.07-.44-.07 0-.14 0-.18-.06a.24.24 0 0 1-.08.23c-.28.15-.52-.16-.8-.17 0 .22-.21.18-.32.23s-.39-.31-.45-.25c-.3.3-.66-.19-1 0-.07 0 0 .18-.14.23-.36.16-.76 0-1.11.09s-.54.43-.4.7c.25.48.78.21 1.2 0 .19.6 1 .14 1.25.39.69.6 1.41-.37 2.12-.24.12 0 .07.24.2.28s.54-.22.72-.08a1.23 1.23 0 0 0 1.09.21c0 .2-.06.46.13.54a1.26 1.26 0 0 0 .94-.2.84.84 0 0 1 .62 0c0 .08.06.15.08.16.28.25.65 0 1 0s.67-.38 1-.59" transform="translate(-209.84 -265.5)"/><path class="cls-6" d="M379.53 418.41l-.36.16c-.21.09-.21.43-.16.64s.32.1.39-.06-.11-.26 0-.36.38 0 .45-.1-.26-.14-.32-.28zM375 418.47c-.08-.15-.26-.14-.37-.25.12.4-.34.33-.62.4a.29.29 0 0 0-.11.22c0 .34.45.3.85.34.11 0 .21.2.31.2.32 0 .45-.52.75-.49.1 0 .29-.08.38.08 0 0 .11-.09.11-.12a.35.35 0 0 0-.47-.27c-.4.17-.7-.07-1-.24M367.22 415.47c.13 0 .31 0 .34.07s-.13.5.05.73.49.1.73.21a.19.19 0 0 1 .06.21 1.44 1.44 0 0 1-1.07 0c-.33-.23 0-.73-.05-1.13h.19M369.41 415.78a1 1 0 0 1-.44.06v.16c.24-.09.48.25.67 0s-.08-.28-.23-.22zM370.72 415.22c-.16.15-.37 0-.48.08s.1.21.17.2c.28 0 .36.23.61.18s.19-.25.12-.39a.27.27 0 0 0-.42-.07zM373.16 414.41c.29.08.45-.18.69-.31h.1c0 .23 0 .5-.23.56a.94.94 0 0 1-.62-.06c-.16-.09-.2-.34-.44-.31.22-.16.47 0 .68.07M377.53 414.78v-.12c-.24-.33-.33.07-.61.14-.05 0 .1.09.06.17a1.09 1.09 0 0 1 .62 0c0-.06 0-.09.06-.13a.07.07 0 0 0-.06-.11s-.05.03-.07.05zM371.72 418.78a.55.55 0 0 1-.49-.38c-.05-.11.06-.21.1-.31s-.1-.25-.16-.22-.23.49-.51.29-.15-.7-.56-.56c-.05 0-.1.06-.06.12s.28.17.35.32-.43.3-.27.53a.37.37 0 0 0 .28.13c.26 0 .41-.32.68-.15a1 1 0 0 0 .64.23zM382 411.83c.1 0 .13.29.05.38a.9.9 0 0 1-1.08 0c-.21-.11-.44-.16-.64-.29 0 0 0-.13.06-.16a1.59 1.59 0 0 1 .81 0c.21.09.51.02.8.07zM367.59 418c-.06 0-.17 0-.17.06s0 .28-.09.37a.37.37 0 0 1-.56-.08c-.24-.43-.11-1.06-.5-1.46a.23.23 0 0 0-.23 0c-.2.15-.17.44-.45.48s-.42-.06-.53 0a1.53 1.53 0 0 1-2.1.23.24.24 0 0 0-.23 0c-.65.7-2.55.49-3.34.38 0-.46 1.13-1.33.63-1.39s-.87 0-1-.38a.59.59 0 0 1-.26.17c-.36.07-.71-.3-1-.17a6.13 6.13 0 0 1-4.32.48c-.31-.07-.79-.27-1.1 0-.07.06-.15-.07-.15-.12 0-.26.23-.41.43-.53a3.08 3.08 0 0 1 1.73-.57c.09 0 0 .19.13.22a2 2 0 0 1 .69.25c.15.09.24-.12.17-.23s-.16-.16-.23-.26a.07.07 0 0 1 .06-.11c.5 0 1 .32 1.49.14a1.79 1.79 0 0 1 1.12 0c.17.05.15.41.33.56s.18 0 .24.08a1.09 1.09 0 0 1 0-.56c.11-.26.48-.14.57 0s.37.43.53.36.34-.46.57-.37v.26c.31.21.13.58.41.79s.6 0 .86-.17.12-.39.34-.53c.07-.05.1.1.18.06 0 .28.28.57.48.51s.36-.41.64-.31 0 .37.2.4a2.17 2.17 0 0 0 1.16 0 .86.86 0 0 1 1.12.2c.08.1.3 0 .47-.08a.88.88 0 0 1 1 .57 1 1 0 0 0 .71.75z" transform="translate(-209.84 -265.5)"/><path class="cls-6" d="M368.47 418.22c.12 0 .29 0 .35-.09.23-.21.4-.6.77-.6-.14.15-.38.47-.07.44s.54 0 .59.2-.29.06-.45.12 0 .09 0 .11c-.19.16-.41 0-.62 0 0-.27-.19-.32-.37-.38M365.66 414.72c-.1-.12-.09-.32-.26-.37s-.26-.18-.35-.11-.21.3-.34.32c-.39.07-.78 0-1.1.24a.28.28 0 0 0 0 .28c.5.64 1.33 0 2 .35.15.07.32.15.44.08s.47-.43.35-.72a.42.42 0 0 0-.74-.07zM363.22 415.34a.49.49 0 0 0-.43.07v.11c.35.05.41.21.59.5 0 0 .18.06.21 0s-.1-.26-.17-.38M357.91 415.17c-.26 0-.49-1.07-.75-1.08v.17c0 .01.38 0 .53.17s.27-.23.37-.42-.06 1.16-.15 1.16zM359.91 411.11c-.36-.08-.73-.1-.88.31a18.88 18.88 0 0 1-2 0 5.06 5.06 0 0 1-1.54-.41c-.09-.05-.37-.39 0-.41a11.83 11.83 0 0 1 1.56.12c.11 0 .21.2.31.2a6.16 6.16 0 0 1 2.55.19zM362.85 410.9c.37.07.49.46.87.33a.2.2 0 0 0 .19.22 4.45 4.45 0 0 0 1.26 0c.49-.1 1 .16 1.49-.05-.36-.58-1-.1-1.49-.28a1.1 1.1 0 0 0-.39-.09 3.46 3.46 0 0 1-1.45-.24.49.49 0 0 0-.48.05.11.11 0 0 0 0 .06zM372.28 418.17c-.12 0-.18-.22-.3-.13s0 .12 0 .18c.2-.06.24.23.44.19-.06-.09-.01-.23-.14-.24zM365.9 417.59h-.12c-.04 0-.07.11-.06.18.22-.07.46.06.59 0s-.24-.32-.41-.18zM368.09 417.28a.42.42 0 0 0-.35.14c0 .06.09.1.17.11a.09.09 0 0 1 .06-.12 2.17 2.17 0 0 0 .37 0v-.1c0-.01-.16-.02-.25-.03zM369.33 416.71c-.08.05-.21 0-.29 0s0 .07 0 .11c.24-.13.65.36.65-.06 0-.07-.19-.17-.36-.05zM367.84 417.15c-.14 0-.22-.2-.36-.11s0 .09 0 .11.29-.07.44-.06a.52.52 0 0 1-.08.06zM358.58 416.83c-.09.07-.3-.3-.36.08.21-.05.41.1.62 0a.1.1 0 0 0 .07-.12c-.18.21.03-.24-.33.04zM359.53 417c0-.14-.17 0-.25-.06v.19c-.06 0-.11 0-.11.06a.12.12 0 0 0 .16.11.6.6 0 0 1 .52-.19s.09-.06 0-.1-.24-.06-.37-.07zM358.48 417.54s.17-.1.1 0-.39-.06-.49.19c.11 0 .1.11.13.11.44-.06.78.34 1.17.16.11-.05 0-.28-.13-.37s-.57-.33-.78-.09zM357.59 418a.58.58 0 0 0-.83-.56c-.14.09-.32.3-.54.25v.25a2 2 0 0 1 .69 0c.2 0 .45.06.68.07zM355.66 417.79v.12c0-.14.09-.05.11-.07a.18.18 0 0 0-.17-.27c-.43.05-.84-.21-1.17-.1a1.93 1.93 0 0 1-1.4-.07c-.33-.16-.22-.66-.57-.79a.75.75 0 0 0-.3 0c0 .09-.12.14-.06.18a1.25 1.25 0 0 1 .57.61c.15.39.7.85 1.15.71s1.29.22 1.9-.06a.09.09 0 0 0 .06-.12c-.14.07 0-.22-.12-.14zM351.34 417.53c0 .13-.24 0-.16.09s.42.39.56.25.4-.22.58-.37-.06-.28-.22-.21a.09.09 0 0 0-.07.12c-.33.06-.7-.23-.81.18zM349.28 417.84c-.58 0-.7-.51-.66-1s-.6-.14-.95-.24-.46-.3-.69-.22-.13.51-.39.64a.33.33 0 0 1-.24 0c-.32-.16-.09-.54-.1-.8s-.21-.18-.34-.25c-.05.22-.16.56-.44.49s-.16-.55-.29-.78c0-.08-.21-.31-.31-.19s-.15.22-.09.35c-.4.06-.73-.16-1.12-.18-.11.75-1 .23-1.5.39a.11.11 0 0 0-.06.16c.17.28.72.09.68.37s-.43 0-.6.11a.34.34 0 0 0 .05.56c.28.15.59-.37.85-.08a.16.16 0 0 1-.11.24c.2 0 .45.08.56-.13s-.12-.24 0-.37a.34.34 0 0 1 .42-.12c.4.09.64.44 1 .51a.25.25 0 0 0 .25-.27c.25 0 .52-.15.73 0s.52 1 1 .78c.24-.13.51-.48.84-.34s.58.64 1 .58c.12 0 .16-.17.11-.28s-.12-.12-.17-.2a.13.13 0 0 1 .06-.18M353.84 414.72l-.31-.13c0 .16.15.15.19.25.22-.09.33.29.48.16a.24.24 0 0 0-.05-.33c-.14-.1-.23-.2-.36-.07s.03.08.05.12zM353.16 414.66a.83.83 0 0 0 .31.43c-.58 0-1.28-.09-1.62.32s-1 1.09-1.68.95c-.37-.08-.51-.49-.73-.81s-.52-.06-.7-.14-.3-.55-.63-.41c-.09 0 .1.25 0 .32s-.27.22-.33.07c-.15-.41-.73-.91-.48-1.19s.42.24.67.41c.08.05.35-.17.43-.05a1 1 0 0 0 .48.32 8.09 8.09 0 0 1 .82.22c.8.2 1.58-.4 2.36-.37.34.01.77.16 1.1-.07zM350.91 417.72c-.29-.05-.42-.42-.75-.38.23.27-.3.31-.16.54a.32.32 0 0 0 .43 0c.16-.14.45.24.56.07.27-.42-.34-.38-.64-.48-.09 0-.08-.1-.07-.18M349.44 416.6c-.05-.15-.25-.15-.41-.07.19.18.26.47.49.4s-.04-.22-.08-.33zM347.41 415.59a.27.27 0 0 1-.07.12c-.11.08-.19-.1-.31 0 .2.11.38.31.63.3 0 0 .09-.08 0-.1s-.14-.24-.25-.32zM350.22 416.72a.09.09 0 0 0-.07-.12.39.39 0 0 0-.22 0c-.08.35.23.17.48.18v-.12z" transform="translate(-209.84 -265.5)"/><path class="cls-6" d="M345.47 417.84c.2 0 .4.05.48-.13s0-.32-.11-.33c-.35 0-.69.27-1 .13a1.32 1.32 0 0 0-.7-.17c.06.14-.14.14-.12.25a2.6 2.6 0 0 1-1-.12c-.11.46-.54.2-.87.26-.1 0-.06.11-.07.18.39-.05.75.18 1.12.15a1 1 0 0 0 .26-.07c.43-.14.84.26 1.23.13a7 7 0 0 0 1-.28M341.52 416.73l-.24-.07a.25.25 0 0 0 .31.25c-.02-.07-.03-.16-.07-.18zM341 417.1a.37.37 0 0 0-.36-.05v.17c.24 0 .39.14.58.23s.06-.1 0-.17-.17-.13-.22-.18zM342.47 415.72c.13.07.26.2.36 0s0-.16 0-.24a1.58 1.58 0 0 0-.56.13 1.39 1.39 0 0 1 .2.11zM345.86 415.15c0-.13-.21-.11-.2-.24-.1 0-.21.18-.17.22a1.67 1.67 0 0 0 .48.34c.03-.15-.08-.17-.11-.32zM333.91 414.85c.15.14.07-.84.14-.71s.21.14.28.06.38.85.64.91c0-.17-.2-.21-.26-.21-.32 0-.54-.19-.87-.23a.48.48 0 0 0 .07.18zM332.72 415.54a.36.36 0 0 1 .36.06c.25.21-.08.47 0 .66s.46-.1.61.05.07.25.12.32.43 0 .58.17a.26.26 0 0 1 0 .27c-.15.11-.44-.11-.5 0a.45.45 0 0 1-.54.27c-.3-.07-.41-.37-.63-.54s-.55.15-.8 0a.39.39 0 0 1-.19-.52c.11-.24.39-.17.61-.21a.38.38 0 0 0 .17-.11c.02-.18.05-.34.21-.42z" transform="translate(-209.84 -265.5)"/><path class="cls-6" d="M330.53 414.42c.21 0 .45-.12.55.13s-.18.22-.26.36 0-.93-.05-.82-.39.37-.48.63a.7.7 0 0 0 0 .25c.12-.05.2.08.31.06-.11.15.42.29-.25.44-.14.5.25.86.76.83a.23.23 0 0 1 .16.17c0 .24 0 .52.18.65s.37.13.51.25c.32.27-.3.43-.26.72s.16.45 0 .61-.18.05-.22 0a.6.6 0 0 0-.7-.17c.16-.51 0-1.15-.44-1.15s0 .8-.15 1.2a.33.33 0 0 1-.46.12.26.26 0 0 1-.06-.34c.1-.12.16-.28.09-.37-.32-.41-.71 0-1.1-.07-.17 0-.23-.44 0-.56s.25 0 .36 0-.07-.13.06-.11a6.78 6.78 0 0 0-1.31-.74c-.16-.06-.35 0-.49-.09a3.28 3.28 0 0 0-2.25-.46c-.29.05-.36.41-.59.51s-.82-.32-.62-.55c.42-.5 1.24-.25 1.89-.32.22 0 .4-.21.63-.28s.48-.07.58.08a1.94 1.94 0 0 0 1.37.72 12.7 12.7 0 0 1 1.73.38 5.39 5.39 0 0 1-.31-1.13h.11a1.45 1.45 0 0 0 .16-.68c.05-.35.48.74.57.44a2.5 2.5 0 0 1 .28-.62M340.44 416.06h-.24c-.38-.32-.39-1-1-1 .05.21.23.52.1.57-.49.19-1-.3-1.49-.37-.18 0-.88.07-.55.36s1.12.33 1.63.88c.19.22.73-.16.88-.08.7.35-.05 1.27.09 2 0 .16.36.2.42.1a1.05 1.05 0 0 0 0-.84.94.94 0 0 0 .67-1.12c0-.44-.57-.72-1-.88M336.57 416.46v.21c0 .02.35 0 .48 0s0 .18 0 .21.31 0 .32 0c.23-.53-.37-.52-.8-.42z" transform="translate(-209.84 -265.5)"/><path class="cls-6" d="M338.57 417c-.18.12-.41.21-.38.49a1.63 1.63 0 0 1 .88 0c.16 0 .11-.2.12-.34-.19-.05-.4-.35-.62-.15zM327.41 418.84c.25 0 .61.13.7-.14s-.52-.48-.89-.5-.31-.31-.12-.4.5.07.6-.15-.07-.23-.17-.3-.3 0-.43 0a1.79 1.79 0 0 0-.63-.24c0 .09-.11.12-.06.19s.27.23.22.37-.35 0-.37.08c-.11.36-.47 0-.54.3-.16-.12-.42 0-.46-.08a.51.51 0 0 0-.6-.35c-.2.06-.23.31-.39.41s-.69.07-1 .15.11.51.36.54.7.1 1.07.17.91 0 1.36.12c0 0 0 .2.07.2a2.21 2.21 0 0 0 1.43-.17v-.11M328 414.42a.8.8 0 0 0-.31 0c0 .14.2.12.31.12v.19c.09 0 .21 0 .24-.07s-.11-.2-.24-.24zM329.22 415.59a1.48 1.48 0 0 0-.31-.25c0 .07-.18.12-.11.18s.17 0 .22.08 0 .09 0 .11a.13.13 0 1 0 .23-.11h-.11zM329.53 414.85h.17c.09-.19-.16-.24-.23-.37 0 .2-.36 0-.3.24s.16.11.25.19.07-.05.11-.06zM338.79 414.71a.29.29 0 0 0-.32 0c.11.24-.18 0-.09.15s.38 0 .59 0v-.11c0-.01-.14-.01-.18-.04zM332.66 417.34c-.18-.08-.23.16-.38.13.16.11.34 0 .5.06 0-.08.2-.09.06-.18s-.13.01-.18-.01zM341.46 415.66a.25.25 0 0 0-.37 0h.18c.03 0 0 .11 0 .17a.12.12 0 0 1 .13.07c-.02-.09.16-.14.06-.24zM333.59 415.9c-.14 0 0 .1-.06.13a2.17 2.17 0 0 0 .5.13V416c-.17.07-.28-.1-.44-.1zM337.09 416.09c-.15.06-.28-.08-.43-.06a.64.64 0 0 0 .67.16c.09 0-.13-.06-.11-.16a.52.52 0 0 1-.13.06zM338 414.85a1 1 0 0 0-.74 0v.12a2 2 0 0 1 .81 0s-.01-.11-.07-.12zM347.23 415.13c-.24.05-.44-.14-.63 0v.12a4.65 4.65 0 0 1 .75.06c-.03-.09.06-.22-.12-.18zM351 414.59a.77.77 0 0 0-.69-.06 1.51 1.51 0 0 0 .88.16c.07 0-.14 0-.07-.1s-.12.02-.12 0zM344.15 415.41c-.24-.09-.33-.38-.61-.24v.1c.25.05.46.15.69.2-.03-.02-.05-.05-.08-.06zM338.29 416.59c0-.07-.05-.2-.12-.16s-.35-.12-.51 0 0 .09 0 .1c.23.1.5 0 .75.07-.05-.01-.1.01-.12-.01zM330.34 411.54c-.28.18-.95-.06-.86.3 0 .16.46.17.74.14s.81-.26 1.25-.33v-.09a4.84 4.84 0 0 0-1.37-.14M322.41 418.22h.06c-.15 0-.33 0-.42.08s.11.19.07.28-.37-.28-.53-.31c-.52-.08-1 .15-1.55 0a8 8 0 0 0-1.19-.11 1.5 1.5 0 0 1-.33-.12c-.33-.17-.65.26-1 .14-.15-.06-.27-.22-.43-.31s-.13.09-.2.08c.12 0 .3.11.22.23-.22.34-.82.2-1.05.06s.31-.72.6-1c.07-.08.28 0 .41-.05a1.37 1.37 0 0 1 .57-.1.29.29 0 0 0 .07.29c.23.15.49.52.69.29s-.38-.25-.51-.52c0-.09 0-.14.07-.18s.13 0 .17 0 .11-.26.16-.42c.09-.31.41.05.57-.05a.94.94 0 0 1 1.14.1c.14.11.58-.17.79 0s.48.12.78.14c-.06.44.38.67.67.79s0 .42-.15.59 0 .15 0 .23M322.72 416.78c-.15 0-.32.06-.43-.07s0-.15 0-.16-.35-.28-.29-.07.17.45.24.46a1 1 0 0 0 .68-.17v-.1a.17.17 0 0 0-.17 0s-.03.07-.03.11zM325.84 416.16c-.25-.24-.42 0-.68.06.22.1.46 0 .68.06 0-.04.02-.1 0-.12zM327.83 416.94c.05 0-.13-.11-.11-.22a1.34 1.34 0 0 1-.56.06c.23.04.46.22.67.16zM323.28 417.71c-.21-.09-.37.12-.56.07.24.14.51 0 .75.06v-.11c0-.01-.13 0-.19-.02zM321.41 415.22c-.27-.05-.79 0-.66.31s.39-.06.59 0 .24.08.3 0-.02-.27-.23-.31zM322.66 411.67a9.59 9.59 0 0 1-1.07.06c0 .08-.18.08-.06.19a1.2 1.2 0 0 1-.75 0c-.33-.07-.53.29-.82.32s-.6.27-.92.2a3.31 3.31 0 0 0-1.62 0c-.42.12-.78 0-1.21 0-.26 0-.21-.36 0-.42a18.79 18.79 0 0 1 3.06-.5c.61-.12 1.2.22 1.8.18a2 2 0 0 1 .68-.08c.09 0 .15.12.26.11M319.91 414.11v.48c-.22.33-.75.27-1.06.05s-.39.09-.6.15c.17.31.5.12.74.22a1.15 1.15 0 0 0 1.36-.42c.14-.21-.07-.29-.24-.41s-.15.11-.24.18M337.53 417.91c-.13 0-.3 0-.35-.08a.41.41 0 0 0-.46-.2c-.1 0 0 .27-.14.31s-.55.09-.62-.06c-.15-.34-.58-.46-.76-.3s.1.7-.18.77a11.82 11.82 0 0 1-1.79 0c-.19 0 .18.36.43.45s.36-.19.56-.16c.61.09 1.13.31 1.72-.09.29-.2.73.23 1 .08a1.44 1.44 0 0 1 1.3-.28.86.86 0 0 0 .55 0c.13 0 .08-.22 0-.29s-.31 0-.43.08-.56-.13-.86-.09zM319.78 415.7a.76.76 0 0 0-.49 0v.12c.23-.07.35.13.5.25.07-.07.21-.34-.01-.37zM308.27 417.08c-.34-.08-.29-.56-.45-.47-.46.27-.95-.14-1.28.26v.17c.11.23.55.18.46.43s-.24.34-.13.49.32.13.46.06 0-.28.2-.35.54 0 .82-.05c0 0 0 .09.06.1a.68.68 0 0 0 .25 0c-.05-.3.48-.27.35-.55a.3.3 0 0 0-.48 0c-.04-.12-.19-.07-.26-.09zM309.59 417.54c.05-.3.16-.66.4-.76s.21.41.42.41.14-.56.41-.36.1.58.38.43a1.63 1.63 0 0 1 1-.14c.24 0 .27.32.5.41h.24c.06 0 .2.25.11.34s-.27 0-.42 0c.12.24.4.16.54.28s.17.29.07.38-.43 0-.66 0-.21.12-.32.14c-.46.1-.94-.4-1.2-.12s-.37.69-.73.56-.12-.38-.18-.53-.48-.74-.81-.44c0 0-.07.2.05.22s.55.35.44.47c-.28.34-.78 0-1.2-.08v-.25c0-.07.27-.25.39-.35s-.27-.41 0-.56.38-.3.6-.2c-.05 0-.05.09-.03.15zM315.22 415.17H315a.44.44 0 0 1 .06.25c-.16 0-.34.08-.5-.06-.13.32-.22.46-.62.47-.07 0-.1.23.06.26.36.08.58-.34.94-.28.17 0 .31.17.5.17-.05-.31.31-.17.42-.32s-.06-.19-.05-.3h-.12a.09.09 0 0 0-.06.12c-.18 0-.41 0-.53-.23s-.23.05-.35.11M316.84 415.73a.15.15 0 0 0-.23-.17c-.17.18-.33.39-.58.23 0 .08-.1.21 0 .23a9.17 9.17 0 0 0 .92 0c.05 0 .05.12.08.16a.73.73 0 0 0 .73.18c.14 0 .09-.2.05-.29a.35.35 0 0 0-.35-.25v-.42c0-.08-.35 0-.53.12s-.09.15-.09.21zM314.66 417.17a.29.29 0 0 1 .49.06c0 .07 0 .15-.18.13v.12c-.16 0-.36 0-.44-.19.11.02.09-.07.13-.12z" transform="translate(-209.84 -265.5)"/><path class="cls-6" d="M315.47 417.23c.06.12.19.22.19.38h.18c.05 0 0-.08 0-.12.15 0 .38 0 .34-.09-.35-.41-1-.2-1.46-.53 0 .12-.08.25.12.37M311.28 415.67l-1-.63a.15.15 0 0 1-.13.17c-.51.16-.87-.14-1.32-.31-.27-.11-.61 0-.92-.29-.15.69-1 .16-1.5.44v.11c.6.32 1.21-.22 1.87 0 .05 0 .08.09.13.1s.37 0 .47 0a.85.85 0 0 0 .86.13c.3-.14.69.12 1 0 0 0 0-.08.06-.12-.27.07-.62-.23-.75.13M310.59 416.11c-.14-.09-.18-.26-.37-.19.07.17.3.09.35.2s.12.27.18.21-.07-.16-.16-.35zM312.91 416.11a.15.15 0 0 0-.13-.17c-.14 0 0 .14-.06.16s-.27 0-.37 0 0 .15 0 .15a1.33 1.33 0 0 0 .79 0c.11 0-.15-.09-.11-.22zM313.72 415.17a.43.43 0 0 0-.31-.06c0 .06 0 .09-.07.12.14.19.4.12.57.25.11-.2-.13-.25-.25-.27s0-.06.06-.04zM307.53 412.61c.28.1.54-.19.81-.05s.56.38.87.26.39 0 .56-.11.05-.39-.11-.37c-.41 0-.89.27-1.13 0s-.34-.35-.47-.23-.48.25-.7.42.17.15.11.29M306.53 418c.24 0 .46.14.45.31 0 .35-.57.1-.84.36 0 0-.16-.38-.23-.33a.93.93 0 0 1-.9.05c-.61-.23-1.34.22-2 0-.32-.11-.57-.86-1-.91 0 .09-.1.15-.06.25s.25.08.3.19-.05.34-.24.35a1.13 1.13 0 0 1-.66-.14c-.3-.19.2-.49 0-.78a.61.61 0 0 0 .24-.07v-.16a.42.42 0 0 1 .18-.14c.23-.06.4.14.62.12 0-.21.22-.05.25-.18a4.58 4.58 0 0 0 .2.67c.23.08.49-.17.74-.17s.52-.23.73-.06-.11.35 0 .44.31 0 .42 0c.4 0 .44-.27.51-.62 0-.08.14-.16.22-.11.27.18.32.64.64.64.13 0 .08.31.25.39a.69.69 0 0 0 .25 0" transform="translate(-209.84 -265.5)"/><path class="cls-6" d="M302.53 415.14c-.3-.39-.72-.83-1.11-.77s-1-.28-1.51-.25c-.15 0-.41.25-.12.39a1.81 1.81 0 0 0 .8.15c.31 0 .3.42.06.53s-.41.27-.75.23c-.15 0-.32.25-.22.31.37.21.73-.16 1.11-.32.09 0 .09.19.24.18a1.83 1.83 0 0 1 .74 0c.25.08.11.4.21.59s.15.2.23.17.41-.16.46-.08c.18.32.45 1 .8 1s.44-.53.65-.67 1.1.15 1.05-.41c0-.05-.23-.16-.39-.07 0-.09.07-.3-.11-.23s-.45-.06-.63.06a2.7 2.7 0 0 0-.54.68c-.05.06-.08.17-.16.22a.28.28 0 0 1-.18 0c-.37-.11 0-.51-.21-.65s-.39-.42-.61-.38c0 0-.09-.08 0-.1a.82.82 0 0 0 .33-.4c.13-.31-.25-.34-.46-.43M304.85 415.1c-.25-.09-.38.1-.57.14 0 .05 0 .11.07.12s.26.06.32-.11.07 0 .12.05a.06.06 0 0 0 .1-.05s.11-.11-.04-.15zM308.91 414.79c.14-.13.21-.35.43-.18v.11c-.24.08-.5 0-.75.14M316.34 412.79c-.13 0-.24-.11-.37-.06s-.09.1-.06.11.29.12.43.07 0-.07 0-.12zM325.28 415c-.12 0-.22-.24-.37-.06.21-.09.36.17.56.11 0 0 .06-.09 0-.1a1 1 0 0 0-.49-.2c.08.09-.14 0-.06.13M308.59 416.36c.05 0 .09-.11.06-.11s-.29.13-.43 0c0 .42.48.24.75.29 0 0 .08-.09.06-.16s-.16-.06-.25-.07M296.66 415.46c-.07-.12-.17-.3-.24-.28a1.15 1.15 0 0 1-.9-.16c-.19-.1-.62.08-.45.27s.56.23.83.32.3.66.64.75.09-.32.25-.39.5 0 .66-.16-.08-.27-.17-.26a1 1 0 0 1-1-.59s-.12 0-.17.06M297.53 416.89v-.12c-.14 0-.25-.26-.33 0-.13.37.38.08.58.24 0-.06.05-.1.05-.13s-.19-.13-.3-.12M301.21 417.09h-.11c-.03 0-.1.11-.06.17s.36.27.46.17-.22-.18-.29-.34z" transform="translate(-209.84 -265.5)"/><path class="cls-6" d="M300 415.09c-.08 0-.31-.32-.22.05 0 .19.22 0 .35 0 .04-.14-.06-.04-.13-.05zM302.72 414.64c.06-.17-.14-.24-.24-.17s0 .09 0 .1.25.41.37.41a.12.12 0 0 0 .07.13c0-.05.06-.1 0-.12s-.15-.52-.24-.53M295.28 415.57c-.1.13-.23-.09-.3 0s0 .08-.07.12.14 0 .12.12c.25-.14.43 0 .69 0s-.1-.07-.06-.15c-.19 0-.38-.16-.57.31M289.78 415.94c-.19 0-.3-.08-.47.1s-.57 0-.83.06-.1.38-.22.51-.51.49-.34.34c-.12.11-.14.43.05.45s.67-.57.82-.86.53-.08.82-.26c.13-.09.42.08.32.19a1.39 1.39 0 0 1-.9.47c0 .13 0 .3.07.36s.44-.19.68-.15.33.45.62.39c.06 0 .15-.05.18 0a1.38 1.38 0 0 0 .53.26 1.76 1.76 0 0 0 1.09-.08c.35-.14 0-.48-.23-.69.35-.31.91-.26 1.11-.7a1.33 1.33 0 0 0 .06-.86c0-.16-.23-.18-.35-.11s-.38.47-.64.58a.83.83 0 0 0-.54.44c-.09.23-.49.15-.69-.06a.25.25 0 0 1 .08-.32c-.06 0-.12 0-.12.06 0 .41 0 1.07-.48.76-.3-.17.31-.21.3-.45s-.35-.21-.58-.19-.21-.34-.5-.31M276.84 414.53c-.1-.18-.27-.4-.49-.29a.19.19 0 0 0 0 .15c.1.05.24 0 .37 0s0 .13.08.16.22-.17.15-.21-.08.12-.11.19zM275.84 414.41c.09 0 .06-.12.07-.19-.15 0-.24.13-.17.23s.33.09.48.21a1.39 1.39 0 0 0 .06-.13c0-.12-.16-.08-.19-.19M270 415c-.22.05-.6-.06-.57.12s.41.11.63.1c.05 0 .06-.17 0-.28s-.06.06-.06.06zM249.84 416.19c.18.07.29-.16.43-.1s.23.22.32.35c-.19.05-.41-.14-.53 0a.47.47 0 0 1-.57.12c-.22-.14-.35-.52-.63-.37s-.52-.2-.61 0 0 .53-.13.63c-.4.32-.91-.05-1.4-.14-.25-.05-.39.13-.57.23s-.37 0-.55 0-.5.41-.82.46-.84-.09-1.15.13-.4.43-.61.46a23.69 23.69 0 0 1-3.86 0c.05-.13.1-.3.2-.35s.43 0 .59-.06a4.13 4.13 0 0 1 1.77-.53c-.05-.12.11-.19.06-.31.29-.07.61.2.86 0 .05 0 0-.19 0-.29.24.09.54-.16.78.08s.39 0 .6-.13.32.1.49 0 .16-.1.25-.11c.45 0 .87.25 1.31.15.2-.05.25-.36.45-.45s.63 0 .92-.12.3-.27.51-.33.45.58.68.54.54-.49.87-.36.44.25.7.21a.72.72 0 0 0 .31.5" transform="translate(-209.84 -265.5)"/><path class="cls-6" d="M235.73 417.83c-.35-.32-.46-1-1-1 0 .25-.54-.29-.67-.17s.09.48-.26.75v.17c-.18 0-1.24-.91-1.44-1s0 .58 0 .72c-.52.1-.29.36-.71 0a.5.5 0 0 0-.46 0c-.18.08.07.35-.09.45s-.24 0-.36 0c.24.37-.25.3-.44.44a.69.69 0 0 1 .25 0v.12c0 .05-.23 0-.3.07s0 .15 0 .16a1.85 1.85 0 0 0 .74.11c.16 0 .31.26.5.26.44 0 .21-.53.36-.76s.52.14.65.4a.32.32 0 0 0 .42.11v-.15c.64-.2 1.14.22 1.75.36.09-.43.56-.1.79-.33.05 0 0-.15 0-.23a15.78 15.78 0 0 0 2.75 0c.08 0 .21-.15.32-.19a2.24 2.24 0 0 0 .72-.41c.16-.15.1-.43.15-.66-.12.05-.25-.11-.29-.05a1.62 1.62 0 0 1-1.27.67s-.08.09-.13.11a.86.86 0 0 1-1-.49c0-.1-.23-.1-.27-.05-.19.38-.34.92-.71.59zM221 417.34c.07-.1.17 0 .25-.06s0 .2 0 .24-.2-.08-.3-.11zM221 417a.7.7 0 0 0-.38-.06c0 .17.26.12.38.12-.05-.12-.21 0-.25-.12M218.47 416.39c.11 0 .26 0 .29.09s-.24.28-.35.11 0-.1 0-.11-.12 0-.18 0 .13-.11.24-.09zM223.66 417.1c-.17 0-.37-.06-.44.18.21 0 .41-.1.62-.06v-.12a.28.28 0 0 0-.18 0zM224.37 417.34a.18.18 0 0 0 .27.11.09.09 0 0 0 0-.16c-.13-.01-.29-.05-.27.05zM227.15 417s0-.14.13-.12c0-.14-.14-.16-.25-.18.09 0 .06.12.06.18H227s.06.12.15.12zM228.36 417.39a.33.33 0 0 1 0-.29c.06-.15.25-.07.27 0s0 .25.15.31a.32.32 0 0 1-.42-.02zM241.2 413.18c-.18-.3-.48-.1-.73-.16v.11c.23.09.36.56.57.71 0 0 .14-.36.18-.45s.04-.12-.02-.21zM233.79 415.9c-.12-.07-.22 0-.32 0v.1a.82.82 0 0 1 .44 0v-.12c0-.02-.09.04-.12.02zM240.34 416a2.13 2.13 0 0 0-.5-.11s0 .09-.06.1a.89.89 0 0 1-.43 0 1.52 1.52 0 0 0-1.63.31c.35.19.8-.13 1 .06s.53 0 .71.29.11.33.28.41.15 0 .17 0-.14-.19-.21-.31a.24.24 0 0 1 .17-.34c.37-.1.71.36 1 .12s.87-.47 1.22-.84c.07-.09 0-.22-.11-.22s-.14.23-.21.26a.68.68 0 0 1-.79-.22.51.51 0 0 1-.63.31zM246.16 414.36c-.18-.16-.38 0-.57-.07v.13c.23-.13.47.05.69 0 0 0 0-.08-.06-.1s-.08-.02-.06.04zM247.84 414.29c-.29-.1-.6-.16-.81.07.28-.06.48.09.75.11.06 0 .16 0 .12-.11s-.08-.09-.12-.13zM246.91 414.67v.11a1.14 1.14 0 0 0 .37 0l-.06-.12v.06c-.12 0-.25-.16-.37-.11s0 .07.06.06zM256.84 413c-.23-.1-.42-.3-.68-.25a.12.12 0 0 1-.07.13l.13.12h-.31a.12.12 0 0 1-.07.13 2.34 2.34 0 0 1 .69.18c.14-.22.36-.14.56-.14s.09-.13.05-.16a.28.28 0 0 0-.29-.07l-.01.06zM257.15 413.64c-.2.1-.4 0-.38.15s.38.33.39.12h.19c.14 0 .25-.24.16-.32a.39.39 0 0 0-.36.05zM267.16 413.62c.16 0 .32.19.23.29s-.25 0-.27-.05a.3.3 0 0 1 .22-.3M266.91 413.43a.1.1 0 0 0-.07-.12c-.2 0-.35.15-.56.12.15.2.29-.05.44 0s.18.19.3.12 0-.09 0-.11-.02-.01-.11-.01zM268.72 413.12a.51.51 0 0 0-.63.06c.4.17.8-.07 1.19 0M274.66 411.29a.41.41 0 0 0-.57 0c.19-.06.38.14.57 0zM275 414.54c-.25-.05-.37.2-.58 0s-.26-.15-.34-.07 0 .24.05.36c-.19 0-.25.22-.44.19 0 0 .08.1.13.12s.32-.1.49-.05.15-.91.22-.78 0-.13.22-.2c-.2-.07-.09-.26 0-.29a2.73 2.73 0 0 1 1 0c0-.07 0-.14.06-.18-.3-.08-.65 1-.88.84 0-.05-.16 0-.24 0M276 414.23h-.38c.09.23.39.08.57.13v-.12c0-.01-.19-.01-.19-.01zM279.84 413.73c.09-.11.06.9 0 .92-.38.09-1-1.5-.94-.79a.09.09 0 0 0 .12.06.1.1 0 0 0 .06-.13c.41-.11.59.28.94.38-.06.17.07.3.14.42s.19 0 .21 0 0-.3.05-.41.15-.32.08-.44-.17.1-.3.06 0 1-.12.94M255.72 413.47c-.1 0-.19-.12-.23-.05a.19.19 0 0 1-.21.11v.13a1.22 1.22 0 0 1 .63 0c-.02-.11-.16-.1-.19-.19zM257.65 413.42l-.12-.07c-.18-.07.16-.09 0-.13a1.21 1.21 0 0 1 .19 0 .09.09 0 0 1 .06.12c.06-.1.16 0 .25-.06s0 .16 0 .17-.25 0-.38-.03zM257 413.59c.08-.09-.14 0-.06-.12s-.19 0-.11 0a.42.42 0 0 0 .35 0v-.11c0-.04-.17-.07-.25 0M256.59 414.5a1.27 1.27 0 0 0-.43-.26c-.13 0 0 .15-.13.13.3-.13.27.29.56.23a.11.11 0 0 0 0-.1zM260.28 414.13l.06-.06c0-.11-.16-.05-.25-.06s0 .11 0 .11c-.19 0-.43-.05-.5.2.36 0 .71-.15 1.07 0 0-.24-.2.94-.32.82M220.66 416.46v-.11c-.19-.1-.41 0-.62 0 0 .11.07.12.13.12a.89.89 0 0 1 .62.07c.01-.14-.1-.05-.13-.08zM224.22 416.28c-.17-.15-.33 0-.5 0a.36.36 0 0 0 .56-.12c-.13 0-.24-.1-.37-.07M219.53 417.22c-.06-.07-.11-.15-.19-.18a.1.1 0 0 0-.06.12h-.12c.12.1.3 0 .43.12zM217.22 416.66c-.09-.2-.23-.25-.38-.07a.74.74 0 0 0 .38.07zM217.91 416.41c.07-.09-.14 0-.07-.13s-.09 0-.11 0 0 .1 0 .11a.69.69 0 0 0 .25 0 .12.12 0 0 1-.13-.07zM242.53 415.42V415c-.07 0-.1.12-.19.13a1.17 1.17 0 0 0 .28.27c.22.13.22-.5.18-.65s-.18.18-.33.25M246 416.11c-.09 0-.2 0-.19-.13a1.2 1.2 0 0 1-.54 0c-.14-.07.16-.09.11-.22.19.11.43 0 .62.13-.09.05 0 .11 0 .22zM265 414.46c.23-.2.53 0 .81 0 0 .07 0 .08-.06.07-.28-.03-.52-.2-.75-.07zM266.22 414.05a1.67 1.67 0 0 0-.38-.06.1.1 0 0 1-.06.13 1.67 1.67 0 0 0 .5 0s0-.06-.06-.07zM265.22 409.62c-.07-.1-.11-.21-.25-.18v.05c-.2-.1-.41-.46-.62-.37s-.17.24-.12.26a2.91 2.91 0 0 1 .94.35c.05 0 .15 0 .12-.11-.05-.36-.06.01-.07 0z" transform="translate(-209.84 -265.5)"/><path class="cls-6" d="M277.3 416.05a5.89 5.89 0 0 1 .36-.94c.14.13.27.31.5.31a2.13 2.13 0 0 1 0-.62c0-.15.16-.36.34-.24s.12.63.4.84c.12.1.28-.11.34-.07s.3.24.47.32a.38.38 0 0 0 .46-.15c0-.05.28-.07.31.05a1.55 1.55 0 0 0 .23.61c.26.32.54-.24.87-.26s.4-.17.61-.21.14-.4.23-.49c.31-.29.73-.08 1.09.15.2.14-.13.45.13.54s.38.25.47 0 0-.47.05-.67.65-.14.76.12-.26.21-.31.27a.73.73 0 0 0 .35 1c.12.06.14-.13.18-.14a1.1 1.1 0 0 1 .92.16c.22.19.86-.19.94.2s.15.41.49.62c.17.1.11.16-.05.2a4 4 0 0 1-1.43.15c-1-.13-2 .05-3-.08-.65-.09-1 0-1.52-.43-.07-.06-.2 0-.3-.09-.27-.12-.45-.05-.7-.23s-.57 0-.86 0-.37-.17-.57-.21a12.5 12.5 0 0 0-1.68-.42.393.393 0 0 1-.08-.29zM297 413.17v-.12c-.19-.17-.41.2-.62 0a.35.35 0 0 0 0 .12 2 2 0 0 0 .43 0c0 .06 0 .1.07.12h.12c0-.06 0-.09.06-.12zM298 413c.08-.06-.12.28 0 .21a.52.52 0 0 0-.25 0v.11c-.11-.12-.11-.3-.19-.34.1.17.29.14.44.06v.07l.12-.13zM293.29 416.48c.17-.05.22-.3.43-.26 0 .06 0 .09.06.12a.41.41 0 0 0-.19.13c.05 0 .1.07.06.12s-.24 0-.37 0-.01-.1.01-.11zM290.22 415.29c.23-.17.55-.38.7-.21s-.14.33-.39.26c0 .06.09.16.06.17s-.27-.14-.43-.1c.02-.05.03-.1.06-.12zM286.71 414.78c0-.11-.17-.11-.24-.19-.15.16-.21.24-.44.19v.12c0 .02.28.07.44 0s.18.09.3.05a.19.19 0 0 1-.06-.17z" transform="translate(-209.84 -265.5)"/><path class="cls-6" d="M285.28 415.59v.13a.28.28 0 0 0-.37 0c.2.17.48 0 .68.12.01-.21-.17-.17-.31-.25zM300.78 415.89c-.15 0-.14.13-.2.17s-.3 0-.49-.08-.53-.08-.5.23a6.53 6.53 0 0 1 1.25 0c0-.24.2-.11.3-.26s0-.18-.11-.24c-.11.16-.4.16-.37.43M306.53 415.54c-.2 0 0-.22-.19-.24s-.21-.33-.3-.29-.22.15-.12.21.3.28.41.35.26.14.38.08 0-.1 0-.17a.75.75 0 0 1-.18.06zM310.31 414.34c.18-.12.25-.51.52-.33 0 0 0 .19.08.2.27 0 .47-.15.7.13h.23c.07 0 .09.14.06.15a.81.81 0 0 1-.68-.16c-.13.19-.39.05-.55.15-.51.33-1-.32-1.45-.47.26.19.72-.1.87.32.04-.08.13.07.22.01zM312.29 415.23c-.09-.07-.18-.2-.25-.16s-.26.2-.45.16v.11c.29.07.58 0 .87 0 .02-.14-.12-.07-.17-.11zM316.16 418.61c-.07-.36-.17-.67-.51-.72-.12 0-.25.14-.38.19s-.47-.06-.58 0c-.43.31-.78 0-1.16.13a.46.46 0 0 1-.43-.12v-.11c0-.02-.08 0-.12 0s-.19.33-.05.41c.45.26 1 0 1.5.19s1.14-.1 1.73.03zM323.34 418.34a1.09 1.09 0 0 0-.19-.18c-.15-.09-.24.19-.35.1a.6.6 0 0 0-.7-.09c-.08 0-.15-.11-.11-.09.3.22.66.34 1 .55.17.1.4-.05.6-.1M329.91 418.53c-.27 0-.39-.22-.63-.31s-.15.24-.21.28-.5-.13-.71 0c-.05 0 0 .19 0 .28s-.15 0-.1 0c.45.15.88-.12 1.36 0 .11 0 0-.16.13-.12M332.35 418.35c.11-.05.25-.2.28-.17.3.3.63.11.95.3a.18.18 0 0 1 0 .16.83.83 0 0 1-.69-.15c-.17-.11-.37.08-.55 0s-.05-.1.01-.14zM294.47 413.17c-.2-.15-.43.12-.63-.06a.45.45 0 0 0 .63.06zM295.66 414.82a.55.55 0 0 1-.13-.44h-.18c-.05 0 0 .1 0 .11s-.19 0-.23 0 .08.14.11.15.35-.05.43.18zM301.47 414.14c.24 0 .15-.26.31-.31-.21 0-.42.1-.62 0 0 .08.1.11.06.19s.3-.06.31.12zM305.34 416.87a1.45 1.45 0 0 0-.62 0c-.09 0-.16.24 0 .23s.47-.01.62-.23zM329.34 412.11a.46.46 0 0 0-.34-.11c.07.08.17.21.34.11zM333.91 414.16c0-.31-.36 1-.56 1s.09-1.12.06-1c.13 0 .21-.05.32-.11s.16 0 .18.11zM332.47 415a.09.09 0 0 0-.07-.12c-.13 0 0 .08-.06.12s-.16-.09-.16 0 .15.06.23.12.14 0 .12-.18zM267.12 415.73c-.23-1.39.61-1.21 2-.81 0-.43-.12-.93.28-1.07 1.06-.36 1 1 1.73 1.32.24.09.34-.14.51-.21.33-.14.39-1 .56-.82.57.49 1.17.38 1.92.6.37.11.34-.66.21-.51a1.6 1.6 0 0 1-1 .53c-.74.13-1.45-.45-1.92.26-.31.48.46.44.73.63.44.31 1-.4 1.47-.54.86-.24 2.18.13 1.75.52-1.4 1.27-3.88 1-5.71.41-1.25-.42-2.29-.23-3.57-.56M384.09 418.23a3.2 3.2 0 0 0-.62 0c0 .07 0 .17.06.18s.41-.11.64.05c0 0 .08-.08 0-.09s-.04-.13-.08-.14zM388.34 418.72c-.11.2-.53-.07-.44.17s.4 0 .63 0zM390 413.93c-.13 0-.11-.18-.17-.12a.32.32 0 0 1-.39.05c.14.26.41 0 .62.12.01.02-.01-.06-.06-.05zM361.26 415.91a.34.34 0 0 0-.4-.22 1.06 1.06 0 0 0-.33.22c.22.18.48-.15.63.12.04-.03.11-.09.1-.12zM364.08 414.23c-.07-.05-.16-.08-.24-.14-.06.18-.27.07-.37.19.22.07.46 0 .62.13 0-.07.02-.15-.01-.18zM362.77 415.79c-.2-.18-.33-.11-.54 0s.15 0 0 .12c.15 0 .29-.1.44 0 .07-.05.11-.11.1-.12zM367.09 414.72c-.1-.26-.38-.09-.55-.05s0 .09.06.1.32-.11.49 0c0-.01.01-.03 0-.05zM353.91 414.28c-.26-.07-.36-.26-.62-.11v.1c0 .01.4 0 .55.14.02-.05.05-.09.07-.13zM351.78 416.53c-.16 0-.14-.22-.24-.17s-.23 0-.31.06 0 .1 0 .1a4.7 4.7 0 0 0 .75 0M386.69 419.31c.66-.15 1.32-.39 1.37.38a6.68 6.68 0 0 1-2.39-.33c-.41-.18-.89.05-1.35.14-.22 0 .38.45 0 .51a2.4 2.4 0 0 1-1.95-.49.57.57 0 0 1 0-.52 5.55 5.55 0 0 1 2.83-.07 7.82 7.82 0 0 0 2.4.38M213 416.74c-.07-.13-.25.11-.41 0 0 .06.07.18.11.11s.42.15.3-.11zM212.09 416.41a.54.54 0 0 1-.31.06.34.34 0 0 0 .48.15c.15-.1-.15-.09-.17-.21zM213 416.42a1 1 0 0 0-.31-.14 1.21 1.21 0 0 0 0 .19s.07.09.12.06.1-.09.11-.06.18 0 .14.12a.15.15 0 0 0-.06-.17zM214.17 416.23c-.07 0-.18.07-.2.18s.15 0 .19.06 0-.1 0-.12.1 0 .11 0-.04-.17-.1-.12zM214.78 416c-.09-.16-.21 0-.31 0 0 .23.18.17.31.11s.01-.04 0-.11zM215.84 416.09c0 .09-.12.06-.18.07.1.19.2-.06.31 0-.12 0-.1-.17-.18-.12s0 .07.05.05zM216.85 416.15c-.13-.07-.18 0-.26.07.13.17.25-.1.38 0v-.13s-.09.07-.12.06zM216.42 416.67c-.09.07-.28 0-.26.17.14 0 .3 0 .43-.12-.06-.02-.14-.07-.17-.05zM217.47 416.91h-.25a.17.17 0 0 0 0 .1c.1.06.17-.01.25-.1zM217.91 416c-.11.05-.36-.09-.28.11s.2.02.28-.11zM217.53 416.52c-.05 0-.08 0-.06-.11s.05.15 0 .25.11.08.16 0-.19-.12-.06-.24c0 .07-.02.11-.04.1zM218.59 416.16c-.13 0-.21 0-.31.12.13.01.2-.09.31-.12zM218.77 416.91h-.11c-.02 0 0 .1 0 .11a.68.68 0 0 0 .25 0c-.07-.02-.1-.02-.14-.11zM219.47 416.53c-.08 0-.13 0-.18.07s0 .08 0 .12.22 0 .31-.06a.74.74 0 0 0-.13-.13zM220.34 416.72c-.1-.06-.18 0-.24.07s0 .1.06.11.14-.1.18-.18zM220 417.22c-.1 0-.13.11-.06.18s.09 0 .12-.06c-.24.06.05-.15-.06-.12zM217.47 415.34c0-.07 0-.14-.06-.18s0 .09 0 .11-.09 0-.11 0 0 .1 0 .1a.75.75 0 0 0 .3 0l-.06-.13zM219.23 417.59v-.12c0-.04 0 .2-.13.19.1.08.25.09.29 0s-.11-.02-.16-.07zM221 417.28c.13 0 .06-.07.06-.12-.17 0 .07.17-.18.12 0 .1.07.14.12.19 0-.13.09 0 .12-.07s0-.08 0-.12.14.08.12-.06M222.41 416.91c-.15 0-.3-.12-.44 0zM223.4 416.79c-.07-.06-.35.07-.37-.13.06.27.41.09.5.31a.59.59 0 0 0-.13-.18zM222.34 414.91a1.89 1.89 0 0 0-1 .12h.94c-.02-.03.02-.09.06-.12zM223.59 415.22s.11-.35 0 0c0 .06-.17 0-.28 0s0 .09-.06.12c.15 0 .28-.1.44-.06zM216.59 417.1a.17.17 0 0 0-.22.06c0 .13.14 0 .22.06s.02-.1 0-.12zM213.48 416.15c-.08-.13-.18 0-.26-.06.12.2.23.15.44.13a.18.18 0 0 1-.18-.07zM228.41 414.68a.29.29 0 0 0-.32.06c.11-.02.23.06.32-.06zM230.78 417.22h-.56c.19-.08.37.14.56 0zM228.47 416.41c-.13 0-.33-.15-.38.12a1.07 1.07 0 0 0 .44-.06s-.04-.06-.06-.06zM225.28 416.6a.36.36 0 0 0-.37.06c.14 0 .29-.08.43 0-.02-.02-.03-.05-.06-.06zM226.53 417v-.12c0-.02-.15.07-.24.06.05.17.2-.08.24.06zM226.66 417.66l-.07-.13c0 .14-.12 0-.11.06a.21.21 0 0 0 .3.12.14.14 0 0 0 0-.11h-.18zM221.59 417.84c.1-.09.18-.16.31-.12s0 .13 0 .18.23 0 .3.07 0 .12 0 .19c-.21-.06-.52 0-.65-.24h-.23M218.34 417.53a1.19 1.19 0 0 1 .75-.19.12.12 0 0 0 .07.13 6.6 6.6 0 0 0-.89.14c-.14 0 0-.16 0-.27h.13c.08 0 .12-.35 0-.47s-.08.26-.28.16c0 .17.25.08.25.25a.31.31 0 0 0-.19.06" transform="translate(-209.84 -265.5)"/><path class="cls-6" d="M218.34 416.59a1 1 0 0 1-.62.13v.19c-.14 0-.25 0-.38.06a.53.53 0 0 0 .38.11c.2 0 .31-.23.5-.29s.3 0 .43 0 0-.11-.05-.1c-.33.11-.75-.14-.88.24M223.72 416.53a9.14 9.14 0 0 0-1.38-.18s-.08.1-.06.1c.23 0 .48-.12.68 0s.55.4.76.08zM231.53 417.09c-.12-.18-.2-.07-.32 0s-.41-.14-.61 0c0 0 0 .14.06.16.35.11.79-.23 1.06.07M230 417.52c-.15 0-.33 0-.43.14a7.41 7.41 0 0 0 .94 0v-.11c-.21.16-.36-.09-.51-.03zM230.28 418a.57.57 0 0 0-.44.06c.23 0 .47.09.69-.06zM232.47 416.34a.8.8 0 0 0-.75 0c.22.24.57 0 .87.07zM236.72 416.41v.12c-.06-.11-.17 0-.25-.06s0 .09 0 .12.24-.2.36 0l.07-.12zM238.27 416.79c-.12-.16-.34 0-.49-.13.07.25.41.08.5.31.14-.06.02-.14-.01-.18zM225.9 417.36c-.12-.06 0 .1-.06.1s-.15-.19-.3-.11-.07.1-.06.11a.37.37 0 0 0 .48.05s.04-.13-.06-.15zM227.47 417.78v-.12c0 .15-.13 0-.19.06a.27.27 0 0 0-.31-.11v.11c.33-.12.6.28.94.12-.26.12-.35-.37-.63-.18M225 414.86c-.2-.14-.41.34-.63.25 0 0-.08.08-.05.09.2.06.42-.31.62-.22.06-.06.06-.09.06-.12zM230.07 416.35c0-.15-.23-.08-.27 0-.24.21-.48 0-.71.15s0 .17-.12.2c.33 0 .53-.23.87-.22.06-.04.24-.04.23-.13zM228.15 417.1a.21.21 0 0 0-.24.06v.11c0 .01.28-.1.43-.11-.05 0-.12.09-.18 0s.01-.05-.01-.06zM229.59 417.22s-.08-.07-.06-.13a2.1 2.1 0 0 0-.5 0v.11a.92.92 0 0 1 .63.06zM233.21 416.92a1.28 1.28 0 0 0-.62-.07s-.08.09-.05.1c.24.05.45.06.69.11.08.03.04-.12-.02-.14zM240.47 414.32a4.73 4.73 0 0 1-.75.05c.21.23.58 0 .87.06-.04-.04-.08-.11-.12-.11zM241.47 416.54c-.11-.2-.2 0-.32 0s-.09.1-.12.17a1 1 0 0 0 .62-.14v-.11M243.47 415.73a4.7 4.7 0 0 1-.75 0c0 .12 0 .35.17.23s0-.09.08-.1c.21 0 .44.05.61 0s-.13-.03-.11-.13zM244.47 416c-.13 0-.27-.09-.38.05h.44s-.04-.05-.06-.05zM245.53 415.11a1 1 0 0 0-.94 0c.32.14.63-.05.94 0zM245.21 415.55a.82.82 0 0 0-.49-.07c.11.21.35.08.5.19 0-.04.01-.11-.01-.12zM246.34 415.23c-.11 0-.14-.17-.24-.11s0 .07 0 .11a.78.78 0 0 0-.37.06s.08.07.06.13c.21.04.34-.21.55-.19zM243.6 415.1s-.1-.08-.11-.05-.14 0-.13.05c.06.21.19-.05.3 0zM241.9 414.43h-.22a.74.74 0 0 0 .23.61 6.05 6.05 0 0 0-.01-.61zM239.35 413.31c-.19 0-.43 0-.54.08s.11.09.15.07.32.05.44 0-.03-.15-.05-.15zM237.28 413.79c0-.1-.1-.16-.12-.16-.25.05-.46-.08-.69 0-.05 0-.1.08-.06.11.3.18.63-.06.93.07zM238.22 413.79c-.11 0-.14-.12-.18-.1s0 .13.06.16.09-.01.12-.06zM238.46 413.6c0-.05 0-.07-.05-.06s-.16.07-.06.11a1.17 1.17 0 0 0 .56 0c-.18 0-.33-.08-.5-.06zM236 413.92c-.07.07-.18.06-.26.11s-.41 0-.62 0v.18a.23.23 0 0 0 .3.06 1 1 0 0 1 .57-.11zM236.91 414.23c-.2 0-.39-.09-.57.06a1.11 1.11 0 0 0 .57-.06zM237 414c-.09 0-.12-.11-.19-.14v.14c.19-.05.31.18.5.13-.04-.13-.18-.13-.31-.13zM235.6 414.48c0 .13-.21.11-.19.25.12 0 .35.06.33-.05s0-.21.1-.32c-.11-.02-.21.01-.24.12zM234.66 414.17c0-.34-.33-.29-.51-.43s-.15.07-.11.09a2.5 2.5 0 0 1 .62.34zM233.28 414.29l-.37-.06c.15-.05.29.13.43 0s0-.09-.06-.1a1.08 1.08 0 0 0-.31 0M232.78 414.61a.37.37 0 0 0-.43-.18v.1s.29-.01.43.08zM233.23 416.23a.74.74 0 0 0 0 .3c.17-.15.29-.2.19-.44-.06.07-.16.08-.19.14zM234.66 414.54c-.12 0-.22-.09-.31-.05s0 .07 0 .12.23.09.31-.07zM231.78 414.36v-.13a3.75 3.75 0 0 1-1.25 0v.19c.52-.1 1.05.06 1.56-.06M220.34 417.78l-.12-.19v.23c0 .02-.23-.09-.37 0a.3.3 0 0 0 .32.19c0-.08 0-.16.06-.18s.22 0 .3 0 .06-.3-.11-.35v.18c0 .05-.08 0-.12 0zM222.72 417.54c-.19-.18-.38 0-.56 0 .13.23.43 0 .62.13a.34.34 0 0 0-.06-.13zM224.78 418.09a.35.35 0 0 0-.43-.23v.16c-.25.25-.46.08-.74.07.18.26.55 0 .82.13 0-.14 0-.28.18-.25M226.53 414.92h-.17c-.02 0 0 .2 0 .22s-.37 0-.46.05 0 .41.16.52c.07-.23.35-.33.43-.49s0-.13 0-.18.07 0 .11 0 0-.09.07-.12zM219.78 415.16c-.21-.13-.87-.51-.74-.23a.7.7 0 0 0 .8.35.45.45 0 0 0-.06-.12zM219.23 416s0-.08-.07 0 0 .09 0 .11-.08 0-.12 0a1.12 1.12 0 0 1-.06.44h.25a1.86 1.86 0 0 0-.1-.2c-.08-.18.3-.08.29-.3-.08.03-.16-.05-.19-.05zM222.09 416.84v.07c-.22-.07-.42-.1-.43-.38 0 .07-.14.08-.18.13s.18 0 .11.18c.17-.07.34.26.5 0zM221.87 417.3c-.11.18-.31.18-.37.31s.15.22.18.15.32-.13.41-.35c-.09.04-.09-.27-.22-.11zM224.34 417.09a.31.31 0 0 0-.06-.43v.11a.69.69 0 0 1-.25 0 1.17 1.17 0 0 1 .38.5c0-.13-.11-.24-.07-.37M226.59 416.34c0-.1.1-.36-.11-.27s-.22.05-.25.15a1.08 1.08 0 0 0 0 .31c-.09 0-.17.07-.11.1s.32-.07.32-.29c0 0 .09-.07.16-.06v-.12M225.59 417.16a2.26 2.26 0 0 0-.69-.18s-.08.09-.05.09a2.68 2.68 0 0 0 .74.09zM230.53 416.28c-.11.09-.15.33-.37.19.05.16-.19.24-.11.36s.14 0 .15 0a.45.45 0 0 1 .46-.17c0-.14.09-.24.06-.38 0 .12-.19.06-.19.19M233.78 417c-.1.09-.14.23-.25.31.07.07.16-.37.21-.42s.18.26.35.16v-.11c-.16.1-.29.2-.5.06v.12M233.09 416.09c-.13-.1-.06-.48-.28-.33s-.42-.09-.31.13.5-.11.59.2zM235.41 416.22c0 .15-.14 0-.19.06.15.15-.08.38.11.33s.2-.26.39-.2v-.12a1.5 1.5 0 0 0-.37 0zM237.53 417.26c-.09 0-.17-.15-.25-.23-.08.09.15.08.06.1s-.42-.08-.36.21c0 0 .08.07.11.05s.3-.17.34-.09.35.55.59.45c.09 0 0-.24-.18-.22v-.11s-.17-.15-.31-.16zM235.91 417.41c-.13 0-.24.1-.38.06s0 .16.07.18.35-.12.56-.18a.45.45 0 0 0-.32-.06zM227.72 414.56c-.12 0-.27.38-.36.45s.08-.25.1-.28.23-.04.26-.17zM229.09 414.24c-.11-.05-.07-.28-.24-.23s-.07.06-.13.05a.08.08 0 0 0 .06.11 1.32 1.32 0 0 1 .69.06c0-.14 0-.23-.19-.25M247.66 412c-.06 0-.12-.07-.19-.06.17.08.3.52.5.55a1.15 1.15 0 0 0-.31-.49zM250.28 415.92l.69-.31c0 .09-.16 0-.19.12a.76.76 0 0 0 .58-.16c.07-.06.24.09.28.07.24-.11.43-.74.75-.45.11.1-.2.22-.09.34s.25.05.34.1c.27.17-.09.18-.15.36 0 0 .07.07 0 .11-.26.28-.52-.12-.74-.12s-.22.42-.5.5-.41-.29-.37-.56a.25.25 0 0 1-.25-.07.11.11 0 0 1 0-.11c.09-.07.22-.05.31-.13M253.84 415.23a1.11 1.11 0 0 1-.75-.12c.21.23-.1.25-.13.44s.31.12.43.26-.19.19-.09.28a.34.34 0 0 0 .29.12.77.77 0 0 0 .38-.29c.13.18.34.23.51.36s.2 0 .22 0c.15-.26-.31-.29-.29-.55.16 0 .3-.11.22-.23s-.21-.16-.14-.25.29-.52 0-.64c0 .12 0 .3-.09.34-.26.21-.64.18-1 .28M252.72 411.29a1.67 1.67 0 0 0-.5 0c-.05 0-.09.1-.06.11a1.6 1.6 0 0 0 .81-.05c-.1.06-.14-.06-.25-.06zM254.71 410.53v-.1c-.36-.09-.72-.37-1.05-.26-.13 0 .07.2.12.23s.23-.06.37 0 .31.31.56.13zM254.4 411c-.06 0-.19-.08-.22 0-.17.27-.54 0-.65.33.44 0 .77-.4 1.19-.09V411a1.75 1.75 0 0 0-.32 0zM256.22 410.88a.08.08 0 0 0-.06.11c-.17 0-.34-.17-.5 0 .24.14.64.12.71-.13s-.09 0-.15.02zM243.93 416.37c.11.05-.12-.16 0-.26-.11 0 0 .18-.12.11a1.75 1.75 0 0 0-.51-.22s-.09.08-.05.09zM242.72 416.61c0-.26-.3-.27-.45-.43s-.1 0-.1.05c.07.25.44.13.55.38zM241.09 417c0-.15-.39-.07-.62-.1 0 0-.12.09-.11.1.14.26.64.28.73 0zM241.54 415.06c-.08.22-.45.44-.42.67 0 0 .1 0 .15-.07s0-.07 0-.12a.41.41 0 0 0 .31-.48zM239 414.18c-.27-.05-.55.39-.81.29s-.19-.28-.38-.23c0 0 0 .07-.06.12s.12.11.19.11a1.33 1.33 0 0 1 .82.19c.06 0 .16-.29.24-.29M256.34 415.23c0-.06 0-.15-.07-.17s-.31 0-.4.07.12.16.15.14c.25-.14.41.17.63 0v-.11c-.17.08-.34-.14-.5 0M257.47 415.11l.37-.32v.12c0 .01.26 0 .38-.09a1.54 1.54 0 0 1 .61 0c-.12.26-.4.18-.62.19 0 .11-.07.12-.13.12s-.18-.13-.31-.12M259 414.36a1.52 1.52 0 0 0-.81-.3s-.07.08-.06.1.34 0 .51.17.2.03.36.03z" transform="translate(-209.84 -265.5)"/><path class="cls-6" d="M224 417.84a.55.55 0 0 0 0-.18c0-.05-.08-.1-.1-.06s-.2.08-.2.18.28 0 .25.19c.05.03.05-.08.05-.13zM225.34 417.78l-.62-.19a2.36 2.36 0 0 0 .5.38c0-.23-.19-.29-.31-.44M220.41 414.66c0 .16-.2.22-.32.31.27.16.55-.08.82 0 0-.07 0-.19-.06-.17-.34.06-.53-.37-.88 0M221.47 414.66a1.34 1.34 0 0 1 1-.16c.1 0-.13.18-.05.18a2.51 2.51 0 0 1 1 .29c0-.22.2-.29.32-.35s.33-.05.65.18.63-.1.71-.51c-.47-.1-1 .24-1.42.17a5.35 5.35 0 0 0-1.14-.22c-.06 0-.11.13-.19.15-.29.07-.69-.05-.88.27zM226.16 414.67a2.41 2.41 0 0 0-.38 0c-.13 0-.07-.1-.05-.13a.37.37 0 0 1 .24-.12c.28 0 .54.23.8.15s.55-.44.83-.5.06.25.18.27c.28 0 .48-.19.74 0v.1a8.34 8.34 0 0 1-1 0c-.08 0-.16.21-.25.2-.26-.05-.5.12-.74 0s-.67-.27-1 .13M236.59 413.73c-.08 0-.16.09-.24.06-.28-.13-.49-.41-.81-.17v.1c0 .01-.26 0-.37 0s0 .09 0 .11a.49.49 0 0 0 .48 0c.35-.14.66.09.94-.1zM218.91 415.34a.76.76 0 0 0-.25-.06.22.22 0 0 0-.19-.29 4.26 4.26 0 0 1-.94-.07s0 .1-.06.1c-.32 0-.76-.09-.87.06-.37.52-1.08.07-1.48.26-.1.05.15.31.35.25a3.73 3.73 0 0 1 .38-.15c.35-.06.7 0 1.06-.05 0 0 .08-.09.12-.1.34 0 .63-.13.94-.15s.44.15.69.14M220.6 415.37h-.44c0 .11.14.11.18.18.16-.31.61 0 .75-.37-.17.04-.31.17-.49.19zM222.72 415.41c-.23-.18-.2 0-.38 0h-.37c-.12 0 0 .07 0 .11.27 0 .52-.19.81-.12zM231 413.92a.34.34 0 0 0-.24-.15c-.32.05-.51.37-.88.27 0 .09 0 .23.07.23.31 0 .73.06 1-.28h.17-.12zM232.91 414c-.22.06-.45-.2-.62 0 0 0 0 .08.05.12s0-.13 0-.19.19 0 .17-.19c.26.15.69-.14.72.19 0 .18-.3 0-.28.38M234.16 414.17c-.22-.11-.47-.09-.69-.19.13.11 0 .21 0 .31a2 2 0 0 1 .69-.12zM238 413.23c-.05-.15-.23 0-.35-.16s-.3.18-.52.18c-.06 0-.18.1-.11.15a.36.36 0 0 0 .29 0s.08-.09.13-.11.22.05.32.09.3 0 .12-.22zM241.16 412.52a.68.68 0 0 1-.25 0c-.15-.07-.32.12-.45.1s-.45.19-.68.16c0 .07 0-.14-.06-.12a1.69 1.69 0 0 0-.55.23c-.07 0 0 .18.12.21s.29-.21.44-.3.24-.19.36-.15 0-.16 0-.17c.21-.09.45.07.68 0M244.34 412.79a.38.38 0 0 0-.25-.23c-.37-.1-.71-.39-1.05-.24v.1c-.32.16-.57-.32-.7.08h-.11c.08.12.21.06.31 0s.12-.13.19-.16c.23-.07.48.35.7.29s.78.14 1.17.11" transform="translate(-209.84 -265.5)"/><path class="cls-6" d="M244 413.32c-.27 0-.54-.73-.81-.56.29.09.59.46.87.56zM246.78 412.84a.67.67 0 0 0-.81-.22c.27.06.54.17.81.22zM248.59 411.63v.06c-.06 0-.08-.15-.13-.17s-.22.11-.37 0-.09.06-.12.11a9.6 9.6 0 0 1 1.06.25.92.92 0 0 0 0-.17c-.24-.07-.48-.23-.75-.08M250.41 411.69c-.21.14-.49.15-.63.38.22-.18.57-.06.74-.32.01-.02-.13.08-.11-.06zM246.47 415.48c.21.07.46.09.37.38.12-.06.28.1.38-.07-.16 0-.22-.08-.19-.25-.07 0-.13-.05-.19-.05s-.08.06-.06.12M246.72 414.79c-.18 0-.2-.08-.31-.18a.4.4 0 0 0 .37.37c-.08-.04-.07-.11-.06-.19zM225.72 418a1.87 1.87 0 0 1 .38-.24s.07.1.06.1c-.23 0-.41.17-.63.14M227.59 417.16h.12a.64.64 0 0 0 0-.24c.06 0 .09 0 .12-.07.24.25-.21.3-.25.5M227.09 417.22h.07a1.27 1.27 0 0 0-.88-.44.44.44 0 0 1 .4.26.62.62 0 0 0 .23.3v-.06M223.09 417.28c0-.15-.07-.25-.12-.37-.06.07-.08.16-.19.18.14.3.48-.06.62.19 0 .06 0 .1-.06.13M217.09 417.47c.06-.19.22-.44 0-.56.14.1.44 0 .42.24 0 .08-.19.09-.22.2s0 .14.05.18M216 417.09a.33.33 0 0 1-.06-.37c-.15 0-.3-.18-.44 0 .3.12.31.44.44.69" transform="translate(-209.84 -265.5)"/><path class="cls-6" d="M230.41 418.28v-.23c-.25-.23-.51 0-.8 0s-.32-.38-.38-.28c-.19.37-.53.05-.79.18a.23.23 0 0 0-.08.23 3.23 3.23 0 0 0-.87.1c-.29 0-.32-.28-.56-.41a.13.13 0 0 0 .05-.18c-.06-.11-.14-.23-.3-.2.11.15-.42.29.25.44a1 1 0 0 1-.81.14c-.61-.06-1.43-.61-1.94-.14 0-.08-.15-.05-.17-.08-.2-.27-.38-.63-.69-.45-.06 0 0 .3 0 .38-.36.36-.87.08-1.29.08h-.75s-.08.07-.13.11a.61.61 0 0 0-.56-.38c0 .14-.15.17-.21.22-.25.2-.6.08-.91 0 .14 0-.19-.22.06-.25-.08 0-.19-.1-.24 0a.87.87 0 0 1-1 .14c-.08 0-.23.11-.29.07-.66-.38-1.42-.15-2.06-.25a2.54 2.54 0 0 1-1-.53v.12a2 2 0 0 0-.63-.1s0 .06.06 0c-.16.22-.58-.14-.58.19a.45.45 0 0 0 .34.35 2.88 2.88 0 0 1 1.45.39 9.49 9.49 0 0 0 1.5.66 2.94 2.94 0 0 0 1.29 0c2.44 0 4.87 0 7.31.19 1.13.1 2.25.19 3.38.24a1.49 1.49 0 0 1 1.19-.47c.08.06.16-.12.16-.28z" transform="translate(-209.84 -265.5)"/><path class="cls-6" d="M215 417.22c0-.11-.06-.26-.14-.29a.66.66 0 0 0-.55.09c-.15.06-.18-.16-.31-.18a.09.09 0 0 1-.07.12c-.42.07-.82-.08-1.24 0v.04c-.19-.18-.17-.45-.44-.49a.08.08 0 0 0-.06.11.9.9 0 0 1-.75-.18 5.71 5.71 0 0 0 1.89.83 3 3 0 0 0 1.36 0M250.47 415c-.3-.17-.57 0-.88.06.28-.13.66.19.88-.06zM251.32 414.68c-.14-.21-.41.11-.6-.07v.11c.21.08.55-.11.69.14.03-.09-.06-.13-.09-.18zM251.09 415l.07.07h-.32c.08.27.32.09.5.12h-.24c-.06 0-.01-.08-.01-.19zM255.41 415.29c-.11 0-.24.08-.32-.06 0 .23-.36.34-.11.55a.12.12 0 0 0 .18 0c.1.06.05.22.18.25 0-.31.33-.23.56-.26s.18-.18.12-.21c-.22-.12-.46-.21-.68-.34zM255.28 414.54c-.17 0-.28.1-.43.14a.31.31 0 0 0 0 .11 1.46 1.46 0 0 1 .69 0c0-.08.05-.19-.06-.25M253.16 414.35v-.06c0-.06-.13.1-.18.06s-.27-.25-.38-.05a.08.08 0 0 0 .06.11h.3a.42.42 0 0 0 .32.1c0-.06.05-.09.05-.12s-.11-.02-.17-.04zM252.74 415c0-.07-.12-.1-.08-.18s0 .09 0 .11-.09 0-.11 0 0 .07 0 .12.09 0 .13.05.08.04.06-.1zM260.53 414.91h-.25a.58.58 0 0 0 .65-.22c.08-.13.16-.25.29-.26s.32 0 .49 0 0-.12 0-.16c.22-.26 1-.06.65-.48-.24-.26-.75.14-.88-.29 0-.14.15-.28.29-.35s.55.21.68-.14c0 .08.25.16.31.16a1.49 1.49 0 0 1 1.27.44c.34.41-.36.41-.56.72s.23.17.28.31.06.3-.06.34a13.51 13.51 0 0 1-1.57.09 1.57 1.57 0 0 1-1.31-.29.16.16 0 0 0-.24 0M266.09 412.46c-.49.17-1.27-.15-1.62.31.34 0 .61-.53.95-.25a.24.24 0 0 0 .23 0c.14-.08.15.1.13-.06-.06.09-.12-.2-.19 0M264.72 410c-.19.19-.56.19-.56.56.25-.18.47-.07.74-.2s.28-.32.12-.39a.46.46 0 0 0-.61.16M259.6 414.63c.75.09-1.63-1.44-.76-.72.26 0-.07-.11.07-.05a.44.44 0 0 0-.17.55c.07.19.38.42.45.57s0 .38.05.54a.39.39 0 0 0 .52.11c.2-.13-.08-.4 0-.59a.19.19 0 0 1 .24-.04c0-.21 0-.46-.2-.54s-.13.18-.2.17zM260.53 410.42c-.16.09-.3-.2-.42-.05s-.27.12-.18.22.52 0 .79.08v-.12c0-.2-.19-.1-.3-.07zM262 409.61c-.15.13-.23.13-.32.3h-.11a.11.11 0 0 0 0 .11s.14.1.16.06c.13-.24.45-.28.49-.5s-.22-.02-.22.03z" transform="translate(-209.84 -265.5)"/><path class="cls-6" d="M261 413.91a.27.27 0 0 0 .05-.3c-.08-.08-.37.1-.27.21s.27-.08.43.07 0-.06 0-.11-.16 0-.12-.12M266.09 414.47c.19.12.43-.12.45-.05.13.42.51 0 .72.25.1.13-.07.23-.17.28s-.2-.05-.25-.17a.79.79 0 0 1-.43.06c.04-.15-.02-.57-.32-.37zM267.72 413.34c-.14 0-.23-.19-.37-.17s-.08.18-.05.22.36 0 .44.26h.15c.02 0-.06-.27-.23-.24zM270 413.16c0-.08-.14-.1-.17-.06s-.25.27-.19.42.11 0 .17 0 .06-.12.08-.18.23 0 .35 0 0-.13 0-.16a.46.46 0 0 0-.43-.07.09.09 0 0 0-.06.12M274.22 410.53c-.3.07-.68-.17-.88.25a1.76 1.76 0 0 1 .88-.06zM274.91 410.78c-.11 0-.2.09-.32.06 0 .15.48.14.57-.06zM273.41 414.16a.45.45 0 0 0-.63.06c.25.14.56-.13.75.12.02-.1-.07-.13-.12-.18zM274.78 413.27c-.25 0-.45.46-.56.7h.17a1.15 1.15 0 0 1 .51-.55s-.06-.14-.12-.15zM271.89 413.51c.1-.07-.05-.21-.11-.2s-.41-.09-.45 0c-.15.29.38.31.56.2zM271.41 414.09a.34.34 0 0 0-.13-.18c.38 0 0 .2.06.31h-.12c.09.22.33.4.46.27s-.25-.34-.34-.58M270.91 413.28a.75.75 0 0 0-.5-.69v.18c.15.21.38.23.42.51a.32.32 0 0 0 .07-.25M287.38 416.73c1.78-.22 1.35.67 2.08 1.41.25.26 1-.05 1.38.15.1 0 0 .43 0 .69a5.27 5.27 0 0 1-3.5-2.75zM282.61 414.64c.55-.24 1 .17 1.51 0 .19-.07.39-.32.22-.44-.86-.64-1.8.24-2.72 0v.45a1.23 1.23 0 0 0 .99-.01zM277.38 413.52c.08-.42-.36-.08-.5-.35-.18.13-.32-.14-.26.1h-.47c-.09 0-.08.08 0 .14a.66.66 0 0 0 .73.08c.17.63.38.67 1 .41.07 0 .06-.3 0-.45s-.26.01-.5.07zM288.65 415.24c-.08.12 0 .39 0 .44s-.48.05-.72.05c.41.67.83-.16 1.24 0V415c-.17.06-.42.1-.52.24zM287.1 415.7c-.3-.36-.92-.74-1.11-.45s.49.72.91.87c.1.04.35-.24.2-.42zM273.63 413.37c-.43-.23-.67.18-1 .25.49.19 1.08.48 1.45.18s-.23-.3-.45-.43zM294.12 415c.06.53-.3.22-.5.25.33-.15.48.45.73.22.08-.09 0-.31 0-.47M299.66 417.16c-.24-.53-.55-.54-1-.51s-.17.42-.27.48c-.26.14-.64 0-1 .07s-.38.27-.23.45c.58.71.92-.49 1.44-.35s1.06.67 1.53.13c-.13-.09-.41-.14-.47-.27zM294.57 417.89c.26-.18-.23-.3-.45-.41 0 .25.09.6 0 .69-.34.25-1-.47-1.06-.17-.16.78 1.1 1.45 1.8 1.11.89-.43 1.87-1.4 1-2.39-.11-.12-.56-.36-.68 0-.05.15 0 .35 0 .48-.35.6-.81.21-1.22 0-.05.49.31.9.61.69z" transform="translate(-209.84 -265.5)"/><path class="cls-6" d="M299.62 418.18c-.08-.17-.14-.44-.25-.45-.92-.14-1.69.13-2.8-1-.17-.17-.73-.37-.88-.2-.33.39 0 1.31.43 1.28 1.09-.08 1.42.75 2.23.67 1.16-.13 1.44.66 2.47.3.2-.07-.26-.85.06-1.35-.88-.3-1.16 1-2 .75M280.12 413.52c0-1-.64-.44-1.24-.5v.5c.41-.23.83-.43 1.24 0zM279.61 411.77c-.42-.15-.71 0-.65.18s.54.35.92.28c-.09-.17-.14-.42-.27-.46zM273.6 412.45a.45.45 0 0 0-.45 0c-.08.09-.08.06 0 .15a.45.45 0 0 0 .45 0c.08-.09.08-.06 0-.15zM283.35 413.33a1.74 1.74 0 0 0-1.21 0c-.13 0-.18 0-.26.16.61-.17 1.2.46 1.71.18.16-.11-.04-.26-.24-.34zM291.12 413.67c-.17-.12-.31.15-.24-.09-.13.17-.26-.09-.5-.16 0 .17-.06.19 0 .28.28.3.47-.01.74-.03zM287.88 414.48c.24-.07.37.07.5.25-.56-.07-.1.36-.26.5.53-.14.56-.63.76-1-.25.06-.38-.08-.5-.25zM266.38 410.62h1c-.18.13-.32.26-.26.5-.42.09-.48-.35-.74-.5zM272.12 412.42zM321.63 418.07a6.23 6.23 0 0 0-2.49-.19.65.65 0 0 0 0 .39 7 7 0 0 0 2.48.25c.1 0 .17-.28.26-.44zM382.15 417.63c0-.25-.1-.38-.25-.23a.45.45 0 0 0 0 .45c.17.15.24 0 .25-.22zM391.14 418.41a1.07 1.07 0 0 1 .73 0 .33.33 0 0 1 .24.47c-.21.45-.65.17-1 .25a.35.35 0 0 0-.25-.47 2.67 2.67 0 0 0-.75 0 1.94 1.94 0 0 0 1.03-.25zM234.91 415.6c-.08.09-.17 0-.25.06 0 .19.25.1.37.12s0-.13 0-.18-.1-.02-.12 0zM230.28 415c-.11-.18-.32-.11-.5-.12.09.23.33.12.5.12zM233 415.16c-.19 0-.4.19-.56-.07a.44.44 0 0 0 .56.07zM228.78 415.41a1.51 1.51 0 0 1-.56-.07v.12a.43.43 0 0 0 .56-.05zM229.23 414.74a.28.28 0 0 0-.11.39.18.18 0 0 0 .27-.16c-.02-.08-.01-.3-.16-.23zM242.41 413.73a.15.15 0 0 1-.19.06c0-.06 0 .2-.07.19-1.76-.42 1.52-.42-.24 0 0 0-.1-.23-.06-.2a.46.46 0 0 0 .56-.05zM236.9 415.36c-.18-.05-.29-.14-.43.05a.59.59 0 0 0 .43 0s.01-.05 0-.05zM246.24 413.84c0-.22-.29 0-.46-.06v.13c.22-.02.43.09.46-.07zM244.29 414.19c-.09.05-.19 0-.25.05s0 .15.06.17.3 0 .35-.12-.12-.13-.16-.1zM248.65 413.31a.68.68 0 0 0-.43.1.49.49 0 0 0 .44.18c-.03-.1.15-.26-.01-.28zM251 413.79a.48.48 0 0 1-.56-.06s0 .11.06.11c.19 0 .39.11.56 0-.23 0-.44-.19-.68-.06M253.41 411.94c-.15.14-.3-.05-.44 0s-.08.43-.05.47.27 0 .43 0 .07-.41.06-.47zM264.72 414.53c.2 0 .48-.19.56.19-.24 0-.31-.3-.56-.25v-.18c0-.04.25 0 .36 0M227.66 416c-.14 0-.25-.11-.37 0s0 .09 0 .1a1.17 1.17 0 0 0 .31.12c.2.04 0-.14.06-.22zM224.59 415.78c-.15.06-.27-.2-.34-.1s.09.21.22.29 0-.14.12-.06zM235.53 415.28c-.17.15-.35-.11-.49 0s0 .08-.07.11c.17.17.32-.05.5 0 .02 0 .04-.07.06-.11zM239.64 415.23c0-.09-.1-.06-.17-.06 0 .16-.28.17-.17.29s.29 0 .41-.06-.06-.09-.07-.17zM242.66 413.08a2.08 2.08 0 0 0-.5 0v.11a.32.32 0 0 0 .5-.11zM248.66 414.86a.58.58 0 0 1-.38.12v.13c.26 0 .73.09.63-.32M251.15 411.57h-.23c-.05 0 0 .11 0 .18a2.29 2.29 0 0 0 .37 0c-.03-.06.08-.13-.14-.18zM260.15 413.35v.06c-.23 0-.46-.14-.69-.05v.1c.27.22.45-.16.69-.11zM268.91 413.53c-.2 0-.38-.09-.5.13h.68M264.72 414.34c-.21 0-.43-.14-.62 0s0 .15.06.16c.26 0 .35.4.54.28s.02-.29.02-.44zM266 413.47a3.86 3.86 0 0 0-.68 0v.11c.15 0 .26.13.37.1s.31.09.31-.21zM264.52 413.62c.07-.1.54 0 .4.19s-.54.03-.4-.19zM267.84 412.77c-.27-.07-.47-.26-.75-.24.2.15.59.53.75.24zM263.91 412.47a.75.75 0 0 0-.38-.13v.18c0 .02.26 0 .38-.05zM261.16 412.66c-.18.07-.34-.2-.5 0 .21.1.6.29.68 0a.54.54 0 0 0-.18 0zM257.77 413.87h-.22c-.03 0-.32.15-.29.22s.38 0 .58.08c0-.11.04-.24-.07-.3zM267.78 414.05c.08 0 .25 0 .25.17-.15 0-.2.15-.31.17-.26.05-.28-.2-.38-.36a1.28 1.28 0 0 1 .44.02zM270.52 413.86a.26.26 0 0 0-.41.17s.07.11.11.11a7.55 7.55 0 0 0 1.06-.17c-.11 0-.16-.13-.25-.18s-.29.21-.51.07zM271.59 412.91c.15.13.41 0 .5.19a.54.54 0 0 1 0 .18c-.25 0-.56-.2-.62-.44a.47.47 0 0 1 .12.07zM274.53 413l-.5-.12c0 .06 0 .17.06.17a1.69 1.69 0 0 1 .45.16c.16.07-.19-.1-.01-.21zM276.53 415c-.16-.12-.27 0-.36.09s.06.09.11.1.29-.13.44-.17.25.24.27 0-.21 0-.33-.05v.06z" transform="translate(-209.84 -265.5)"/><path class="cls-6" d="M277.53 415.26a2.37 2.37 0 0 0-1.12-.13c0 .17-.11.22-.16.33s.17.08.21.08c.41-.05.81.14 1.2 0-.11-.09-.04-.23-.13-.28zM292.66 417.07c.16.25.53 0 .68.25a.84.84 0 0 1-.56-.06M294 416.63a.39.39 0 0 0-.3.07v.12a1.06 1.06 0 0 1 .5 0 .08.08 0 0 0 .06-.11h-.06M294.47 416c0 .06 0 .09-.06.12a.53.53 0 0 1 .37.38c.11-.27-.02-.5-.31-.5zM289.53 415.63c.31 0 .63.19.94 0a.17.17 0 0 1-.13.23c-.29.05-.52-.19-.81-.23zM284.66 414.52c.21.05.46 0 .61.19a.07.07 0 0 1 0 .11c-.27 0-.63.01-.61-.3zM280.91 415.19c.18 0 .65-.3.51-.08s-.31.14-.51.08zM279.59 415c-.21 0-.17-.27-.31-.26s0 .15-.06.24a.94.94 0 0 1 .62.18c.01-.16-.17-.16-.25-.16zM281.09 414.27c-.19.06-.37.22-.56.24 0 .08-.1.1-.06.18a4.48 4.48 0 0 1 .62-.31v-.11zM277.84 414.51a.1.1 0 0 0-.06-.13c-.1.18-.28.12-.44.06v.13c.09 0 .19.13.23.05s.33-.08.46-.11M275.72 413.38c-.06-.11 0-.36-.18-.29s-.08.17 0 .23.11-.07.2.12h.12a.44.44 0 0 0-.19-.25M281.72 416.14c0-.26-.28-.48-.05-.66.08-.06.19 0 .24.16a.28.28 0 0 0-.13 0s-.09.06-.06.12a.68.68 0 0 0 .12.12c-.08 0-.07.18-.18.07zM284.78 414.33a3.32 3.32 0 0 1-.62-.44c.15.23.42.23.62.38-.13-.09-.22-.28-.44-.19" transform="translate(-209.84 -265.5)"/><path class="cls-6" d="M293.16 417.32c-.1-.15-.2-.43-.36-.29a.44.44 0 0 0-.13.23c0 .12.14.15.23.11s.17-.09.25 0a1.34 1.34 0 0 0 .76.11c-.08-.15-.27-.3-.44-.12M293 417.82s.06-.09 0-.12-.13-.15-.24-.13 0 .16-.07.17c-.29.07-.77-.09-.76.27s.49.25.71.06c.11.19.43.3.53.05s-.16-.43-.35-.55l.07-.06M294.78 416.63l.06.06c-.11 0-.21-.1-.3 0s0 .11 0 .17a.77.77 0 0 1 .56.12c0-.11-.14-.13-.12-.25-.06 0-.15 0-.13.13M297.16 416.58l.62-.06c-.27 0-.51-.28-.81-.13 0-.23.27-.22.43-.17s.2.21.32.36M300.91 417a.7.7 0 0 0-.74-.09c-.07 0 .12.1.18.13s.39 0 .57.13c0 0 .07 0 .11-.05zM306.28 416.73a7.11 7.11 0 0 0-.94-.42v.11c.28 0 .52.54.8.48.07-.01.1-.11.14-.17zM306.59 417.12a1 1 0 0 0-.75-.13c.11.09.25.49.37.41a.85.85 0 0 1 .38-.12c.12-.02.06-.13 0-.16zM309.47 416.66a2.92 2.92 0 0 0 .37-.24.26.26 0 0 1 .07.19.34.34 0 0 0-.31.07v.1a.21.21 0 0 1-.28-.06c-.09-.18.09-.03.15-.06zM311.86 416.54c0-.16-.21 0-.2-.12-.06.3-.3.07-.5.25a2.12 2.12 0 0 1 .87.06c.02-.14-.15-.12-.17-.19zM314.22 417.23c-.08-.35-.33-.19-.56-.17s-.08.14-.06.15c.25.12.54-.15.81 0M312.47 417.05c.15.05.37-.27.44 0-.09 0-.11.1-.19.07v.12a.85.85 0 0 1-.38-.12c.03-.06.07-.12.13-.07z" transform="translate(-209.84 -265.5)"/><path class="cls-6" d="M313.91 417.54c.15-.2 0-.31-.13-.43v.12c-.17 0-.35.14-.23.22s.38 0 .5.21h.15c.02 0-.11-.13-.11-.24H314l.06-.06M315.34 416.79c.14-.14.32-.26.49-.17a.15.15 0 0 1 0 .16h-.23c-.07 0 .07.14 0 .17a.24.24 0 0 1-.3-.12s.02-.01.04-.04zM315.53 417.67c.05-.13-.06-.18-.12-.25-.08.29-.4.33-.63.31v.12c.56.32 1.06-.11 1.55-.31l-.06-.06M298.28 416.33c-.08-.11.09-.15.06-.25a.48.48 0 0 1 .32.13c-.11.14-.18.38-.38.3s.06-.11 0-.18zM299.28 416.39c.18-.21 0-.6-.21-.4s.28.17.21.4zM301.34 416.58c0-.2-.19 0-.31-.07s-.08-.07-.12-.12 0 .15 0 .18.29.04.43.01zM303.22 416.36c.14-.05.28-.43.44-.43-.15.26-.38.63-.63.43M302 416.82c-.14 0-.29-.09-.43 0s0 .09 0 .1c.19.11.3-.1.49-.11.01-.02-.01.02-.06.01zM298 415.7a.47.47 0 0 0-.19-.12.09.09 0 0 1-.06.12.59.59 0 0 1-.19 0c0 .06 0 .09-.06.12.27-.09.54.21.81 0-.05-.07-.19-.02-.31-.12zM293.72 415.75a.75.75 0 0 1-.13-.06v.12c0 .01-.17 0-.24 0s0 .09 0 .11.19.05.32 0 .19.1.29 0 .14-.09-.24-.17zM291.46 415.89c-.17-.1-.34-.11-.43.12l.63.06a1.12 1.12 0 0 0-.2-.18zM293.09 417.69c-.1-.61-.68-.66-1.11-.52 0 0 0 .25-.08.32-.28.14-.92 0-.82.44.07.29.53.11.74.25s.45.49.69.35.43.06.64 0 .1-.24.15-.36.34-.08.41-.26a.3.3 0 0 0-.24-.39c-.42 0-.77-.33-1.19-.23" transform="translate(-209.84 -265.5)"/><path class="cls-6" d="M290 417.57c-.26 0-.3-.37-.56-.3v.1a3.21 3.21 0 0 1-.62 0 .44.44 0 0 0 .32.43c.18 0 .4-.05.54 0s.37.18.41.3c.15.46.59.29.92.29-.09-.3.51-.58.22-.65-.57-.16-1.07-.37-1.67-.48a.39.39 0 0 0-.3.32M254.67 413.82h-.11a5.23 5.23 0 0 1 1.12 0v.21a.76.76 0 0 1-1.31 0c-.14-.17.36.09.3-.21zM253.12 413.68c0-.5-.51 0-.81-.12 0 .12 0 .23.13.23.25.01.66.21.68-.11zM251.8 414.3c-.18.09-.44-.09-.61.14.46.11.87.47 1.37.35v-.23c-.2.09-.32-.14-.5-.12v-.24c0-.04-.17.06-.26.1z" transform="translate(-209.84 -265.5)"/><path class="cls-6" d="M254.19 413.81c-.27 0-.27.19-.25.38h-.36c-.08 0 0 .17.11.23.17-.39.68-.39.87-.75M257.31 414.69c.37-.7.72-.12 1 .27.14.22-.15 0-.22.1-.15-.42-.6 0-.86-.27-.08-.07 0-.17.11-.23zM259.31 413.44c-.15-.55-.55-.59-.83-.33s.24.59.58.7c-.09-.27.26-.49.11-.73h-.23M260.94 413.21c-.34 0-.45-.49-.74-.36s0 .41.12.41c.34 0 .28.42.49.4s.19-.13.24-.23a.14.14 0 0 0-.11-.22zM250 414.83s-.06-.45-.13-.38c-.3.3.12.35.25.47a.18.18 0 0 0 .22 0v-.21c.3-.14.74.17.65-.12s-.72.49-.99.24z" transform="translate(-209.84 -265.5)"/><path d="M219 540.15c-.21-.6-3.09-7.52-3.31-7.52s-.25 3.84-.25 6v10.84c0 .76 1.22 1.16 2.12 1.32 1.44.28 2 .28 2 .8s-.5.48-1 .48c-1.18 0-2.66-.16-4-.16s-2.74.16-4 .16c-.32 0-.72-.12-.72-.52 0-.6.43-.68 1.23-.76 1.4-.16 2.26-.76 2.3-1.36l1.19-17.28v-1.8c0-.88-.32-1-2.3-1.56-1.08-.32-1.62-.32-1.62-.76 0-.28 0-.52.9-.52s1.62.08 2.45.08 1.87-.08 2.81-.08a.63.63 0 0 1 .61.36l7.13 17.24a.26.26 0 0 0 .25.2c.11 0 .21-.12.25-.24l6.37-16c.18-.48.51-1.52 1.05-1.52s2.41.08 2.84.08c1 0 2-.08 2.95-.08a.57.57 0 0 1 .43.48c0 .84-1 .68-1.69.8-2.05.36-2.55.44-2.55 3.12v16.52c0 1.52.46 1.88 2.77 2.36.57.12 1.29.32 1.29.76s-.5.52-1.69.52c-1.55 0-2.16-.16-3-.16-1.72 0-3.45.16-4.82.16-.4 0-.9 0-.9-.68 0-.44.9-.52 1.33-.6 1.69-.36 1.91-.44 1.91-1.6v-14.56c0-.8-.11-1-.29-1s-.21.08-.29.24l-6.62 17a.48.48 0 0 1-.47.28c-.61 0-1.29-2.08-1.44-2.52zM248.12 549.94a1 1 0 0 0 .94 1.06c.9.18 1.51.18 1.51.62s-.5.37-1 .37c-.73 0-1.31-.12-2.74-.12s-2.14.12-2.84.12-1-.09-1-.46.16-.38 1.42-.53c.5-.06 1.37-.22 1.37-1.37v-14.44c0-1-.31-1.15-1.12-1.3s-1-.13-1-.56.42-.44.75-.44c.87 0 1.31.13 2.62.13 1.12 0 1.68-.13 2.52-.13.61 0 1.25 0 1.25.38 0 .55-.5.46-1.81.62-.76.09-.78 1-.78 1.83zM273.59 534.91c0-.9-.42-.87-2.23-1-.37 0-.92 0-.92-.47s.5-.53.83-.53c1 0 2.1.13 3.13.13.81 0 1.87-.13 2.45-.13.31 0 .65.1.65.5s-.4.5-.95.5c-1.76 0-1.84.55-1.84 2.88v15c0 .59-.06 1.18-.48 1.18s-.72-.43-1.06-.87l-11.86-15.28a.32.32 0 0 0-.22-.12c-.08 0-.08.15-.08.59l.05 10c0 .77.06 1.21.06 1.86 0 1.67.64 1.83 1.31 1.89 1.37.12 2.17.09 2.17.59s-.25.4-.53.4c-.89 0-2-.12-3.23-.12-2.32 0-2.71.12-3.57.12-.2 0-.5 0-.5-.34s.13-.47 2-.65c.59-.06.81-.34.81-.84l.34-12.24c0-.72.05-1.37.05-1.59 0-2.07-.39-2.16-1.23-2.26-1.64-.15-2-.15-2-.62s.42-.56.87-.56 1 .13 1.95.13 1.2-.13 1.54-.13a1.4 1.4 0 0 1 1.11.75L273.2 548c.05.06.08.16.22.16s.17-.35.17-.84zM299.76 534.91c0-.9-.42-.87-2.23-1-.37 0-.92 0-.92-.47s.5-.53.83-.53c1 0 2.1.13 3.13.13.81 0 1.87-.13 2.45-.13.31 0 .64.1.64.5s-.39.5-.94.5c-1.76 0-1.84.55-1.84 2.88v15c0 .59-.06 1.18-.48 1.18s-.72-.43-1.06-.87l-11.86-15.28a.32.32 0 0 0-.22-.12c-.08 0-.08.15-.08.59l.05 10c0 .77.06 1.21.06 1.86 0 1.67.64 1.83 1.31 1.89 1.37.12 2.18.09 2.18.59s-.26.4-.53.4c-.9 0-2-.12-3.24-.12-2.32 0-2.71.12-3.57.12-.2 0-.5 0-.5-.34s.13-.47 2-.65c.59-.06.81-.34.81-.84l.34-12.24c0-.72.05-1.37.05-1.59 0-2.07-.39-2.16-1.23-2.26-1.64-.15-2-.15-2-.62s.42-.56.87-.56 1 .13 1.95.13 1.2-.13 1.54-.13a1.4 1.4 0 0 1 1.11.75L299.37 548c.05.06.08.16.22.16s.17-.35.17-.84zM312.56 535.1c0-.81-.27-1-1.31-1.21-.86-.19-1.22-.25-1.22-.62s.39-.38.81-.38c1 0 3.32.13 4 .13s4.77-.13 7.15-.13c.41 0 .41.35.41 1v3a.2.2 0 0 1-.22.19c-.36 0-.31-.34-.75-1.4s-.56-1.58-5.3-1.58c-1 0-1.18.41-1.18 1.46v5.36c0 .62.42.68 1.4.68h2.43c2.06 0 1.42-2.66 2.12-2.66.36 0 .39.28.39.62 0 .71-.11 1.15-.11 2.6 0 1.3.11 2.14.11 3 0 .28 0 .53-.31.53s-.45-.5-.59-1.4c-.25-1.61-.5-1.83-3.93-1.83-1.31 0-1.51.19-1.51.81v6c0 1.4.12 1.55 3.35 1.55 1.9 0 2.54-.31 3.13-1 1.34-1.71 1.2-2.51 1.67-2.51.25 0 .28.15.28.31s-.08.28-.11.49l-.53 3.17c-.08.49-.25.65-.64.65h-7.95a32.29 32.29 0 0 0-3.66.12c-.22 0-.67 0-.67-.37s.5-.4 1.2-.62 1.53-.09 1.53-1.4zM339.4 537.17a.24.24 0 0 1-.25.25c-.94 0 0-3.91-3.79-3.91a2.73 2.73 0 0 0-3 2.89c0 4.46 8.37 3.87 8.37 10.26 0 4-2.6 5.76-6 5.76A17.91 17.91 0 0 1 332 552c-1.73-.4-2-1-2-2.85 0-.84.09-2.7.65-2.7.72 0 .11.9.94 2.6a3.92 3.92 0 0 0 3.58 2.36 3.36 3.36 0 0 0 3.71-3.35c0-4.71-8.37-4.4-8.37-10.35a5 5 0 0 1 5.27-5.21 6.87 6.87 0 0 1 1.51.16c2.14.46 2.14.8 2.14 2zM348.86 542.5c0-6.54 3.18-9.11 6.2-9.11 4.43 0 6.5 4.46 6.5 8.46 0 1.55-.25 9.64-6.39 9.64-2.29 0-6.31-1.92-6.31-8.99zm-2.95-.06c0 5.92 3.93 10 9.12 10 6.83 0 9.48-5.7 9.48-10.1 0-4.22-2.79-9.86-9.34-9.86-5.33-.02-9.26 4.38-9.26 9.96zM380.86 533.58a6.69 6.69 0 0 0 1.18 0c1-.18.78-1.39 1.28-1.39s.42 1 .42 2.29 0 3-.53 3-.48-1.36-.84-2c-.17-.28-1.26-.87-4.05-.87-1.11 0-1.31.09-1.31 2v12.5c0 1.45.39 1.7 1.59 1.89.76.12 1.48.09 1.48.59s-.42.4-.58.4c-.84 0-2.38-.12-3.6-.12s-2.49.12-3.94.12c-.14 0-.47 0-.47-.31 0-.5.89-.53 1.59-.68 1.25-.28 1.53-.75 1.53-2.57V536c0-1.27-.19-1.33-2.48-1.33-2.54 0-3.6 3.07-4.18 3.07a.35.35 0 0 1-.34-.4 37.53 37.53 0 0 1 1.14-3.79c.28-.83.4-1.36.79-1.36.58 0 .08 1.05 1 1.21a31.94 31.94 0 0 0 4.13.22zM393.92 536.52c0-.09.08-.15.14-.15s.14.12.17.18l1.48 4.9a2.39 2.39 0 0 1 .14.59c0 .19-1.79.19-2 .19a7.65 7.65 0 0 1-2-.16 2.39 2.39 0 0 1 .17-.56zm4 12.9a4.15 4.15 0 0 1 .17.77.9.9 0 0 1-.7.81c-1 .18-1.56.28-1.56.65a.37.37 0 0 0 .39.34c1.09 0 2.06-.12 3.1-.12s2 .12 3.23.12c.34 0 .56-.06.56-.37 0-.47-.53-.37-1.28-.62-.37-.13-.92-.53-1.45-2.23l-5.19-16.46a.33.33 0 0 0-.34-.22.31.31 0 0 0-.28.18l-7.11 18a1.22 1.22 0 0 1-.84.78c-.7.28-1.42.22-1.42.62s.11.37.33.37c1 0 2-.12 3.1-.12.81 0 1.7.12 2.45.12.2 0 .65 0 .65-.37s-.56-.37-1.43-.62a1 1 0 0 1-.81-.93 49.61 49.61 0 0 1 2-6.14c.11-.25.55-.37 2.45-.34 2.29 0 2.4 0 2.62.81zM218.31 565.07a.2.2 0 0 1-.21.21c-.83 0 0-3.4-3.31-3.4a2.38 2.38 0 0 0-2.65 2.51c0 3.89 7.29 3.38 7.29 8.94 0 3.48-2.26 5-5.2 5a15.71 15.71 0 0 1-2.35-.4c-1.51-.35-1.78-.84-1.78-2.49 0-.73.07-2.35.56-2.35s.1.79.83 2.27a3.39 3.39 0 0 0 3.11 2 2.92 2.92 0 0 0 3.23-2.91c0-4.11-7.29-3.84-7.29-9a4.37 4.37 0 0 1 4.59-4.54 6.1 6.1 0 0 1 1.31.14c1.87.4 1.87.7 1.87 1.73zM230.27 564.3a5.06 5.06 0 0 0 .87 0c.73-.13.58-1 1-1s.31.73.31 1.7 0 2.25-.4 2.25-.35-1-.62-1.47c-.12-.2-.93-.64-3-.64-.83 0-1 .07-1 1.47v9.27c0 1.08.29 1.26 1.18 1.4.56.09 1.09.07 1.09.44s-.31.3-.43.3c-.62 0-1.76-.09-2.67-.09s-1.84.09-2.92.09c-.1 0-.35 0-.35-.23s.66-.39 1.18-.51c.93-.2 1.14-.55 1.14-1.91v-9.24c0-1-.15-1-1.85-1-1.88 0-2.67 2.27-3.1 2.27-.21 0-.25-.18-.25-.29a26.47 26.47 0 0 1 .85-2.81c.21-.62.29-1 .58-1s.06.78.77.9a24.23 24.23 0 0 0 3.06.16zM239.34 566.48c0-.07.06-.11.1-.11s.11.09.13.13l1.09 3.64a1.45 1.45 0 0 1 .11.44c0 .13-1.33.13-1.45.13a6.07 6.07 0 0 1-1.49-.11 1.66 1.66 0 0 1 .12-.42zm3 9.57a3.23 3.23 0 0 1 .12.57.66.66 0 0 1-.51.6c-.75.14-1.16.21-1.16.49a.27.27 0 0 0 .29.25c.8 0 1.53-.09 2.3-.09s1.51.09 2.4.09c.24 0 .41-.05.41-.28s-.39-.27-1-.46c-.27-.09-.68-.39-1.08-1.65l-3.85-12.22a.24.24 0 0 0-.25-.16.22.22 0 0 0-.2.14l-5.28 13.32a.91.91 0 0 1-.62.57c-.52.21-1.06.16-1.06.46s.08.28.25.28c.7 0 1.51-.09 2.3-.09.6 0 1.26.09 1.82.09.14 0 .47 0 .47-.28s-.41-.27-1-.46a.75.75 0 0 1-.6-.69 35.76 35.76 0 0 1 1.47-4.55c.08-.19.41-.28 1.82-.25 1.7 0 1.78 0 1.95.59zM256.31 564.3a5.06 5.06 0 0 0 .87 0c.73-.13.58-1 1-1s.31.73.31 1.7 0 2.25-.4 2.25-.35-1-.62-1.47c-.12-.2-.93-.64-3-.64-.83 0-1 .07-1 1.47v9.27c0 1.08.29 1.26 1.18 1.4.56.09 1.09.07 1.09.44s-.31.3-.43.3c-.62 0-1.76-.09-2.67-.09s-1.84.09-2.92.09c-.1 0-.35 0-.35-.23s.66-.39 1.18-.51c.93-.2 1.14-.55 1.14-1.91v-9.24c0-1-.15-1-1.84-1-1.89 0-2.68 2.27-3.11 2.27-.21 0-.25-.18-.25-.29a26.47 26.47 0 0 1 .85-2.81c.21-.62.29-1 .58-1s.06.78.77.9a24.33 24.33 0 0 0 3.06.16zM261.8 565.42c0-.59-.21-.71-1-.89s-.91-.19-.91-.46.29-.28.6-.28c.76 0 2.46.09 3 .09s3.54-.09 5.3-.09c.31 0 .31.25.31.74v2.2c0 .1-.09.14-.17.14-.27 0-.23-.25-.56-1s-.41-1.18-3.93-1.18c-.75 0-.87.3-.87 1.09v4c0 .46.31.51 1 .51h1.81c1.53 0 1.05-2 1.57-2 .27 0 .29.21.29.46 0 .53-.08.85-.08 1.93s.08 1.59.08 2.24c0 .2 0 .39-.23.39s-.33-.37-.43-1c-.19-1.19-.38-1.36-2.92-1.36-1 0-1.12.14-1.12.6v4.46c0 1 .08 1.15 2.48 1.15 1.41 0 1.89-.23 2.32-.78 1-1.26.89-1.86 1.24-1.86.19 0 .21.11.21.23s-.06.21-.08.37l-.4 2.34c-.06.37-.18.49-.47.49H263a23.34 23.34 0 0 0-2.71.09c-.17 0-.5 0-.5-.28s.37-.3.89-.46 1.14-.07 1.14-1zM283.53 564.5c0-.08.07-.13.12-.13s.12.1.15.16l1.29 4.26a2.13 2.13 0 0 1 .12.52c0 .16-1.56.16-1.7.16a6.59 6.59 0 0 1-1.75-.14 1.74 1.74 0 0 1 .14-.48zm3.47 11.23a3.82 3.82 0 0 1 .15.68.78.78 0 0 1-.61.7c-.87.16-1.36.24-1.36.57a.32.32 0 0 0 .34.29c1 0 1.8-.1 2.7-.1s1.77.1 2.82.1c.29 0 .48-.05.48-.32s-.46-.32-1.11-.54c-.32-.11-.81-.46-1.27-1.94l-4.52-14.34a.27.27 0 0 0-.29-.19.25.25 0 0 0-.24.16l-6.2 15.64a1 1 0 0 1-.73.67c-.6.24-1.24.19-1.24.54s.1.32.3.32c.82 0 1.77-.1 2.69-.1.71 0 1.49.1 2.14.1.17 0 .56 0 .56-.32s-.49-.32-1.24-.54a.89.89 0 0 1-.7-.81 43.42 43.42 0 0 1 1.72-5.35c.1-.21.49-.32 2.14-.29 2 0 2.09 0 2.28.7zM296.43 565.19c0-.71.51-.71.7-.71 1.68 0 3.25.55 3.25 2.83 0 2.87-1.59 3.06-2.79 3.06-1 0-1.16-.07-1.16-.28zm-1.78 11c0 .81-.5 1-1 1.06s-1 0-1 .44.23.3.33.3c1 0 1.92-.09 2.88-.09.76 0 1.55.09 2.31.09.09 0 .54 0 .54-.3s-.45-.35-.83-.44c-1.44-.32-1.44-.5-1.44-1.65v-4c0-.44 0-.62.62-.62a1.54 1.54 0 0 1 1.3.69l3 6c.11.21.19.21 1.87.21h1.88a.19.19 0 0 0 .21-.2c0-.26-.42-.28-1-.42a2.71 2.71 0 0 1-1.84-1.49l-2.44-4.46c-.1-.19-.17-.28-.17-.4 0-.34 2.24-1.19 2.24-3.54 0-2.85-2.09-3.54-3.81-3.54-.93 0-1.88.09-2.81.09-.63 0-2.24-.09-2.41-.09s-.45.09-.45.37.5.34.72.37c.75.07 1.25.18 1.25.66zM314.72 564.3a5.06 5.06 0 0 0 .87 0c.73-.13.58-1 1-1s.31.73.31 1.7 0 2.25-.4 2.25-.35-1-.62-1.47c-.12-.2-.93-.64-3-.64-.83 0-1 .07-1 1.47v9.27c0 1.08.29 1.26 1.18 1.4.56.09 1.09.07 1.09.44s-.31.3-.43.3c-.62 0-1.76-.09-2.67-.09s-1.84.09-2.92.09c-.1 0-.35 0-.35-.23s.66-.39 1.18-.51c.93-.2 1.14-.55 1.14-1.91v-9.24c0-1-.15-1-1.84-1-1.89 0-2.68 2.27-3.11 2.27-.21 0-.25-.18-.25-.29a26.47 26.47 0 0 1 .85-2.81c.21-.62.29-1 .58-1s.06.78.77.9a24.33 24.33 0 0 0 3.06.16zM324.89 567a.18.18 0 0 1-.19.19c-.7 0 0-2.9-2.81-2.9a2 2 0 0 0-2.26 2.14c0 3.31 6.21 2.87 6.21 7.61 0 3-1.92 4.28-4.43 4.28a13.92 13.92 0 0 1-2-.34c-1.28-.3-1.51-.72-1.51-2.12 0-.62.06-2 .48-2s.08.67.7 1.93a2.91 2.91 0 0 0 2.65 1.75 2.49 2.49 0 0 0 2.75-2.49c0-3.49-6.21-3.26-6.21-7.68a3.73 3.73 0 0 1 3.92-3.86 5.31 5.31 0 0 1 1.11.11c1.6.35 1.6.6 1.6 1.48zM336.39 569.47c0-.16.37-.19.85-.19 2.68 0 5.4.43 5.4 4a3.41 3.41 0 0 1-2.09 3.45 5.19 5.19 0 0 1-1.55.27c-2.33 0-2.63-.7-2.63-1.87zm-2.28 6.88c0 .65-.53.84-1.07.87s-1 0-1 .35.29.35.87.35h1.87c3.6 0 6.05-.08 6.71-.33 2.72-1 3.38-2.43 3.38-4.86 0-3.43-2.75-4-2.75-4.45s1.65-.49 1.65-3.11c0-1.78-1.5-3.89-5.15-3.89-.51 0-2.79.22-5.1.22-.44 0-1.27.14-1.27.46s.34.35 1 .46 1.12.13 1.12.86v1.08zm2.33-13.44c0-.68.37-.81 1.48-.81 1.51 0 3.92 0 3.92 3a3.06 3.06 0 0 1-2.65 3.24c-.41 0-.92.08-1.27.08a5.18 5.18 0 0 1-1.48-.16zM349 570.92c0-4.85 2.35-6.76 4.59-6.76 3.29 0 4.82 3.31 4.82 6.28 0 1.15-.18 7.15-4.74 7.15-1.67 0-4.67-1.43-4.67-6.67zm-2.2 0c0 4.4 2.92 7.41 6.77 7.41 5.07 0 7-4.23 7-7.5s-2.07-7.31-6.94-7.31c-3.93-.05-6.85 3.21-6.85 7.35zM366.86 566.48c0-.07.06-.11.1-.11s.11.09.13.13l1.09 3.64a1.45 1.45 0 0 1 .11.44c0 .13-1.33.13-1.45.13a6.07 6.07 0 0 1-1.49-.11 1.66 1.66 0 0 1 .12-.42zm3 9.57a3.23 3.23 0 0 1 .12.57.66.66 0 0 1-.51.6c-.75.14-1.16.21-1.16.49a.27.27 0 0 0 .29.25c.8 0 1.53-.09 2.29-.09s1.52.09 2.41.09c.24 0 .41-.05.41-.28s-.39-.27-.95-.46c-.27-.09-.69-.39-1.08-1.65l-3.85-12.22a.24.24 0 0 0-.25-.16.22.22 0 0 0-.2.14l-5.28 13.32a.91.91 0 0 1-.62.57c-.52.21-1.06.16-1.06.46s.08.28.25.28c.7 0 1.51-.09 2.3-.09.6 0 1.26.09 1.82.09.14 0 .47 0 .47-.28s-.41-.27-1.05-.46a.75.75 0 0 1-.6-.69A35.76 35.76 0 0 1 365 572c.08-.19.41-.28 1.82-.25 1.7 0 1.78 0 1.95.59zM378.51 565.19a.62.62 0 0 1 .71-.71c1.67 0 3.25.55 3.25 2.83 0 2.87-1.6 3.06-2.8 3.06-1 0-1.16-.07-1.16-.28zm-1.78 11c0 .81-.49 1-1 1.06s-1 0-1 .44.22.3.33.3c1 0 1.92-.09 2.87-.09.77 0 1.56.09 2.32.09.08 0 .54 0 .54-.3s-.46-.35-.83-.44c-1.45-.32-1.45-.5-1.45-1.65v-4c0-.44 0-.62.62-.62a1.55 1.55 0 0 1 1.31.69l3 6c.1.21.19.21 1.86.21h1.89a.19.19 0 0 0 .21-.2c0-.26-.42-.28-1-.42a2.69 2.69 0 0 1-1.84-1.49l-2.44-4.46a.84.84 0 0 1-.17-.4c0-.34 2.24-1.19 2.24-3.54 0-2.85-2.09-3.54-3.81-3.54-.93 0-1.89.09-2.82.09-.62 0-2.23-.09-2.4-.09s-.45.09-.45.37.49.34.72.37c.75.07 1.24.18 1.24.66zM392 565.08c0-.32 0-.74 1.74-.74a6.57 6.57 0 0 1 6.37 6.81 5.87 5.87 0 0 1-5.46 6.16A2.36 2.36 0 0 1 392 575zm3.64 12.79a6.35 6.35 0 0 0 6.42-6.28c0-5.55-3.52-7.94-7.87-7.94-1.32 0-2.29.14-3.31.14H389c-.25 0-.81 0-.81.39s.15.25.62.3 1.41 0 1.41.44v10.81c0 1.33-.48 1.4-.93 1.49-.62.12-.77.32-.77.51s.27.23.38.23c.49 0 1.26-.09 1.86-.09z" transform="translate(-209.84 -265.5)"/><path d="M157.56 214.05h10v1.94h-10z"/><path d="M380.2 479.54a1 1 0 1 0 1 1 1 1 0 0 0-1-1z" transform="translate(-209.84 -265.5)"/></svg>