<svg id="Layer_1" data-name="Layer 1" xmlns="http://www.w3.org/2000/svg" viewBox="0 0 42.52 42.52"><defs><style>.cls-1{fill:#231f20}</style></defs><path class="cls-1" d="M326.77 389.38a21.26 21.26 0 1 1-21.26-21.26 21.25 21.25 0 0 1 21.26 21.26zm-21.26-14.19a14.19 14.19 0 1 0 14.19 14.19 14.18 14.18 0 0 0-14.19-14.19z" transform="translate(-284.25 -368.12)"/><path class="cls-1" d="M305.51 382.09a7.29 7.29 0 1 0 7.29 7.29 7.28 7.28 0 0 0-7.29-7.29zM321.31 406.3a1.58 1.58 0 1 1-1.56 1.57 1.55 1.55 0 0 1 1.56-1.57zm0 .25a1.33 1.33 0 1 0 1.27 1.33 1.29 1.29 0 0 0-1.27-1.33zm-.29 2.24h-.28V407a3.23 3.23 0 0 1 .5-.05.88.88 0 0 1 .54.14.39.39 0 0 1 .16.36.44.44 0 0 1-.34.43c.16 0 .26.17.29.43a1.58 1.58 0 0 0 .12.43h-.3a1.54 1.54 0 0 1-.12-.45.32.32 0 0 0-.37-.3H321zm0-1h.2c.23 0 .43-.09.43-.3s-.11-.31-.43-.31H321z" transform="translate(-284.25 -368.12)"/></svg>