<svg id="Layer_1" data-name="Layer 1" xmlns="http://www.w3.org/2000/svg" viewBox="0 0 528.84 72"><defs><style>.cls-1{fill:#231f20}</style></defs><path class="cls-1" d="M137.89 95.15a4.17 4.17 0 1 0-4.18 4.18 4.17 4.17 0 0 0 4.18-4.18m-2.4-12.26a3.6 3.6 0 1 0-2.29 4.55 3.61 3.61 0 0 0 2.29-4.55zM130 73.44a3.07 3.07 0 1 0-.77 4.27 3.07 3.07 0 0 0 .77-4.27zm-7.64-7.2a2.64 2.64 0 1 0 .35 3.72 2.63 2.63 0 0 0-.34-3.72zM114 61.89a2.14 2.14 0 1 0-1.81 3.88 2.14 2.14 0 1 0 1.81-3.88zm-8-2.17a1.84 1.84 0 1 0 1.43 2.18 1.84 1.84 0 0 0-1.49-2.18zm-7.43-.57a1.59 1.59 0 1 0 1.59 1.58 1.58 1.58 0 0 0-1.65-1.58zm-31 36a4.17 4.17 0 1 0-4.18 4.18 4.17 4.17 0 0 0 4.1-4.18zm.91 10a3.61 3.61 0 1 0-2.3 4.56 3.62 3.62 0 0 0 2.22-4.56zm3.67 8.22a3.06 3.06 0 0 0-4.26-.77 3.07 3.07 0 1 0 4.26.77zM78 120a2.64 2.64 0 1 0 .35 3.71A2.64 2.64 0 0 0 78 120zm6.84 4.52a2.11 2.11 0 0 0-2.83 1 2.14 2.14 0 1 0 2.83-1zm7 2.44a1.87 1.87 0 0 0-2.19 1.44 1.84 1.84 0 1 0 2.22-1.4zm6.66 1a1.59 1.59 0 1 0 1.58 1.58 1.59 1.59 0 0 0-1.55-1.54zM63.84 87.44a3.6 3.6 0 1 0-2.29-4.55 3.6 3.6 0 0 0 2.29 4.55zm4-9.73a3.06 3.06 0 1 0-.84-4.27 3.08 3.08 0 0 0 .8 4.27zM74.31 70a2.64 2.64 0 1 0 .36-3.71 2.62 2.62 0 0 0-.36 3.71zM82 64.74a2.14 2.14 0 0 0 3.89-1.8 2.14 2.14 0 1 0-3.89 1.8zm7.64-2.85a1.85 1.85 0 1 0 1.44-2.17 1.83 1.83 0 0 0-1.41 2.17zm41.27 47.83a3.61 3.61 0 1 0-2.28-4.56 3.61 3.61 0 0 0 2.31 4.56zm-5.19 7.92a3.07 3.07 0 1 0-.79-4.27 3.09 3.09 0 0 0 .82 4.27zm-7.1 6.07A2.64 2.64 0 1 0 119 120a2.62 2.62 0 0 0-.35 3.71zm-7.54 3.66a2.14 2.14 0 1 0 3.89-1.8 2.13 2.13 0 0 0-2.85-1 2.16 2.16 0 0 0-1.01 2.8zm-7.36 1.78a1.85 1.85 0 1 0 3.62-.75 1.85 1.85 0 0 0-3.62.75zm21.17-48.37a3.19 3.19 0 1 0-1.28 4.34 3.21 3.21 0 0 0 1.31-4.34zm-6-7.49a2.93 2.93 0 0 0-4.16.13 3 3 0 1 0 4.16-.13zm-7.4-4.49a2.51 2.51 0 1 0 1.15 3.35 2.5 2.5 0 0 0-1.08-3.35zM104 67a2.12 2.12 0 0 0-.82 4.17A2.12 2.12 0 1 0 104 67zm-7.27.26a1.64 1.64 0 1 0 1.75 1.52 1.65 1.65 0 0 0-1.77-1.57zm-6.16 1.48a1.4 1.4 0 1 0 1.75.93 1.39 1.39 0 0 0-1.77-.98zM85.37 71a1.21 1.21 0 0 0-.49 1.65 1.22 1.22 0 0 0 1.65.48 1.24 1.24 0 0 0 .47-1.64 1.22 1.22 0 0 0-1.63-.49zm-7.66 35.47a3.21 3.21 0 0 0-4.34-1.27 3.16 3.16 0 0 0-1.25 4.31 3.18 3.18 0 1 0 5.59-3zm4.41 6.23a2.94 2.94 0 1 0 .14 4.17 2.94 2.94 0 0 0-.14-4.16zm5.39 4.16a2.53 2.53 0 1 0 1.12 3.37 2.53 2.53 0 0 0-1.12-3.36zm6.36 2.33a2.12 2.12 0 1 0 1.68 2.48 2.13 2.13 0 0 0-1.68-2.47zm6.22.63a1.63 1.63 0 1 0 1.74 1.52 1.62 1.62 0 0 0-1.74-1.51zm5.58-.9a1.42 1.42 0 0 0 .82 2.71 1.42 1.42 0 0 0-.82-2.71zm4.83-1.77a1.22 1.22 0 0 0-.47 1.65 1.21 1.21 0 0 0 2.13-1.16 1.23 1.23 0 0 0-1.66-.48zM72.4 102.4a2.5 2.5 0 1 0-2.91-2 2.47 2.47 0 0 0 2.91 2zm-.81-8a2.08 2.08 0 0 0 2.27-1.84A2.1 2.1 0 0 0 72 90.3a2.06 2.06 0 0 0-.41 4.1zm1.52-7.4A1.94 1.94 0 1 0 72 84.51 1.95 1.95 0 0 0 73.11 87zm3.24-6.25a1.62 1.62 0 0 0 2.29-.36 1.59 1.59 0 0 0-.33-2.26 1.61 1.61 0 0 0-2.28.33 1.64 1.64 0 0 0 .32 2.32zm4.08-4.69a1.42 1.42 0 1 0 .18-2 1.42 1.42 0 0 0-.18 2.03zm45.1 16.74a2.5 2.5 0 1 0-2.92-2 2.48 2.48 0 0 0 2.92 2.03zM125 100a2 2 0 1 0-1.82-2.25A2 2 0 0 0 125 100zm-2.54 6.87a1.9 1.9 0 0 0 2.51-1.07 1.93 1.93 0 0 0-3.59-1.43 1.94 1.94 0 0 0 1.1 2.49zm-3.75 5.3a1.64 1.64 0 1 0-.34-2.29 1.63 1.63 0 0 0 .36 2.28zm-4.3 3.88a1.41 1.41 0 1 0 .18-2 1.44 1.44 0 0 0-.16 1.95zm-.32-36.4a3 3 0 0 0-4.23 4.19 3 3 0 1 0 4.23-4.19zM106.62 75a2.71 2.71 0 0 0-3.49 1.46A2.74 2.74 0 0 0 104.6 80a2.68 2.68 0 0 0 2-5zm-8.06-1a2.35 2.35 0 1 0 0 4.69 2.3 2.3 0 0 0 2.33-2.34 2.35 2.35 0 0 0-2.33-2.3zm-7.78 2.4a1.75 1.75 0 0 0-1 2.27 1.82 1.82 0 0 0 2.32 1 1.77 1.77 0 0 0 .94-2.31 1.73 1.73 0 0 0-2.26-.91zM87 106.51a3 3 0 0 0-4.19 0 3 3 0 0 0 0 4.23 3 3 0 1 0 4.24-4.2zm5.31 3.85a2.67 2.67 0 1 0-2 5 2.66 2.66 0 0 0 3.47-1.45 2.71 2.71 0 0 0-1.43-3.55zm6.06 1.22a2.36 2.36 0 0 0-2.34 2.34 2.35 2.35 0 1 0 2.34-2.34zm6.42-.92a1.72 1.72 0 0 0-.94 2.27 1.78 1.78 0 0 0 2.29 1 1.72 1.72 0 0 0 .93-2.3 1.7 1.7 0 0 0-2.24-.97zM81.6 104.4a2.47 2.47 0 0 0 1.4-3.25 2.43 2.43 0 0 0-3.21-1.38 2.47 2.47 0 0 0-1.42 3.2 2.5 2.5 0 0 0 3.23 1.43zm-1.9-7.61a1.94 1.94 0 0 0 .07-3.87 1.94 1.94 0 0 0-2 1.88 2 2 0 0 0 1.93 1.99zm1.08-7.25a1.62 1.62 0 0 0 1.27-3 1.61 1.61 0 0 0-2.12.88 1.63 1.63 0 0 0 .85 2.12zm36.38 1a2.49 2.49 0 0 0-1.78-4.64 2.49 2.49 0 1 0 1.78 4.64zm0 6.86a1.94 1.94 0 0 0 .07-3.88 2 2 0 0 0-2 1.89 2 2 0 0 0 1.96 2.03zm-2.29 6.32a1.6 1.6 0 1 0 1.26-3 1.6 1.6 0 0 0-1.26 3zM84.3 83.22A1.62 1.62 0 1 0 86.6 81a1.64 1.64 0 0 0-2.29 0 1.66 1.66 0 0 0-.01 2.22zm26 26.18a1.55 1.55 0 0 0 2.28 0 1.5 1.5 0 0 0 0-2.22 1.58 1.58 0 0 0-2.26 0 1.64 1.64 0 0 0 .01 2.22zM95.5 81.52a2.32 2.32 0 1 0 2.74 1.75 2.3 2.3 0 0 0-2.74-1.75zm-6.79 3.81a2.25 2.25 0 0 0 0 3.13 2.22 2.22 0 1 0 0-3.13zm-2.77 6.53a1.49 1.49 0 1 0 2.87.8 1.49 1.49 0 0 0-2.87-.8zm14.65 12.56a2.34 2.34 0 1 0 2.81 1.77 2.35 2.35 0 0 0-2.81-1.77zm4.66-2.43a2.28 2.28 0 0 0 0 3.17 2.2 2.2 0 0 0 3.09 0 2.16 2.16 0 0 0 .05-3.13 2.24 2.24 0 0 0-3.14-.03zm3-4.17a1.5 1.5 0 1 0 2.89.79 1.5 1.5 0 0 0-2.89-.79zM104.6 85a2.05 2.05 0 1 0-3.86-1.41 2.07 2.07 0 0 0 1.26 2.63 2.09 2.09 0 0 0 2.6-1.22zm-8.25 22a2 2 0 0 0-1.17-2.64 2.07 2.07 0 1 0-1.46 3.87 2.07 2.07 0 0 0 2.63-1.23zm12.19-17.68a1.57 1.57 0 0 0 .27-2.16 1.59 1.59 0 0 0-2.15-.25 1.53 1.53 0 0 0 1.88 2.41zm-18.15 14.23a1.56 1.56 0 0 0 .28-2.15 1.6 1.6 0 0 0-2.16-.26 1.53 1.53 0 0 0 1.88 2.41zM109.93 94a1.12 1.12 0 0 0 .84-1.28 1.09 1.09 0 0 0-1.3-.86 1.06 1.06 0 0 0-.86 1.25 1.13 1.13 0 0 0 1.32.89zm-22.2 4.64a1.12 1.12 0 0 0 .84-1.29 1.08 1.08 0 0 0-1.29-.85 1 1 0 0 0-.86 1.25 1.1 1.1 0 0 0 1.31.89zm91.5-13.46h-8.31v23.91a.84.84 0 0 1-.84.84H166a.84.84 0 0 1-.83-.84V85.18h-8.32a.77.77 0 0 1-.83-.75v-3.29a.8.8 0 0 1 .83-.79h22.41a.8.8 0 0 1 .83.79v3.29a.77.77 0 0 1-.86.75zm30.42 23.91V81.14a.8.8 0 0 0-.83-.79h-4.12a.8.8 0 0 0-.84.79V92h-13.19V81.14a.8.8 0 0 0-.83-.79h-4.12a.79.79 0 0 0-.83.79v28a.84.84 0 0 0 .83.84h4.12a.84.84 0 0 0 .83-.84V97h13.19v12.06a.84.84 0 0 0 .84.84h4.12a.84.84 0 0 0 .83-.81zM241.79 93v4.26c0 9.16-6.37 13-13.24 13s-13.23-3.83-13.23-13V93c0-9.16 6.36-13 13.23-13s13.24 3.85 13.24 13zM236 93c0-5.5-3.32-8-7.4-8s-7.4 2.45-7.4 8v4.26c0 5.49 3.32 8 7.4 8s7.4-2.46 7.4-8zm41 16.3V82a1.67 1.67 0 0 0-1.66-1.66h-3.42a1.74 1.74 0 0 0-1.54 1l-8 16.26c-.22.38-.3.59-.46.59s-.26-.21-.47-.59l-8-16.26a1.76 1.76 0 0 0-1.54-1h-3.42a1.67 1.67 0 0 0-1.61 1.66v27.3a.64.64 0 0 0 .72.63h4.2c.37 0 .67-.43.67-.84v-18c0-.29 0-.41.12-.41s.12.12.21.25l6.77 14.88a1.49 1.49 0 0 0 1.32.71h2.17a1.49 1.49 0 0 0 1.32-.71l6.73-14.88c.09-.13.17-.25.2-.25s.13.12.13.41v18c0 .41.29.84.66.84h4.21a.64.64 0 0 0 .69-.63zm89.27-1V81.14a.77.77 0 0 0-.79-.79h-3.59a.76.76 0 0 0-.79.79v20.54c0 .25-.12.38-.2.38s-.26-.13-.33-.34l-11.75-20c-.51-1.09-1-1.34-1.83-1.34h-4.5a1.66 1.66 0 0 0-1.64 1.62v27.08a.83.83 0 0 0 .83.84h3.53a.81.81 0 0 0 .8-.84V89.51c0-.25.09-.34.21-.34s.25.09.37.34l11.29 18.92a2.22 2.22 0 0 0 2.53 1.5h4.21a1.67 1.67 0 0 0 1.67-1.67zm-61.8-6.69c0-4-2.27-6-5.79-7.47-2.76-1.12-5.19-2.06-7-2.79s-3.41-2-3.41-3.36c0-1.88 2.32-3 5.39-3a88.6 88.6 0 0 1 9.23.76h.11a.71.71 0 0 0 .7-.75v-3.09a.82.82 0 0 0-.74-.78 40.84 40.84 0 0 0-9-1.1c-7.74 0-11.43 3.33-11.43 7.92a7.43 7.43 0 0 0 4.91 7.27c3.64 1.5 11.08 3.23 11.08 6.35 0 2.42-1.12 3.75-4.83 3.75a75 75 0 0 1-9.41-.76h-.09a.79.79 0 0 0-.78.8v3a.88.88 0 0 0 .78.83 45.47 45.47 0 0 0 9.42 1.1c8.26-.01 10.88-4.51 10.88-8.72zM335.29 93v4.26c0 9.16-6.35 13-13.22 13s-13.23-3.83-13.23-13V93c0-9.16 6.36-13 13.23-13s13.22 3.85 13.22 13zm-5.82 0c0-5.5-3.32-8-7.4-8s-7.41 2.45-7.41 8v4.26c0 5.49 3.33 8 7.41 8s7.4-2.46 7.4-8zm79.62 16.42a.46.46 0 0 1-.5.5h-5.08c-.46 0-.63-.43-.84-.84l-6-10.09h-.92c-1.09 0-4.46-.12-5.41-.17v10.26a.81.81 0 0 1-.8.84h-4.16a.84.84 0 0 1-.83-.84V81.81c0-.84.49-1.13 1.33-1.25a86 86 0 0 1 9.87-.54c6.41 0 12.33 2.29 12.33 9.41v.38c0 4.4-2.21 6.82-5.62 8.14l6.54 11.14a.54.54 0 0 1 .09.34zm-6.31-20c0-3.12-2.42-4.46-6.58-4.46-.88 0-4.67.09-5.41.17v9c.66 0 4.69.12 5.41.12 4.28 0 6.58-.82 6.58-4.48zM419.29 97h13.33a.83.83 0 0 0 .83-.83v-3a.84.84 0 0 0-.83-.83h-13.33v-3.79c0-3.48.13-3.58 3.28-3.58h10.54a.84.84 0 0 0 .84-.83v-2.66c0-.59-.21-.8-.84-.88a57 57 0 0 0-9-.58c-6.91 0-10.58 0-10.58 8.53v13.17c0 8.58 3.67 8.54 10.58 8.54a55.24 55.24 0 0 0 9-.59c.63-.08.84-.29.84-.87v-2.66a.84.84 0 0 0-.84-.83h-10.54c-3.15 0-3.28-.1-3.28-3.59zm44.93 1.44v-17.3a.79.79 0 0 0-.83-.79h-4.13a.8.8 0 0 0-.83.79v17.33c0 4.75-2.19 7-6.69 7s-6.68-2.25-6.68-7V81.14a.79.79 0 0 0-.83-.79h-4.12a.79.79 0 0 0-.83.79v17.33c0 8.87 5.77 11.79 12.46 11.79s12.48-2.92 12.48-11.79zm27.75-14v-3.3a.79.79 0 0 0-.82-.79h-22.42a.79.79 0 0 0-.82.79v3.29a.76.76 0 0 0 .82.75H477v23.91a.85.85 0 0 0 .84.84H482a.85.85 0 0 0 .84-.84V85.18h8.31a.76.76 0 0 0 .85-.75zm54.87 25c0 .29.27.5-.05.5h-5.09c-.46 0-.62-.43-.83-.84l-6-10.09h-.93c-1.07 0-4.44-.12-5.4-.17v10.26a.8.8 0 0 1-.79.84h-4.16a.84.84 0 0 1-.83-.84V81.81c0-.84.49-1.13 1.33-1.25a85.72 85.72 0 0 1 9.85-.54c6.42 0 12.34 2.29 12.34 9.41v.38c0 4.4-2.21 6.82-5.62 8.14l6.09 11.14a.54.54 0 0 1 .09.34zm-5.86-20c0-3.12-2.42-4.46-6.59-4.46-.87 0-4.66.09-5.41.17v9c.67 0 4.71.12 5.41.12 4.29 0 6.59-.82 6.59-4.48zm31.75 12.14c0-4-2.28-6-5.79-7.47-2.76-1.12-5.19-2.06-7-2.79s-3.41-2-3.41-3.36c0-1.88 2.31-3 5.4-3a89.09 89.09 0 0 1 9.22.76h.07a.71.71 0 0 0 .71-.75v-3.06a.83.83 0 0 0-.74-.78 40.93 40.93 0 0 0-9-1.1c-7.74 0-11.43 3.33-11.43 7.92a7.43 7.43 0 0 0 4.9 7.27c3.64 1.5 11.1 3.23 11.1 6.35 0 2.42-1.14 3.75-4.84 3.75a75 75 0 0 1-9.41-.76h-.08a.8.8 0 0 0-.8.8v3a.89.89 0 0 0 .8.83 45.18 45.18 0 0 0 9.41 1.1c8.26-.01 10.89-4.51 10.89-8.72zM501.55 97h13.33a.82.82 0 0 0 .82-.83v-3a.83.83 0 0 0-.82-.83h-13.33v-3.79c0-3.48.13-3.58 3.29-3.58h10.54a.84.84 0 0 0 .83-.83v-2.66c0-.59-.21-.8-.83-.88a57 57 0 0 0-9-.58c-6.93 0-10.59 0-10.59 8.53v13.17c0 8.58 3.66 8.54 10.59 8.54a55.24 55.24 0 0 0 9-.59c.62-.08.83-.29.83-.87v-2.66a.83.83 0 0 0-.83-.83h-10.54c-3.16 0-3.29-.1-3.29-3.59zm74.24-11a6.1 6.1 0 1 0 6.08-6 5.89 5.89 0 0 0-6.08 6.07zm.88 0a5.22 5.22 0 1 1 5.2 5.26 5 5 0 0 1-5.2-5.19zm8 2.69l-1.32-2.25a1.62 1.62 0 0 0 1.14-1.64v-.08c0-1.44-1.19-1.9-2.49-1.9a16.65 16.65 0 0 0-2 .11c-.16 0-.27.09-.27.25v5.51a.18.18 0 0 0 .17.17h.84a.17.17 0 0 0 .16-.17v-2h1.28l1.21 2c0 .08.07.17.17.17h1a.09.09 0 0 0 .1-.1.1.1 0 0 0-.03 0zm-1.34-3.89c0 .73-.46.9-1.33.9h-1.09v-1.77H582c.84 0 1.33.27 1.33.9z" transform="translate(-59.15 -59.15)"/></svg>