<svg xmlns="http://www.w3.org/2000/svg" width="300" height="300">
    <rect x="85.046" y=".062" width="128.954" height="299.938" fill="#E6E7E8"/>
    <path d="M116.188 60.219c2.828 0 5.119-2.289 5.119-5.115 0-2.827-2.291-5.118-5.119-5.118-2.826 0-5.115 2.291-5.115 5.118 0 2.826 2.289 5.115 5.115 5.115" fill="#019776" stroke="#CBCCCE" stroke-width="1.827"/>
    <circle cx="116.189" cy="36.503" r="5.997" fill="#fff" stroke="#000" stroke-width="1.05" stroke-miterlimit="10"/>
    <path d="M116.438 33.007c2.502 0 3.59 1.557 3.59 3.436 0 1.969-1.049 3.416-3.779 3.416h-2.834v-6.852h3.023zm-1.314 5.596h1.113c1.719 0 2.23-1.166 2.23-2.17 0-1.176-.633-2.17-2.25-2.17h-1.094v4.34z"/>
    <circle cx="116.272" cy="17.187" r="5.996" fill="#fff" stroke="#000" stroke-width="1.05" stroke-miterlimit="10"/>
    <polygon points="114.187,15.731 117.761,15.731 117.761,20.618 118.747,20.618 118.747,21.325 114.142,21.325 114.142,20.761 115.269,20.761 115.269,16.483 114.187,16.483"/>
    <path d="M115.081 13.757c0 .676.549 1.223 1.221 1.223.678 0 1.221-.547 1.221-1.223 0-.674-.543-1.221-1.221-1.221-.672 0-1.221.547-1.221 1.221"/>
    <rect x="126.692" y="-6.428" width="83.91" height="285.504" fill="none"/>
    <text transform="translate(126.692 18.962)">
        <tspan x="0" y="0" font-family="Interstate-BoldCondensed" font-size="9">
            Information
        </tspan>
        <tspan x="0" y="19" font-family="Interstate-BoldCondensed" font-size="9">
            Directory
        </tspan>
        <tspan x="0" y="38" font-family="Interstate-BoldCondensed" font-size="9">
            Learning Station
        </tspan>
        <tspan x="0" y="57" font-family="Interstate-BoldCondensed" font-size="9">
            Period Rooms
        </tspan>
        <tspan x="0" y="76" font-family="Interstate-BoldCondensed" font-size="9">
            Restrooms
        </tspan>
        <tspan x="0" y="95" font-family="Interstate-BoldCondensed" font-size="9">
            Elevator
        </tspan>
        <tspan x="0" y="114" font-family="Interstate-BoldCondensed" font-size="9">
            Stairs
        </tspan>
        <tspan x="0" y="133" font-family="Interstate-BoldCondensed" font-size="9">
            Coffee Shop
        </tspan>
        <tspan x="0" y="152" font-family="Interstate-BoldCondensed" font-size="9">
            Restaurant
        </tspan>
        <tspan x="0" y="171" font-family="Interstate-BoldCondensed" font-size="9">
            Telephone
        </tspan>
        <tspan x="0" y="190" font-family="Interstate-BoldCondensed" font-size="9">
            Museum Shop
        </tspan>
        <tspan x="0" y="209" font-family="Interstate-BoldCondensed" font-size="9">
            Coat Check
        </tspan>
        <tspan x="0" y="228" font-family="Interstate-BoldCondensed" font-size="9">
            Security
        </tspan>
        <tspan x="0" y="247" font-family="Interstate-BoldCondensed" font-size="9">
            Fire Exit
        </tspan>
    </text>
    <circle cx="116.189" cy="93.124" r="5.997" fill="#fff" stroke="#000" stroke-width="1.05" stroke-miterlimit="10"/>
    <path d="M114.546 96.909v-2.35h.891l-.943-3.092h.094c.135.445.621 1.781.621 1.781.053.137.201.205.338.162.148-.039.217-.135.176-.324.014-.012-.553-1.904-.648-2.119-.109-.244-.434-.486-.635-.486h-1.324c-.215 0-.445.203-.621.486-.066.189-.539 2.107-.539 2.107-.039.135 0 .297.135.336.135.043.311-.039.363-.162l.516-1.781h.092s-.795 3.092-.822 3.092h.877v2.363c0 .178.203.297.326.297.119 0 .324-.119.324-.311v-2.336h.121v2.336c0 .15.256.283.363.283.133.001.295-.131.295-.282"/>
    <path d="M119.714 93.454v-2.434c0-.256-.338-.646-.676-.646h-1.809c-.379 0-.771.473-.771.674v2.35c0 .137.123.258.283.258.191 0 .338-.121.338-.244v-1.972h.15v5.416c0 .203.242.283.35.283.15 0 .406-.107.406-.297v-3.132h.174v3.133c0 .189.271.324.381.324.162 0 .404-.123.404-.297l.014-5.43h.162v1.984c0 .123.148.244.309.244.191 0 .285-.121.285-.23v.016z"/>
    <path d="M113.724 88.97c-.365.012-.648.322-.635.688.012.365.309.662.676.648.365-.014.674-.324.646-.703-.014-.35-.322-.647-.687-.633"/>
    <path d="M118.106 88.833c-.377 0-.674.311-.66.689 0 .379.322.676.701.662.363-.014.66-.324.648-.703-.013-.377-.31-.66-.689-.648"/>
    <circle cx="116.19" cy="130.321" r="5.996" fill="#fff" stroke="#662D91" stroke-width="1.05" stroke-miterlimit="10"/>
    <polyline points="112.948,135.413 114.544,135.413 114.544,134.071 116.14,134.071 116.14,132.647 117.62,132.647 117.62,131.196 119.216,131.196 119.216,129.854 120.812,129.854 120.812,128.431 121.991,128.431" stroke="#000" stroke-width=".902" stroke-miterlimit="10" fill="none"/>
    <path d="M114.483 125.47c.355 0 .637.291.623.648 0 .357-.305.639-.662.625-.344-.012-.623-.307-.611-.664.012-.355.293-.623.65-.609"/>
    <path d="M115.784 127.56v-.002l-.076-.195-.004-.008-.002.002c-.127-.199-.389-.434-.646-.434h-1.451c-.32 0-.639.371-.639.609v2.283c0 .104.09.217.27.217.15 0 .291-.113.291-.229v-1.875h.152l.012 3.789-.316.656c-.074.146.08.352.219.42.092.045.377.045.457-.115l.389-.773-.016-.006.01-.029v-1.799h.166v3.539c0 .18.24.281.383.281.102 0 .33-.076.33-.268v-5.662l.656 1.688c.041.107.213.164.379.1.143-.057.209-.205.162-.324l-.726-1.865z"/>
    <path d="M121.991 128.431h-1.18v1.424h-1.596v1.342h-1.596v1.451h-1.48v1.424h-1.596v1.342h-1.596s1.605 1.209 3.918.896 3.418-1.227 4.375-2.625c1.22-1.782.751-5.254.751-5.254z"/>
    <g fill="#A2DEF9" stroke="#00C0F3" stroke-width="1.203" stroke-linecap="round" stroke-linejoin="round" stroke-miterlimit="10">
        <polygon points="117.074,118.589 123.229,115.674 123.229,107.846 117.074,110.764"/>
        <polygon points="117.077,118.561 109.546,114.869 109.546,107.08 117.077,110.771"/>
        <polygon points="117.077,110.771 109.53,107.074 115.694,104.141 123.239,107.838"/>
    </g>
    <circle cx="116.19" cy="168.365" r="5.996" fill="#fff" stroke="#000" stroke-width="1.05" stroke-miterlimit="10"/>
    <path d="M115.478 166.203v-1.955c0-.092.074-.166.166-.166s.164.074.164.166v2.662c0 .338-.273.613-.611.613v4.717c0 .254-.205.459-.459.459s-.459-.205-.459-.459v-4.713c-.342 0-.623-.277-.623-.617v-2.662c0-.092.074-.166.166-.166s.166.074.166.166v1.955h.275v-1.955c0-.092.074-.166.166-.166s.164.074.164.166v1.955h.277v-1.955c0-.092.074-.166.166-.166s.166.074.166.166v1.955h.276z"/>
    <path d="M116.837 169.301v-4.539c0-.391.318-.711.711-.711s.711.32.711.711v7.479c0 .254-.205.459-.459.459s-.459-.205-.459-.459v-2.938l-.504-.002z"/>
    <circle cx="116.189" cy="187.365" r="5.997" fill="#fff" stroke="#000" stroke-width="1.05" stroke-miterlimit="10"/>
    <path d="M115.95 182.846s-1.492.086-1.49 4.529h1.088s-.057-2.062.518-2.436h.285v-2.064l-.401-.029z"/>
    <path d="M115.95 191.906s-1.492-.086-1.492-4.668h1.092s-.059 2.258.514 2.631h.287v2.008l-.401.029z"/>
    <rect x="116.675" y="182.894" width=".402" height="2.066"/>
    <rect x="116.642" y="189.86" width=".402" height="2.064"/>
    <circle cx="116.237" cy="149.158" r="5.996" fill="#fff" stroke="#000" stroke-width="1.05" stroke-miterlimit="10"/>
    <path d="M112.212 152.113c0 .457.369.828.824.828h6.441c.455 0 .826-.371.826-.828h-8.091z"/>
    <path d="M118.552 151.197c0 .389-.314.705-.705.705h-3.178c-.391 0-.705-.316-.705-.705v-3.15h4.732c.783 0 1.424.639 1.424 1.422 0 .787-.637 1.422-1.42 1.422h-.148v.306m.148-.869c.473 0 .855-.385.855-.859 0-.473-.383-.857-.855-.857h-.148v1.717l.148-.001"/>
    <path d="M115.755 146.279h.484c.439 0 .795.355.795.795v.631h-.416l.004-.418c0-.205-.168-.371-.377-.371h-.891c-.359 0-.65-.289-.65-.646l.037-.213c-.469 0-.844-.381-.844-.85 0-.467.518-1.023.984-1.023l-.02.709c-.324.193-.211.826.652.711l-.018.402c.002 0 .033.273.26.273"/>
    <circle cx="116.247" cy="245.233" r="5.996" fill="#fff" stroke="#000" stroke-width="1.05" stroke-miterlimit="10"/>
    <polygon points="116.599,240.921 119.118,240.921 119.118,241.6 116.935,241.6"/>
    <path d="M116.694 242.327l.285-.363h2.145l-.029.508s.084.945-1.018.945c0 0-.971-.095-.971-1.018 0 0-.121-.072-.412-.072"/>
    <path d="M112.149 247.848v.709s-.037.254.273.254h3.328s.219-.036.219-.236v-.709l-3.82-.018z"/>
    <path d="M118.87 243.874h-2.492s-.273-.02-.455.2c-.182.218-2.184 2.837-2.184 2.837s-.162.308.129.545c0 0 .309.309.547.055.236-.255 2.072-2.62 2.072-2.62s.129-.091.129.092v1.837l2.346-2.945h-.092z"/>
    <path d="M117.179 247.183l2.529-3.256s.271-.017.398.091c0 0 .184.11.184.274v4.51h-3.656v-.98h2.691v-.639h-2.146z"/>
    <circle cx="116.19" cy="225.643" r="5.996" fill="#fff" stroke="#000" stroke-width="1.05" stroke-miterlimit="10"/>
    <path d="M120.614 227.077c-.221-.801-1.428-1.11-2.008-1.515-.555-.383-1.416-1.186-2.033-1.665v-.887c0-.419.529-.764.506-1.109-.037-.617-.975-.826-1.295-.247-.197.358-.148.383.025.383.121 0 .172-.346.432-.42.234-.097.455.037.48.346.025.358-.494.543-.494.974v.961c-.555.419-1.613 1.121-2.244 1.54-.529.358-1.883.752-2.154 1.566-.137.406.553.861.715.518h7.369c.109.38.826-.013.701-.445m-4.386-1.897c1.801.024 2.822 1.294 3.205 1.947l-6.619-.014c.468-.751 1.738-1.958 3.414-1.933"/>
    <circle cx="116.19" cy="206.781" r="5.996" fill="#fff" stroke="#000" stroke-width="1.05" stroke-miterlimit="10"/>
    <path d="M115.856 204.62s-2.867-1.024-1.795-2.001c1.075-.975 1.795 2.001 1.795 2.001"/>
    <path d="M116.226 204.604s.803-2.936 1.855-1.941c1.055.995-1.855 1.941-1.855 1.941"/>
    <rect x="112.792" y="205.062" width="3.008" height="2.514"/>
    <rect x="116.345" y="205.062" width="3.008" height="2.514"/>
    <rect x="112.792" y="208.092" width="3.008" height="2.358"/>
    <rect x="116.345" y="208.092" width="3.008" height="2.358"/>
    <path d="M117.562 262.221c-1.363-4.348-3.707-3.585-3.707-3.585s2.115.541 1.244 4.414c-.174.776-1.736 1.62-1.387-1.383-1.156.743-2.33 7.148 2.568 6.912 4.729-.23 3.842-8.744 1.492-8.84.676 1.077.252 2.351-.21 2.482z" fill-rule="evenodd" clip-rule="evenodd"/>
    <g fill="#808285">
        <circle cx="112.92" cy="67.879" r="1.126"/>
        <circle cx="115.751" cy="67.879" r="1.126"/>
        <circle cx="118.459" cy="67.879" r="1.126"/>
        <circle cx="121.213" cy="67.879" r="1.126"/>
        <circle cx="112.92" cy="70.682" r="1.126"/>
        <circle cx="115.751" cy="70.682" r="1.126"/>
        <circle cx="118.459" cy="70.682" r="1.126"/>
        <circle cx="121.213" cy="70.682" r="1.126"/>
        <circle cx="112.92" cy="73.375" r="1.126"/>
        <circle cx="115.751" cy="73.375" r="1.126"/>
        <circle cx="118.459" cy="73.375" r="1.126"/>
        <circle cx="121.213" cy="73.375" r="1.126"/>
        <circle cx="112.92" cy="76.068" r="1.126"/>
        <circle cx="115.751" cy="76.068" r="1.126"/>
        <circle cx="118.459" cy="76.068" r="1.126"/>
        <circle cx="121.213" cy="76.068" r="1.126"/>
    </g>
    <line x1="151.293" y1="135.095" x2="151.293" y2="125.548" stroke="#662D91" stroke-width="1.333" stroke-linecap="round" stroke-linejoin="round" stroke-dasharray="0.0569,1.7208,0,0,0,0" fill="none"/>
    <polygon points="153.147,133.774 151.213,140.998 149.275,133.774" fill="#662D91"/>
    <polygon points="153.147,126.868 151.213,119.645 149.275,126.868" fill="#662D91"/>
    <line x1="159.948" y1="115.395" x2="159.948" y2="106.149" stroke="#00AEEF" stroke-width="1.32" stroke-linecap="round" stroke-linejoin="round" stroke-dasharray="0.0563,1.7039,0,0,0,0" fill="none"/>
    <polygon points="161.784,114.088 159.869,121.24 157.951,114.088" fill="#00AEEF"/>
    <polygon points="161.784,107.456 159.869,100.304 157.951,107.456" fill="#00AEEF"/>
</svg>
